<?xml version="1.0"?>
<svg xmlns:rdf="http://www.w3.org/1999/02/22-rdf-syntax-ns#" xmlns="http://www.w3.org/2000/svg" xmlns:cc="http://creativecommons.org/ns#" xmlns:dc="http://purl.org/dc/elements/1.1/" xmlns:svg="http://www.w3.org/2000/svg" id="svg3188" viewBox="0 0 91.075 162.3" version="1.0">
  <g id="layer1" transform="translate(-343.03 -476.93)">
    <g id="g3179" stroke-linejoin="round" fill-opacity=".99219" transform="translate(-194.37 268.79)" stroke="#000" stroke-linecap="round" fill="#cccccc">
      <path id="path2393" stroke-width="2" d="m571.8 251.67c0 8.18-6.48 14.82-14.46 14.82-7.99 0-14.47-6.64-14.47-14.82 0-8.19 6.84-14.83 14.82-14.83 7.91 0 13.27 6.25 11.25 13.68"/>
      <path id="path2385" stroke-width="2" d="m539.84 353.01l20.89 16.42 1.96-119.28-24.28-15.72 1.43 118.58z"/>
      <path id="path2387" stroke-width="2" d="m560.55 369.43l61.43-45c2.59-2.34 2.94-5.82 2.8-8.4l2.65-91.61c0.45-4.84-2.06-5.65-4.38-4.99l-60.36 31.43-2.14 118.57z"/>
      <path id="path2389" stroke-width="2" d="m538.41 234.08l70.35-24.74c3.26-0.92 4.74 1.43 4.47 3.46l-0.46 11.01"/>
      <path id="path2396" stroke-width="1.4071" transform="matrix(.65455 0 0 .77160 426.52 232.29)" d="m191.79 34.377a3.9286 4.2857 0 1 1 0 -0.065"/>
      <path id="path3171" stroke-width="1.4071" transform="matrix(.65455 0 0 .77160 426.8 317.1)" d="m191.79 34.377a3.9286 4.2857 0 1 1 0 -0.065"/>
      <path id="path3173" d="m573.41 261.22l-1.07 36.79 45.35-26.08 1.43-34.28-45.71 23.57z"/>
    </g>
  </g>
  <metadata>
    <rdf:RDF>
      <cc:Work>
        <dc:format>image/svg+xml</dc:format>
        <dc:type rdf:resource="http://purl.org/dc/dcmitype/StillImage"/>
        <cc:license rdf:resource="http://creativecommons.org/licenses/publicdomain/"/>
        <dc:publisher>
          <cc:Agent rdf:about="http://openclipart.org/">
            <dc:title>Openclipart</dc:title>
          </cc:Agent>
        </dc:publisher>
        <dc:title>Cartable &#xE0; anneaux / Binder</dc:title>
        <dc:date>2010-03-21T23:52:55</dc:date>
        <dc:description>binder, black and white, clip art, clipart, file binder, line art, office, outline, ring binder, </dc:description>
        <dc:source>http://openclipart.org/detail/32917/cartable-&#xE0;-anneaux-/-binder-by-lmproulx</dc:source>
        <dc:creator>
          <cc:Agent>
            <dc:title>lmproulx</dc:title>
          </cc:Agent>
        </dc:creator>
        <dc:subject>
          <rdf:Bag>
            <rdf:li>binder</rdf:li>
            <rdf:li>black and white</rdf:li>
            <rdf:li>clip art</rdf:li>
            <rdf:li>clipart</rdf:li>
            <rdf:li>file binder</rdf:li>
            <rdf:li>line art</rdf:li>
            <rdf:li>office</rdf:li>
            <rdf:li>outline</rdf:li>
            <rdf:li>ring binder</rdf:li>
          </rdf:Bag>
        </dc:subject>
      </cc:Work>
      <cc:License rdf:about="http://creativecommons.org/licenses/publicdomain/">
        <cc:permits rdf:resource="http://creativecommons.org/ns#Reproduction"/>
        <cc:permits rdf:resource="http://creativecommons.org/ns#Distribution"/>
        <cc:permits rdf:resource="http://creativecommons.org/ns#DerivativeWorks"/>
      </cc:License>
    </rdf:RDF>
  </metadata>
</svg>
