<?xml version="1.0" encoding="UTF-8" standalone="no"?>
<!-- Created with Inkscape (http://www.inkscape.org/) -->

<svg
   xmlns:dc="http://purl.org/dc/elements/1.1/"
   xmlns:cc="http://creativecommons.org/ns#"
   xmlns:rdf="http://www.w3.org/1999/02/22-rdf-syntax-ns#"
   xmlns:svg="http://www.w3.org/2000/svg"
   xmlns="http://www.w3.org/2000/svg"
   xmlns:sodipodi="http://sodipodi.sourceforge.net/DTD/sodipodi-0.dtd"
   xmlns:inkscape="http://www.inkscape.org/namespaces/inkscape"
   id="svg2985"
   version="1.1"
   inkscape:version="0.48.2 r9819"
   width="624.86469"
   height="315.32425"
   sodipodi:docname="Trabant_by_jazo.svg">
  <metadata
     id="metadata2991">
    <rdf:RDF>
      <cc:Work
         rdf:about="">
        <dc:format>image/svg+xml</dc:format>
        <dc:type
           rdf:resource="http://purl.org/dc/dcmitype/StillImage" />
        <dc:title />
      </cc:Work>
    </rdf:RDF>
  </metadata>
  <defs
     id="defs2989" />
  <sodipodi:namedview
     pagecolor="#ffffff"
     bordercolor="#666666"
     borderopacity="1"
     objecttolerance="10"
     gridtolerance="10"
     guidetolerance="10"
     inkscape:pageopacity="0"
     inkscape:pageshadow="2"
     inkscape:window-width="1680"
     inkscape:window-height="1002"
     id="namedview2987"
     showgrid="false"
     inkscape:zoom="0.98522241"
     inkscape:cx="328.54237"
     inkscape:cy="149.50787"
     inkscape:window-x="60"
     inkscape:window-y="0"
     inkscape:window-maximized="0"
     inkscape:current-layer="svg2985"
     fit-margin-top="0"
     fit-margin-left="0"
     fit-margin-right="0"
     fit-margin-bottom="0"
     showguides="true"
     inkscape:guide-bbox="true" />
  <path
     style="fill:#000000"
     d="M 277.75 0 C 269.45441 -0.01 261.17056 0.0043 252.875 0.03125 C 246.73487 0.17388 240.54369 -0.07609004 234.46875 1 C 229.33409 3.70401 226.09622 8.7209773 222.40625 13 C 216.67253 20.06649 212.33642 28.23345 209.59375 36.90625 C 207.4521 42.05771 205.93701 47.45325 205.09375 52.96875 C 204.5073 55.77508 203.49583 58.65905 201.375 60.6875 C 198.17889 61.36567 194.91364 60.5932 191.6875 60.875 C 166.05147 60.69222 140.41876 59.75181 114.78125 59.875 C 107.17283 60.45934 99.57335 61.17026 91.9375 61.21875 C 78.37874 61.75838 64.74693 62.34933 51.375 64.8125 C 46.44087 66.39968 41.57623 68.45733 37.4375 71.625 C 34.64507 74.16205 33.66316 78.16346 34.09375 81.8125 C 34.01565 87.57106 34.7426 93.31001 35.5 99 C 35.28438 103.70405 32.3507 107.60508 30.65625 111.84375 C 28.32558 116.57583 25.182387 120.90357 23.34375 125.875 C 22.099926 128.38155 20.135175 130.64558 19.84375 133.53125 C 19.229531 136.60143 18.722909 139.7358 17.46875 142.625 C 15.336237 149.21477 13.519924 156.07316 14.03125 163.0625 C 14.0046 165.10327 13.99491 167.14657 14 169.1875 C 10.933959 169.56244 7.410347 169.1757 4.9375 171.40625 C 1.658329 175.03958 0.832476 180.0685 0.5 184.78125 C -0.01444 193.98044 -0.49276299 203.30197 1 212.4375 C 2.051591 217.63486 3.601756 222.7378 5.40625 227.71875 C 7.803177 232.99669 11.089392 237.86093 12.8125 243.4375 C 14.401455 248.77776 17.974057 253.30893 19.28125 258.75 C 20.195209 262.62305 21.1261 266.82898 24.03125 269.75 C 26.248482 271.69225 29.38432 271.37181 32.125 271.375 C 37.33191 271.72795 46.99235 269.74665 52.09375 271.0625 C 55.72681 277.21728 60.74212 285.29682 65.6875 291.25 C 69.31421 296.06923 73.13732 300.7678 77.3125 305.125 C 82.77803 308.27781 88.96171 309.80894 94.875 311.875 C 104.85488 314.71236 115.30031 315.2938 125.625 315.25 C 129.4773 314.9963 132.92201 313.05974 136.125 311.0625 C 140.04272 308.97779 144.0716 306.9862 147.375 303.96875 C 150.19629 301.65224 153.09005 299.37723 155.65625 296.78125 C 159.02899 292.52447 161.03876 287.17872 165.3125 283.65625 C 166.51538 282.02816 164.89323 280.12168 166.9375 280.59375 C 196.52191 280.87959 229.79079 281.88498 259.375 282.1875 C 283.46272 282.42592 307.57111 282.65712 331.65625 283.09375 C 345.65516 283.35169 359.63205 283.48924 373.625 283.96875 C 378.31454 284.26065 383.10565 284.4457 387.625 285.8125 C 392.40065 287.81276 396.45309 291.27304 399.5625 295.375 C 406.68843 302.77482 408.03958 306.5961 417.28125 311.21875 C 420.56458 313.06682 423.98209 315.02106 427.71875 315.09375 C 439.07714 315.30982 461.40599 315.69739 472.6875 314.40625 C 492.56645 312.70144 504.92602 296.14012 502.84375 292.78125 C 502.70189 292.57538 504.30897 290.76337 504.78125 289.84375 C 508.13708 284.63557 502.93718 280.66125 508.5 278.375 C 513.71109 276.10843 519.07364 273.76083 524.84375 273.5625 C 528.87686 273.29722 533.29374 273.92285 536.875 271.625 C 540.72802 269.19912 543.0796 264.93744 544.125 260.59375 C 544.39027 259.15587 544.90222 257.65213 546.25 256.875 C 547.83 255.70337 549.86349 255.5787 551.75 255.6875 C 561.37887 255.34838 571.12257 254.97565 580.65625 256.65625 C 586.762 258.20253 590.85344 263.59171 596.75 265.59375 C 598.24946 266.09239 599.8969 266.55303 601.46875 266.3125 C 602.50569 265.72438 602.66016 264.48046 602.3125 263.40625 C 606.35971 261.68054 611.82567 259.10452 612.84375 258.21875 C 614.49122 255.22471 613.53448 251.75137 613.03125 248.59375 C 612.6592 246.80892 612.45685 244.3205 614.34375 243.3125 C 617.36939 241.38808 621.21605 240.2124 623 236.84375 C 624.97388 233.0403 625.67581 228.19482 623.625 224.28125 C 622.47216 222.4358 620.03644 222.34692 618.09375 222.125 C 615.86102 222.1008 613.69535 221.54137 611.53125 221.0625 C 610.06971 220.77957 608.61366 220.45673 607.25 219.84375 C 606.71682 217.76588 608.42956 215.81528 607.78125 213.75 C 607.91506 208.5583 607.10043 203.10954 604.09375 198.75 C 602.09089 197.66182 599.50648 196.5808 599 194.09375 C 598.28125 190.58573 599.68407 185.59964 598.28125 182.28125 C 600.56674 157.21582 589.21901 127.78932 585.15625 99.34375 C 584.96607 96.19734 586.62518 92.08075 586.6875 88.9375 C 586.90523 84.98763 583.90979 78.87128 584.59375 74.96875 C 584.07656 70.4539 581.87807 70.33917 577.5 70.15625 C 549.09133 68.352924 522.61948 63.566394 495.34375 64.5 C 494.06695 64.5651 492.77685 64.6236 491.5 64.6875 C 488.97478 62.23884 485.81502 59.94183 485 56.3125 C 483.80913 52.99047 481.01336 50.57444 479.75 47.28125 C 468.20018 28.41945 467.69422 9.438352 456.09375 3.5625 C 441.84629 1.324854 424.73565 1.7748865 411.8125 1.90625 C 408.39795 1.18258 404.89596 1.42587 401.4375 1.125 C 385.09287 0.49522996 368.72849 0.55529 352.375 0.4375 C 327.50668 0.22493 302.61946 0.01598 277.75 0 z M 319.375 4.21875 C 335.02196 4.24123 350.62879 5.87029 366.28125 5.4375 C 382.04906 5.6397 397.82983 6.0011 413.59375 5.40625 C 422.49079 5.92701 431.39482 6.51134 440.3125 6.34375 C 445.12592 6.40963 450.01391 6.1681 454.75 7.1875 C 457.67547 7.70208 459.43755 10.56403 460.09375 13.25 C 462.49681 18.78688 464.88209 24.350039 466.34375 29.78125 C 467.7472 32.83078 469.68403 35.64917 470.6875 38.875 C 470.31213 40.79983 471.67441 42.08676 472.125 44.25 C 471.89012 53.79672 467.78236 63.12562 466.4375 72.59375 C 465.80284 77.57367 464.60298 82.46068 463.34375 87.3125 C 462.4307 91.1322 461.58738 95.12341 462.5 99.03125 C 464.13516 106.05401 467.69953 112.37381 470.6875 118.875 C 474.82619 127.04212 478.81195 135.30692 483.375 143.25 C 484.82345 145.03842 488.17957 144.63023 488.875 142.34375 C 492.06718 136.56342 492.70193 129.86384 493.5625 123.4375 C 495.23596 108.42575 497.02811 91.11272 493 76.5625 C 492.85606 75.54148 492.20399 74.52752 492.40625 73.5 C 492.99828 72.32735 493.05462 72.876352 495.5625 72.84375 C 502.28146 73.73372 505.96517 75.57169 512.71875 75.25 C 514.5343 75.09335 516.35252 74.95224 518.15625 74.6875 C 519.07047 73.88633 517.4809 73.04753 516.71875 73.1875 C 514.20437 73.73441 511.83174 72.4318 509.40625 72 C 507.47982 71.46965 505.49174 71.22758 503.5 71.34375 C 499.88075 71.06146 496.15179 71.29585 492.65625 70.15625 C 491.44535 68.85206 493.51258 66.82988 494.90625 67.65625 C 499.1257 68.85782 503.53002 69.01982 507.875 69.40625 C 532.4062 70.253652 554.86525 74.047421 578.125 75.25 C 577.80066 81.96269 580.07105 87.55468 580.75 94.28125 C 582.1379 97.64062 580.15088 101.30128 581.375 104.6875 C 586.63044 130.68316 593.47621 147.63389 593.84375 170.40625 C 583.71707 170.03775 573.77831 168.85254 563.875 168.34375 C 561.19525 168.19145 558.50542 168.05955 555.84375 168.03125 C 553.18208 168.00295 550.56497 168.05375 547.9375 168.25 C 547.9271 168.25008 547.91665 168.25008 547.90625 168.25 C 543.53123 168.51571 539.0557 169.26114 534.34375 169.375 C 534.33475 169.37521 534.3215 169.37479 534.3125 169.375 C 532.53304 169.4412 515.17924 170.31583 510.625 169.75 C 504.85863 168.79878 498.90074 169.25614 493.21875 167.78125 C 490.51627 166.81256 489.25492 163.97279 488.03125 161.59375 C 485.1972 155.75648 482.09239 150.03737 479.28125 144.1875 C 473.09677 131.61113 467.18141 118.90641 460.90625 106.375 C 458.24788 101.34822 455.05585 96.24058 450.0625 93.25 C 446.94247 91.47412 443.28947 92.38799 439.78125 91.96875 C 430.63966 90.63626 421.94114 94.303604 413.625 93.8125 C 409.12711 93.67881 404.66141 93.18294 400.15625 93.40625 C 389.17638 93.55748 378.19989 92.5337 367.21875 92.5625 C 337.27467 92.9823 307.31901 93.29353 277.375 93.71875 C 273.11414 94.52 268.69885 95.04 264.40625 94.1875 C 256.7306 93.58292 249.08097 94.82244 241.40625 94.8125 C 233.7912 95.09255 226.14691 95.12753 218.5625 95.9375 C 213.85345 94.69814 210.30089 90.73645 208.375 86.40625 C 206.73475 81.92204 206.43201 76.67412 208.59375 72.3125 C 210.28239 69.4583 211.68603 66.36537 212 63.03125 C 213.98966 53.27494 214.90306 43.22172 218.4375 33.84375 C 220.06311 30.56713 223.0391 27.76558 223.1875 23.90625 C 224.42305 20.73164 227.93856 19.11428 229 15.84375 C 231.12637 12.32308 233.4166 8.90702 235.71875 5.5 C 238.77056 3.89204 242.25687 5.25188 245.5 4.8125 C 258.50158 5.04904 271.50606 4.72414 284.5 4.3125 C 293.68041 4.53329 302.904 5.4802 312.0625 4.375 C 314.49939 4.28852 316.93598 4.19308 319.375 4.21875 z M 475.71875 54.40625 C 477.90515 53.918283 481.22624 60.954772 480.78125 63.59375 C 480.44636 65.86387 477.24543 83.0371 476.5 85.21875 C 474.48385 83.283471 471.26588 79.731665 470.8125 77 C 471.40191 74.277855 475.13471 55.359259 475.71875 54.40625 z M 198.34375 65.03125 C 196.93879 65.474871 190.84341 74.345694 191.03125 81.3125 C 197.03055 77.821007 203.17026 61.943728 201.90625 68.65625 C 201.48205 70.908944 200.81968 74.528968 200.9375 79.8125 C 199.41684 86.504798 205.08792 100.20865 207.78125 98.96875 C 209.06405 98.56857 209.96356 99.928086 210.8125 100.65625 C 211.78439 101.55062 212.27468 103.09862 211.375 104.21875 C 206.07172 114.31285 201.47618 124.82061 198 135.6875 C 195.72049 141.47116 192.28556 146.78338 190.71875 152.84375 C 190.11716 153.75878 189.56672 154.72589 189.15625 155.75 C 189.21945 156.59494 189.27667 157.43714 189.34375 158.28125 C 189.21818 159.63832 189.91022 161.01322 189.40625 162.34375 C 189.25691 163.36468 187.47787 163.71159 186.53125 163.03125 C 184.87536 165.20855 182.47631 167.14475 180.625 167.03125 C 153.41221 162.32633 164.0265 173.95586 171.78125 170.9375 C 173.84886 170.41989 176.05129 169.67743 178.15625 170.4375 C 181.26762 170.97815 184.72251 171.27786 187.53125 169.53125 C 188.88831 168.8865 190.29691 168.33013 191.78125 168.0625 C 193.2955 169.56919 194.50967 171.86658 196.875 172.0625 C 198.89362 172.62446 199.5595 175.42048 198.3125 177 C 197.59213 179.83442 194.96897 181.60377 193.875 184.25 C 194.09281 185.78076 195.98045 185.58003 197.03125 186.15625 C 198.1541 186.88616 198.04653 188.46026 198.59375 189.5625 C 200.88857 198.10142 196.7045 196.23085 198.9375 204.78125 C 200.54385 213.44304 201.26604 222.23586 202.0625 231 C 202.73152 240.51858 203.35349 250.04031 203.96875 259.5625 C 215.4753 277.86464 204.21638 217.69157 203 208.53125 C 202.45541 204.20165 201.80441 199.55422 203.65625 195.4375 C 205.3352 192.35189 215.23987 192.36315 218.375 191.34375 C 222.01807 190.27408 224.44079 190.57182 227.375 187.875 C 229.01381 186.30264 229.77447 184.10196 231 182.25 C 232.35857 180.80391 234.33666 179.44181 234.25 177.21875 C 234.45355 174.93246 234.308 169.49929 235.8125 167.59375 C 248.72682 166.20357 263.8823 166.76516 276.84375 166.5 C 292.11126 166.4898 314.20569 165.30237 329.46875 165.75 C 331.13074 165.8754 332.77509 167.43409 332.3125 169.1875 C 332.2431 173.95838 331.32896 180.90673 331.90625 185.71875 C 332.52651 201.47317 334.42646 217.05813 335.3125 234.625 C 335.84376 245.15779 335.2395 257.95743 335.90625 267.5625 C 338.73534 271.47508 341.282 268.0624 341.125 258.1875 C 340.12323 233.71796 338.67043 209.27344 337.5 184.8125 C 337.4425 179.85158 337.12708 174.81116 338.21875 169.9375 C 338.81824 167.93597 340.46871 166.43691 341.21875 164.53125 C 341.48388 163.35556 341.46013 161.75326 342.75 161.1875 C 344.1203 161.07051 344.55787 162.73434 344.59375 163.8125 C 344.67215 165.15007 345.1569 167.08133 346.8125 167.09375 C 349.11724 167.03805 353.03408 165.13792 354.40625 163.65625 C 355.75151 162.39562 354.84543 161.81121 356.59375 161.90625 C 377.37777 161.33024 398.17959 161.44746 418.96875 161.28125 C 428.68561 161.15468 438.40789 160.82277 448.125 161.03125 C 449.18349 161.12215 450.46386 161.10975 450.96875 162.25 C 451.57502 163.39336 452.13194 165.13602 453.75 165 C 456.46286 164.9606 458.24882 162.27228 458.59375 159.8125 C 459.4455 155.29795 457.47659 150.92362 456.03125 146.75 C 450.81263 132.50588 443.70921 119.10322 437.1875 105.4375 C 436.60499 104.37613 436.31308 103.07501 435.5625 102.15625 C 433.96391 101.37897 432.79669 103.19061 431.375 103.53125 C 429.23117 104.04875 427.10119 103.13258 424.9375 103.21875 C 415.33307 102.68651 405.70927 102.75152 396.09375 102.65625 C 384.43867 102.71915 372.76207 102.67265 361.125 103.40625 C 359.00594 103.52894 356.91993 103.98146 354.8125 104.15625 C 353.01201 104.13965 351.52362 103.04868 350.1875 101.96875 C 348.19099 100.7346 345.75911 100.37135 343.46875 100.8125 C 340.62013 101.00675 337.78168 101.49369 335.0625 102.375 C 334.02999 104.1587 331.61608 104.18322 329.875 103.59375 C 313.60689 102.91646 297.32735 103.8721 281.0625 104.1875 C 267.11531 104.54261 253.16942 104.95878 239.21875 104.875 C 237.26775 105.17141 236.29356 102.00088 238.0625 101.15625 C 243.59818 100.39018 249.21063 100.6765 254.78125 100.25 C 282.20541 99.177436 309.65413 99.22204 337.09375 99.40625 C 348.28359 99.51466 359.46764 99.44975 370.65625 99.25 C 384.8024 99.02505 398.98129 98.72402 413.125 99.25 C 426.20647 101.44229 441.50061 96.567032 450.40625 100.4375 C 452.08916 101.37384 453.94351 102.34781 454.78125 104.1875 C 457.58259 108.60418 459.70805 113.40311 462.0625 118.0625 C 464.29991 122.72604 465.90678 127.66283 468.09375 132.34375 C 470.52441 136.14602 472.85611 140.0398 474.71875 144.15625 C 478.70634 151.87614 482.71191 159.59648 485.90625 167.6875 C 487.09252 169.22048 485.59913 171.92848 483.625 171.4375 C 482.48467 171.4385 481.11221 171.96076 480.78125 173.15625 C 481.2519 174.45069 482.85709 173.97377 483.90625 174.0625 C 493.96876 172.29157 502.21539 172.72671 510.5625 172.78125 C 521.9838 172.85585 533.45161 172.88195 548.71875 171.65625 C 548.72915 171.65617 548.7396 171.65617 548.75 171.65625 C 561.20811 170.69915 573.36981 172.59502 585.3125 173.34375 C 588.32683 173.52136 591.35629 173.40985 593.71875 172.5 C 593.79535 172.4599 593.86229 172.4176 593.9375 172.375 C 593.9744 175.42909 594.16061 178.47965 594.28125 181.53125 C 592.73394 182.30976 593.04785 184.31312 593.4375 185.6875 C 599.24871 201.13583 589.404 216.94044 590.40625 229.15625 C 589.68742 233.30981 587.00111 236.91838 586.78125 241.1875 C 585.86049 243.50078 583.90517 245.28152 583.25 247.71875 C 581.80058 250.13396 578.69917 250.43423 576.15625 250.65625 C 566.18363 251.4471 556.1356 250.30736 546.1875 251.5 C 542.74182 252.17204 540.13577 255.11007 539.125 258.375 C 537.97161 261.46601 537.40243 265.14153 534.53125 267.1875 C 531.66989 269.06369 528.08271 268.80349 524.8125 268.875 C 523.10106 268.7816 521.31687 268.8585 519.65625 268.53125 C 517.45332 267.27566 517.67048 264.24066 515.875 262.625 C 512.9217 258.48221 511.64128 253.25664 507.90625 249.65625 C 502.73669 243.85456 496.75347 238.68789 490 234.8125 C 487.74644 233.51082 485.61924 232.02952 483.4375 230.625 C 480.42754 229.19927 477.00816 229.38891 473.8125 228.6875 C 469.33831 228.15748 464.9079 227.2508 460.40625 226.96875 C 459.35321 227.09197 459.13411 228.95603 460.3125 229.03125 C 462.43788 229.37422 464.62392 229.31397 466.71875 229.875 C 475.77735 231.58464 484.05419 236.01041 491.625 241.125 C 496.01718 243.92547 500.12852 247.318 503 251.71875 C 506.66781 256.64141 510.14002 261.73622 513.03125 267.15625 C 513.7533 269.20232 510.69056 271.29465 509.1875 269.5625 C 507.07127 267.35579 507.42588 263.83826 505.3125 261.625 C 502.90644 258.3025 500.3778 255.08354 497.90625 251.8125 C 492.21217 245.23004 484.34846 240.98651 476.3125 237.9375 C 465.36094 233.84964 453.45762 233.09014 441.875 233.75 C 434.79423 234.06269 427.7047 235.25524 421.09375 237.875 C 414.57899 240.31363 408.61607 243.96931 402.5625 247.34375 C 400.03099 248.80704 397.23183 250.13411 395.5625 252.65625 C 393.05733 255.95146 391.38914 259.77753 389.5 263.4375 C 387.577 267.52067 386.48792 271.9095 385.59375 276.3125 C 385.27395 277.38843 384.17627 278.74446 382.9375 278.09375 C 381.84627 277.52088 381.96838 276.1384 382.3125 275.15625 C 383.00003 270.88286 384.75615 266.91489 386.21875 262.875 C 387.12881 259.65923 387.84631 256.27821 389.8125 253.5 C 392.49307 249.37307 395.85437 245.73131 399.34375 242.28125 C 400.15673 241.85806 401.09415 240.65475 400.03125 239.96875 C 398.55233 239.20361 397.00942 240.34384 395.6875 240.9375 C 391.13452 243.49645 388.24801 248.02808 385.3125 252.1875 C 383.01806 255.71304 381.46435 259.64101 379.90625 263.53125 C 378.82075 266.67106 377.52458 269.79157 377.1875 273.125 C 376.91661 274.33915 376.90759 275.67409 376.34375 276.78125 C 374.60082 278.67902 371.79652 278.32336 369.46875 278.53125 C 355.62451 278.93077 341.76963 278.04501 327.9375 277.59375 C 316.39905 277.26514 304.85421 277.31625 293.3125 277.15625 C 259.88468 276.8023 226.45029 276.87859 193.03125 275.9375 C 188.13216 275.68605 183.21702 275.78935 178.34375 275.1875 C 176.92004 274.92232 175.13022 274.7114 174.40625 273.28125 C 172.97371 270.74402 173.06946 267.62323 171.53125 265.125 C 167.9208 256.61986 162.221 249.03065 155.09375 243.15625 C 148.03789 236.68171 139.91568 231.04302 130.65625 228.28125 C 122.86062 225.86335 114.72712 224.54726 106.5625 224.5 C 105.46621 225.23003 106.90151 226.44464 107.78125 226.5 C 115.65286 229.05035 123.85458 230.6152 131.40625 234.09375 C 141.35554 238.47321 150.51878 244.85831 157.65625 253.09375 C 162.13966 258.36715 166.11419 264.294 167.96875 271.03125 C 168.31013 272.39633 168.57887 273.78021 168.65625 275.1875 C 167.91063 276.72951 165.46834 275.83731 165.28125 274.34375 C 163.80926 269.35437 161.38265 264.69785 158.71875 260.25 C 154.94889 254.22232 150.12668 248.84717 144.34375 244.6875 C 134.87797 237.48411 123.60337 232.69951 111.90625 230.625 C 103.07815 229.18187 94.07634 229.69343 85.21875 230.5625 C 80.35807 231.15438 75.57798 232.49334 71.25 234.8125 C 67.25848 236.69183 63.73296 239.42136 60.1875 242 C 57.05569 243.8525 53.29993 245.30904 51.5625 248.75 C 49.22199 252.76823 48.18018 257.34414 46.53125 261.65625 C 46.09102 262.65272 45.97687 263.90188 45.34375 264.75 C 44.20631 265.37025 43.18567 263.85958 43.46875 262.8125 C 43.75725 260.34698 44.61382 257.97779 45.375 255.625 C 46.94335 251.34319 48.98804 247.2236 51.375 243.34375 C 52.27901 242.14718 53.49189 241.2572 54.53125 240.1875 C 55.06696 238.83367 52.94357 237.90391 52.09375 238.9375 C 49.00686 241.17951 46.09893 243.77969 43.96875 246.96875 C 42.91044 248.6802 41.89721 250.45195 40.53125 251.9375 C 39.4857 253.66832 39.50097 255.82907 38.4375 257.5625 C 37.72631 259.09841 36.90878 260.615 35.65625 261.78125 C 32.93505 262.07133 30.47661 260.25309 27.75 260.5625 C 25.719885 260.36007 24.284347 258.40266 24.125 256.46875 C 20.521389 246.23252 15.17932 236.72389 11.46875 226.53125 C 8.8356151 220.05598 6.207496 213.53758 4.5 206.75 C 3.671098 199.51763 4.5882 192.23127 5.5625 185.0625 C 6.127382 182.28705 6.619946 179.20101 8.8125 177.1875 C 11.797726 175.53552 15.323039 175.88087 18.5625 175.1875 C 25.704058 174.51504 32.91738 174.23008 39.96875 172.84375 C 40.79234 172.51175 42.3222 172.80165 42.40625 171.59375 C 42.28188 170.19752 40.69637 169.91895 39.59375 169.65625 C 33.62335 168.48302 27.53826 168.16115 21.46875 167.96875 C 19.328873 167.42192 18.813995 164.78583 19.28125 162.90625 C 20.094594 155.33822 21.646382 147.80596 24.46875 140.71875 C 24.52281 140.65335 24.570154 140.60572 24.625 140.5625 C 24.226193 139.0778 26.465862 133.78614 26.71875 132.96875 C 27.99128 129.35127 29.3634 125.64066 31.875 122.6875 C 32.178404 122.37165 33.801416 120.32107 34.625 119.75 C 34.426507 118.53037 35.235593 117.14874 36.21875 116.4375 C 38.01101 114.74194 40.45198 114.04367 42.65625 113.0625 C 46.00068 110.14929 46.60237 105.20445 50.15625 102.46875 C 51.29486 101.33138 52.98064 100.91287 54.09375 99.78125 C 55.08703 97.98522 53.52017 96.22865 53.15625 94.5 C 52.03361 90.08597 52.73777 85.52026 52.75 81.03125 C 52.97604 77.32755 53.52858 73.6383 54.0625 69.96875 C 55.56614 68.01053 58.30388 68.23408 60.5 68.34375 C 67.41405 68.10495 74.35798 68.80882 81.25 68 C 105.90306 64.449617 130.57249 66.508134 149.84375 66.9375 C 164.99008 66.756538 183.17535 65.333009 198.34375 65.03125 z M 186.53125 163.03125 C 187.52478 161.72487 188.24193 160.3222 188.4375 159.25 C 188.4305 158.03851 188.71078 156.86142 189.15625 155.75 C 188.68573 149.45887 188.24577 143.15231 186.59375 136.9375 C 185.81314 133.06913 184.91122 129.20856 184.5 125.3125 C 183.96359 121.48804 184.04526 117.63941 184.15625 113.8125 C 184.46947 110.33328 184.88717 106.85504 185.53125 103.40625 C 186.33641 99.131087 187.61343 94.92705 188.4375 90.65625 C 188.5005 90.386522 188.66101 89.440691 187.96875 89.625 C 185.27976 92.557351 183.79627 95.964759 182.59375 99.375 C 180.48274 104.81546 179.43661 110.46117 178.96875 116.125 C 178.81437 119.46261 178.81182 122.81415 178.96875 126.15625 C 179.56597 134.21128 180.79883 142.21826 181.90625 150.25 C 182.53379 154.55307 184.1461 158.75601 186.25 162.8125 C 186.3251 162.9026 186.43627 162.96299 186.53125 163.03125 z M 482.59375 66 C 482.59175 65.77011 488.66428 67.624034 487.34375 72.4375 C 487.79189 79.292779 490.81389 92.785153 488.71875 101.15625 C 487.45713 99.654111 481.00831 93.157187 480.03125 90.25 C 479.007 86.786388 480.4737 87.319983 480.4375 83 C 480.55062 77.293036 481.74359 71.281591 482.59375 66 z M 45.0625 74.65625 L 45.25 75.5625 C 46.15956 80.54437 45.36517 85.60743 45.3125 90.625 C 45.2412 92.86976 45.00835 95.15299 44.15625 97.25 C 42.89027 98.28654 41.16743 96.71677 41.1875 95.34375 C 40.62287 90.98435 38.70658 86.74022 39.25 82.28125 C 39.79914 79.00253 42.03542 76.04709 45.0625 74.65625 z M 523.5625 75.84375 L 523.46875 76.03125 C 522.97035 77.144565 524.02804 78.397378 525.15625 78.4375 C 529.76137 79.187649 534.33557 80.104026 538.9375 80.875 C 546.75292 82.259963 554.61475 83.466978 562.5 84.375 L 573.59375 85.78125 C 574.5436 86.204199 574.42979 84.372981 574.4375 83.78125 C 574.4722 82.463974 573.117 82.495779 572.1875 82.4375 C 566.33592 81.663327 560.43631 81.065661 554.59375 80.21875 C 549.44357 79.526786 544.34117 78.702451 539.25 77.65625 C 535.81572 76.94641 532.33191 76.35986 528.84375 76 C 527.09047 75.855579 525.32128 75.829784 523.5625 75.84375 z M 469.53125 83.375 C 470.59663 87.060752 474.54538 87.672756 474.90625 91.53125 C 475.33433 97.00751 473.1566 105.68218 472.09375 111.0625 C 471.32462 112.00667 469.04574 109.00999 468.96875 108.0625 C 467.49564 104.13088 465.63894 101.7208 466.125 97.4375 C 466.29817 94.76989 467.98573 85.61424 469.53125 83.375 z M 477.71875 93.3125 C 477.65725 96.505139 488.07647 102.42518 488.5625 105.65625 C 489.1696 112.18628 486.82006 129.81934 486.5 136.375 C 484.93169 136.84625 482.99004 130.50731 482.28125 129.40625 C 479.42112 126.20534 474.34256 117.41706 475 113.21875 C 476.56757 109.43093 477.94715 95.45252 477.71875 93.3125 z M 233.96875 99.78125 C 235.37377 100.5261 235.35404 102.40523 235.5625 103.78125 C 235.82241 105.43374 235.3226 107.08948 234.3125 108.40625 C 232.81135 110.63875 231.30628 112.89126 230.25 115.375 C 227.93072 120.08978 226.79555 125.30475 224.375 129.96875 C 222.13726 133.4077 219.93342 136.90291 218.46875 140.75 C 216.16312 145.57197 213.74512 150.42742 210.3125 154.5625 C 209.16395 154.6894 209.24024 153.16989 209.6875 152.5 C 211.9543 147.82745 214.85396 143.48375 217 138.75 C 219.02254 133.49123 221.25794 128.30363 223.6875 123.21875 C 226.93256 116.2654 230.22218 109.33223 232.625 102.03125 C 233.1582 101.36709 232.92374 99.7844 233.96875 99.78125 z M 218.4375 102.53125 C 218.4741 102.50435 218.5186 102.50835 218.5625 102.53125 C 218.14841 104.27095 227.87609 100.72444 226.6875 104.84375 C 224.64035 111.93858 213.09406 135.85968 211.5 138.53125 C 211.4789 138.54435 211.4598 138.5596 211.4375 138.5625 C 208.30725 146.64666 206.04931 157.48499 201.875 165.0625 C 201.37151 166.42984 192.45613 162.75869 192.65625 162 C 192.67235 160.26954 194.13883 159.13248 194.8125 157.65625 C 198.64717 150.84288 199.86712 142.76094 204.625 136.4375 C 204.51227 135.04491 205.25308 135.56114 205.75 135.5 C 205.797 135.494 207.41666 131.71286 208.5625 129.09375 C 208.5535 128.9013 208.56455 128.74971 208.59375 128.6875 C 210.33221 124.73385 215.2906 106.30784 218.15625 102.9375 C 218.23875 102.873 218.3276 102.61197 218.4375 102.53125 z M 341.0625 104.4375 L 341.25 104.4375 C 343.28767 105.30583 342.86419 107.45805 342.9375 109.03125 C 343.51004 122.46116 344.13367 135.8718 343.9375 149.3125 C 343.9269 151.67872 343.88245 154.07937 343.84375 156.4375 C 343.68071 157.38979 341.8174 157.4226 341.84375 156.40625 C 341.02564 142.43753 340.95381 128.43528 340.0625 114.46875 C 339.9962 111.86447 339.64488 109.25755 339.78125 106.65625 C 339.97926 105.88389 340.00147 104.72781 341.0625 104.4375 z M 432.8125 106.125 C 434.10161 107.39136 454.09384 152.61502 452.90625 154.125 C 452.73129 154.53547 451.53412 156.89376 449.78125 153.03125 C 444.63539 141.69222 430.23139 107.67092 431.65625 106.59375 L 432.8125 106.125 z M 347.1875 106.6875 C 347.2529 106.96657 347.29036 107.26399 347.34375 107.5625 C 347.51686 107.70287 347.55921 107.92908 347.5 108.15625 C 347.60935 108.45962 347.77089 108.74049 348.0625 108.9375 C 348.8528 109.44878 350.03697 108.76038 350.65625 109.625 C 350.60305 110.65651 350.64725 111.69468 350.78125 112.71875 C 351.05578 118.87592 351.32164 125.02892 351.5625 131.1875 C 351.7288 134.23614 351.80731 137.29087 351.84375 140.34375 C 351.92125 143.92969 352.01481 147.50735 351.90625 151.09375 C 351.84045 152.35608 351.92525 153.64371 351.90625 154.90625 C 351.82775 156.63595 351.87755 158.36605 351.75 160.09375 C 351.91553 160.76913 351.4201 161.1582 351 161.59375 C 350.55729 162.37825 349.43611 162.21707 348.9375 161.59375 C 348.4919 160.77181 348.9481 159.78972 348.9375 158.90625 C 348.984 157.54994 348.85905 156.20066 348.84375 154.84375 C 348.66725 150.19359 348.45243 145.52271 348.21875 140.875 C 348.00112 140.881 347.84044 140.72663 348 140.28125 C 348.0527 140.19435 348.11933 140.08825 348.1875 140 C 348.2023 140.29224 348.20435 140.58276 348.21875 140.875 C 348.66291 140.8619 349.3971 140.16869 348.5 139.84375 C 348.36261 139.82215 348.26393 139.87745 348.1875 139.96875 C 348.05443 137.33654 347.91353 134.72593 347.78125 132.09375 C 347.42955 124.90761 347.03774 117.71894 346.71875 110.53125 C 346.68125 110.01581 346.6571 109.48809 346.6875 108.96875 C 346.49104 109.00895 346.27509 108.99495 346.09375 108.8125 C 345.75286 108.26575 346.36234 107.48791 346.9375 107.4375 C 346.9986 107.23433 347.06894 107.04006 347.15625 106.84375 L 347.1875 106.6875 z M 346.9375 107.4375 C 346.78921 107.93069 346.71752 108.45341 346.6875 108.96875 C 347.05901 108.89275 347.40317 108.52774 347.5 108.15625 C 347.4316 107.96664 347.38043 107.76757 347.34375 107.5625 C 347.25715 107.4923 347.13183 107.4579 346.96875 107.4375 C 346.95855 107.43793 346.9476 107.4366 346.9375 107.4375 z M 420.46875 107.9375 C 423.96433 107.9025 427.32338 110.2217 428.53125 113.5 C 432.60477 121.52143 435.61562 130.01353 439.28125 138.21875 C 441.1873 143.2267 443.17608 148.23175 444.59375 153.40625 C 443.49834 154.95148 441.40834 154.34722 439.8125 154.3125 C 422.58765 155.27409 405.28624 154.53968 388.09375 156.15625 C 379.17269 156.85365 370.22886 157.3396 361.28125 156.9375 C 360.04209 156.911 358.42054 157.1243 357.625 155.96875 C 356.70714 153.65403 357.581 151.14372 357.15625 148.75 C 357.00808 136.24134 356.73015 123.709 357.59375 111.21875 C 358.19221 109.14075 360.65909 108.68945 362.53125 108.65625 C 381.83294 107.88649 401.15735 108.14218 420.46875 107.9375 z M 333.5 109.46875 L 333.65625 109.46875 C 335.38347 110.30623 335.03161 112.38895 335.09375 113.90625 C 335.57906 126.85903 336.10378 139.81806 335.9375 152.78125 C 335.9285 155.0634 335.87655 157.35065 335.84375 159.625 C 335.70555 160.54346 334.13391 160.60545 334.15625 159.625 C 333.46278 146.15255 333.41176 132.62657 332.65625 119.15625 C 332.60005 116.64449 332.29066 114.13388 332.40625 111.625 C 332.57409 110.88009 332.60062 109.74874 333.5 109.46875 z M 243.8125 110.40625 C 244.23411 110.37695 244.64731 110.37995 245.0625 110.40625 C 272.5208 110.47515 299.97955 110.37795 327.4375 110.5625 C 329.16282 111.2185 329.09926 113.37067 329.0625 114.90625 C 329.76759 129.69936 329.54416 144.51538 329.09375 159.3125 C 329.38326 160.49482 328.66481 162.11097 327.28125 162.03125 C 325.10856 162.27757 322.92782 161.82561 320.75 162.0625 C 299.8555 162.49557 278.93033 162.77512 258.03125 162.59375 C 251.51636 162.53695 242.85065 162.59075 236.34375 162.3125 C 234.83861 162.04848 234.02051 160.60773 233.78125 159.21875 C 233.1704 156.87679 232.27414 154.39123 230.15625 153 C 227.9619 151.30337 227.32723 150.85297 224.71875 150.1875 C 222.79646 149.26208 222.82969 146.62426 223.625 144.9375 C 226.68131 137.30304 230.34543 129.94739 233.6875 122.4375 C 235.52523 118.63461 237.50934 114.83587 240.25 111.59375 C 241.28115 110.85319 242.54767 110.49402 243.8125 110.40625 z M 349.4375 114.9375 C 348.16801 115.04438 347.81732 117.43593 349.125 117.8125 C 350.30506 117.5179 350.76112 115.65781 349.71875 114.9375 C 349.62635 114.9229 349.5221 114.9305 349.4375 114.9375 z M 42.1875 115.6875 C 42.030056 115.6955 41.894771 115.69155 41.78125 115.71875 C 41.254934 117.62407 42.084083 118.322 40.0625 120.28125 C 35.613296 126.01954 39.534468 122.99101 35.375 129.28125 C 34.687267 131.42918 33.766136 133.83704 32.46875 135.84375 C 44.572931 142.73679 51.936528 126.01649 52.40625 123.125 C 53.408179 120.29632 51.301919 117.03806 48.40625 116.5 C 45.46313 116.01802 43.289611 115.63438 42.1875 115.6875 z M 225.65625 153.65625 C 226.05198 153.64435 226.38515 153.69525 226.59375 153.8125 C 231.01823 156.29909 229.45841 172.23115 229.25 173.0625 C 228.39816 175.6534 226.41747 182.94292 224.96875 185.28125 C 223.269 184.38905 223.51398 182.18708 223.375 180.5625 C 223.17537 178.04017 221.03492 157.09082 221.9375 154.65625 C 222.68505 154.21784 224.46907 153.69186 225.65625 153.65625 z M 216.46875 157.0625 C 218.48268 159.52748 217.73917 162.86802 218.15625 165.78125 C 218.43459 169.86673 219.42286 182.39608 218 186.34375 C 217.04149 188.00102 207.64994 187.97537 206.0625 188.9375 C 204.43049 188.26475 204.6082 178.97135 204.8125 177.53125 C 203.15776 165.84016 212.95801 162.66962 215.6875 157.6875 C 215.91652 157.46181 216.09652 157.04435 216.46875 157.0625 z M 145.59375 168.21875 C 145.08495 168.23135 144.56812 168.26425 144.0625 168.28125 C 137.7971 168.45654 131.52063 168.49615 125.28125 169.15625 C 122.40634 169.36306 119.54059 169.73091 116.65625 169.46875 C 111.28826 169.35321 105.93469 168.79504 100.5625 168.96875 C 88.372743 169.11267 76.1561 169.45098 64 170.40625 C 62.13456 170.61772 60.18317 170.59895 58.40625 171.1875 C 57.47921 171.96461 58.48815 173.31209 59.53125 173.15625 C 63.53666 173.60055 67.5563 174.09195 71.59375 174.09375 C 79.58183 174.11885 87.54978 173.45227 95.53125 173.21875 L 150.96875 170.75 C 151.57434 170.04171 151.22849 168.49302 150.125 168.625 C 148.64301 168.22527 147.12012 168.18097 145.59375 168.21875 z M 322.71875 194.125 C 322.53563 194.12432 322.33846 194.1375 322.15625 194.15625 C 321.2661 194.25514 320.37446 194.52997 319.6875 195.125 C 318.91002 195.96355 318.13372 196.90951 317.90625 198.0625 C 317.82202 198.88606 317.90137 199.7323 318.21875 200.5 C 318.52324 201.27003 318.99002 202.02209 319.625 202.5625 C 320.38542 203.32169 321.47401 203.46123 322.5 203.5 C 322.86931 203.50067 323.26103 203.67737 323.53125 203.375 C 324.10068 203.10833 324.95678 203.79494 325.3125 203.0625 C 325.75334 202.25487 326.37967 201.52733 326.625 200.625 C 326.84508 199.67927 326.9583 198.66973 326.71875 197.71875 C 326.57927 196.88716 326.12905 196.15048 325.5 195.59375 C 324.81496 195.03661 324.12825 194.41028 323.25 194.1875 C 323.07078 194.14015 322.90187 194.12568 322.71875 194.125 z M 324.03125 197.4375 L 324.25 197.75 C 324.53212 198.64923 324.45975 199.75408 323.84375 200.5 C 323.21624 201.21103 322.02031 201.4807 321.25 200.84375 C 320.47 200.22836 320.10793 199.02583 320.53125 198.125 C 320.76692 198.11277 320.85988 198.60552 321.125 198.6875 C 321.86109 199.1501 322.90236 198.90578 323.3125 198.125 C 323.51387 197.85144 323.76303 197.64276 324.03125 197.4375 z M 295.90625 198.1875 C 294.73875 198.17609 293.61836 198.4657 292.84375 199.28125 C 291.11398 201.97662 293.11681 205.95915 296 206.4375 C 300.4152 207.16374 304.4631 207.56226 309.5625 208.5 C 326.41784 208.08335 318.10805 198.82338 309.03125 199.9375 C 305.30699 200.74368 301.50522 199.83607 298 198.46875 C 297.32462 198.31062 296.60675 198.19435 295.90625 198.1875 z M 298.15625 201.375 C 301.02021 201.93418 304.20065 203.01146 306.5 202.78125 C 308.65283 202.33093 314.07427 201.58781 314.28125 204.375 C 314.26445 205.26066 309.90262 205.81562 306.875 205.5625 C 303.45798 205.23303 301.61478 204.53642 298.65625 204.28125 C 296.72427 204.1132 295.40341 202.697 296.5625 201.75 C 296.98126 201.51114 297.54825 201.4061 298.15625 201.375 z M 600.15625 202.375 C 602.40479 203.93864 602.5943 206.91363 602.71875 209.40625 C 603.23949 212.04046 601.43022 214.30442 600.6875 216.6875 C 599.11301 222.36757 599.59601 228.31262 599.03125 234.125 C 598.74861 236.63071 598.46209 239.26093 597.40625 241.5625 C 596.35244 242.95657 593.98748 242.56684 593.28125 241 C 591.87861 238.72205 592.90963 235.96971 593.75 233.6875 C 594.56917 231.75103 595.054 229.67221 595.28125 227.59375 C 596.02099 225.15858 598.09381 223.10424 597.84375 220.40625 C 598.06473 215.94574 597.92635 211.45884 598.625 207.03125 C 598.7527 205.59758 599.05387 204.1887 599.34375 202.78125 C 599.58431 202.60421 599.83545 202.35877 600.15625 202.375 z M 322.96875 204.21875 C 322.96605 204.20358 322.95985 204.21041 322.9375 204.25 C 322.83037 204.33605 322.97765 204.69122 322.96875 204.28125 C 322.97184 204.26391 322.97145 204.23392 322.96875 204.21875 z M 607.59375 225.71875 C 607.74828 225.71826 607.90931 225.7359 608.0625 225.75 C 610.82741 226.1374 614.00442 226.30871 616 228.53125 C 617.33529 230.6669 617.3255 233.50821 616.28125 235.75 C 615.1675 237.18826 613.05428 238.09652 611.28125 237.46875 C 609.58653 236.52447 609.65657 234.37147 608.96875 232.78125 C 608.61878 231.48845 607.65021 230.53698 606.6875 229.6875 C 605.77841 228.77757 605.00307 226.94526 606.25 226 C 606.67351 225.80567 607.13016 225.72023 607.59375 225.71875 z M 94 237.09375 C 99.78007 237.12295 105.56332 237.59365 111.28125 238.4375 C 116.63729 239.30668 121.90356 240.84292 126.75 243.3125 C 134.92976 247.15168 142.7385 252.22586 148.5 259.28125 C 152.64388 264.40519 156.0614 270.28155 157.65625 276.71875 C 158.06008 278.58928 157.66685 280.51102 156.71875 282.15625 C 155.544 284.2265 154.31633 286.27776 153.25 288.40625 C 151.91647 290.83842 149.77376 292.64268 147.6875 294.40625 C 141.30039 300.08005 134.05322 304.74845 126.34375 308.40625 C 121.59549 310.39258 116.26699 310.54408 111.25 309.6875 C 101.21514 308.66625 91.29742 306.15347 82.09375 302 C 77.44341 299.183 74.64158 294.34924 71.3125 290.21875 C 66.61016 283.77324 62.086 277.20437 57.0625 271 C 55.08394 270.08919 55.0952 267.21346 56.46875 265.78125 C 59.30571 261.81817 58.5308 256.42986 61.3125 252.4375 C 65.3243 245.95021 71.70574 240.99547 78.90625 238.53125 C 83.82073 237.1918 88.93671 237.04807 94 237.09375 z M 604.40625 240.5 C 604.85466 240.4168 605.34149 240.81856 605.25 241.53125 C 605.38591 243.19082 604.90071 244.86737 605.375 246.5 C 605.56156 249.58853 602.3289 253.65177 600.03125 257.46875 C 599.75918 255.24643 599.96285 252.92435 600.28125 250.75 C 600.79683 247.3804 601.84795 244.05325 603.78125 241.21875 C 603.87275 240.76455 604.13721 240.54989 604.40625 240.5 z M 447.0625 241.15625 C 447.96532 241.14525 448.87939 241.14725 449.78125 241.15625 C 460.93408 241.23115 472.24813 243.77202 481.84375 249.59375 C 486.72641 252.54029 491.15482 256.35262 494.375 261.09375 C 497.16388 265.11903 499.44992 269.45118 501.71875 273.78125 C 503.26651 276.45824 503.71453 279.87732 502.53125 284.375 C 487.14143 309.11667 489.95727 303.41895 473.03125 308.71875 C 468.23661 310.92153 451.90465 309.06128 446.8125 309.65625 C 439.11448 310.08086 431.35738 310.30515 423.6875 309.375 C 419.79165 308.40457 416.53158 305.33411 413.125 303.25 C 410.14184 301.34437 414.0544 302.02655 411.5 299.59375 C 407.52938 296.3087 403.34923 293.0873 400.5 288.71875 C 398.54275 286.28166 395.71192 284.19355 395.15625 280.9375 C 394.68341 277.03449 395.92896 273.19567 397.125 269.53125 C 399.57864 263.12683 403.36715 257.14647 408.40625 252.46875 C 413.94274 247.50764 421.09547 244.88728 428.25 243.28125 C 434.40871 241.84126 440.74275 241.23325 447.0625 241.15625 z M 99.125 246.71875 C 91.91084 247.08843 84.65264 249.45399 79.0625 254.125 C 76.17864 256.59346 74.09591 259.94899 73.0625 263.59375 C 70.78047 270.56503 71.38302 278.63017 75.5625 284.78125 C 78.20131 288.99961 81.20082 293.06264 84.90625 296.40625 C 90.25336 300.25391 96.857043 301.64259 103.21875 302.78125 C 110.93027 303.75423 119.04647 303.17124 126.15625 299.84375 C 135.48367 295.548 141.37051 284.77086 139.75 274.59375 C 138.53575 267.11583 134.55406 260.26451 129.21875 254.96875 C 124.47927 250.9054 118.21696 249.3605 112.21875 248.25 C 107.89967 247.43604 103.54223 246.56601 99.125 246.71875 z M 443.6875 247.34375 C 443.05397 247.34975 442.41367 247.36655 441.78125 247.40625 C 433.77366 247.8158 425.57672 250.07776 419.34375 255.3125 C 411.88686 261.44338 408.2612 272.00234 410.78125 281.375 C 411.65368 284.86921 413.57102 288.04024 416.09375 290.59375 C 418.17637 292.95866 420.07886 295.52558 422.375 297.6875 C 426.9851 301.44474 432.96427 302.87181 438.75 303.5625 C 445.78347 304.26107 453.11861 304.50586 459.90625 302.21875 C 468.24269 299.06803 475.19328 292.20255 478.0625 283.71875 C 480.96508 273.094 476.89146 260.90684 468.09375 254.25 C 462.59133 250.3998 455.95818 248.55941 449.375 247.65625 C 447.48645 247.45526 445.58808 247.3259 443.6875 247.34375 z M 102.03125 251.53125 C 108.40913 251.63171 114.90498 252.93128 120.4375 256.21875 C 120.21381 257.7034 118.27333 257.6943 117.1875 257.21875 C 114.6354 256.39589 111.78597 255.28528 109.15625 256.4375 C 107.13906 257.79249 105.45171 259.82353 104.90625 262.21875 C 104.77191 264.22702 106.471 265.53246 107.5625 266.96875 C 107.98627 267.65479 108.69024 268.78713 108.03125 269.46875 C 106.4745 270.91616 104.18941 270.13058 102.4375 269.53125 C 100.90285 269.22906 99.415673 271.59572 100.9375 272.5625 C 104.79213 275.37416 109.77995 275.20402 114.21875 276.375 C 117.70858 277.39392 121.11615 279.06157 124.84375 278.84375 C 126.73515 278.77475 128.93851 277.97009 129.5 275.96875 C 130.06146 274.11808 130.02128 272.12968 129.90625 270.21875 C 129.63432 268.11547 128.42592 266.30456 127.15625 264.6875 C 126.62579 263.29538 128.57448 261.93131 129.6875 262.96875 C 130.97203 264.16355 131.67132 265.85615 132.5625 267.34375 C 134.29502 270.9178 136.09765 274.76568 135.65625 278.84375 C 135.17122 282.89824 133.69893 286.87447 131.25 290.15625 C 129.10028 292.92223 126.18988 295.10918 122.84375 296.1875 C 117.66049 298.15335 112.0857 298.75226 106.59375 299.09375 C 102.37704 298.89198 98.38411 297.37244 94.375 296.1875 C 90.42443 294.69761 86.07863 293.18889 83.5 289.625 C 80.79364 285.98821 79.11488 281.74376 77.09375 277.71875 C 74.48099 270.3858 77.02665 261.57298 83.03125 256.65625 C 88.34852 252.41515 95.429623 251.4374 102.03125 251.53125 z M 442.40625 253.125 C 443.30033 253.0994 444.1992 253.0937 445.09375 253.125 C 446.6889 253.1621 448.75468 253.23702 449.53125 254.90625 C 446.76973 256.63334 443.43489 255.48355 440.40625 255.71875 C 435.06539 255.56102 429.84266 257.85096 426 261.5 C 421.52636 265.23043 418.05041 270.67325 418.09375 276.65625 C 418.06625 280.09957 419.25372 283.67271 421.84375 286.03125 C 423.19913 286.39908 423.92248 284.4664 423.28125 283.46875 C 422.41714 281.32274 420.98658 279.20887 421.375 276.78125 C 421.57348 275.36995 422.81952 274.47181 424.15625 274.25 C 425.77205 273.83113 427.41034 273.32021 428.65625 272.15625 C 430.05841 271.21402 431.49639 270.29711 433.09375 269.71875 C 434.02368 271.32852 432.4964 272.89109 431.9375 274.34375 C 431.44111 275.38646 431.19973 276.77453 432.1875 277.625 C 432.85721 278.40754 434.36534 278.3221 434.5625 277.1875 C 435.36599 275.58202 437.518 274.65039 439.125 275.625 C 441.02879 276.1359 443.31872 276.1775 444.65625 277.84375 C 445.48445 279.53219 445.01343 282.05883 446.9375 283.0625 C 449.01339 284.08479 451.44826 283.94368 453.5 285.03125 C 454.33955 286.35504 452.9287 287.81376 451.6875 288.1875 C 450.5459 288.64635 449.01905 288.37357 448.375 287.25 C 446.77626 287.11014 446.02996 288.95275 446 290.28125 C 445.47412 291.77226 446.69652 293.58017 448.34375 293.375 C 450.82751 293.52383 453.15883 292.35002 455.5625 292.03125 C 456.76858 292.61274 455.05031 293.54796 454.5 293.9375 C 453.86722 294.31335 453.0931 295.51328 454.0625 295.9375 C 455.35467 296.46092 456.60866 295.36988 457.78125 294.9375 C 460.60293 293.5651 463.58736 292.27027 465.65625 289.8125 C 468.28643 287.01742 469.10382 283.15499 470.46875 279.6875 C 471.60916 276.11487 472.18339 271.98676 470.375 268.53125 C 469.38288 266.66749 467.85998 265.1306 466.15625 263.90625 C 465.44176 262.72188 467.27928 261.4865 468.21875 262.40625 C 469.26391 263.20744 469.30767 264.7046 470.21875 265.625 C 472.85593 269.74103 474.42658 274.75043 473.59375 279.65625 C 473.25999 283.92562 471.43554 288.31987 467.8125 290.8125 C 462.82383 295.07231 457.01897 298.96051 450.3125 299.5625 C 444.34353 300.12071 438.20469 299.87987 432.4375 298.15625 C 429.22939 296.94496 426.38455 294.98678 423.34375 293.4375 C 420.77896 291.53155 419.52949 288.46466 417.75 285.90625 C 416.02997 283.06206 413.88464 279.9658 414.40625 276.46875 C 415.24971 271.70706 416.73172 266.9134 419.65625 263 C 423.24174 258.31595 428.75602 255.3911 434.46875 254.21875 C 437.06903 253.5304 439.72401 253.2019 442.40625 253.125 z M 590.0625 253.40625 C 591.29065 253.32585 590.61192 255.5636 589.59375 254.9375 C 589.09001 254.5016 589.28832 253.36452 590.0625 253.40625 z M 441.21875 258.03125 L 441.40625 258.03125 C 443.29822 258.26241 443.75754 260.76112 442.90625 262.1875 C 441.69962 264.90306 442.30587 267.95662 441.59375 270.78125 C 440.14658 271.46992 438.87487 270.01268 438.09375 268.96875 C 436.8715 267.41181 434.71417 268.04351 433.03125 267.9375 C 430.25661 267.35552 429.42644 263.26591 431.53125 261.46875 C 434.3095 259.28907 438.12001 259.52047 441.21875 258.03125 z M 89.40625 261.59375 C 89.28152 261.59875 89.16405 261.62895 89.03125 261.65625 C 86.95591 261.79915 84.94457 263.89065 85.625 266.03125 C 85.3498 267.97003 82.50811 267.67265 82.09375 269.53125 C 82.17235 271.25013 84.28598 271.6692 85.65625 271.40625 C 88.842 271.32025 91.81989 268.7151 92 265.46875 C 92.24155 263.81608 91.27719 261.51366 89.40625 261.59375 z M 29.40625 263.5 C 31.79244 263.8751 34.43077 263.79471 36.46875 265.28125 C 35.86915 266.82264 33.91957 266.48422 32.625 266.3125 C 31.26182 266.3454 29.52055 266.61091 28.65625 265.28125 C 28.19683 264.59558 28.36912 263.41702 29.40625 263.5 z M 457.78125 263.5 C 457.87905 263.4883 457.98949 263.492 458.09375 263.5 C 459.93808 264.1331 458.80424 267.42686 456.96875 266.84375 C 455.6277 266.00052 456.31446 263.67487 457.78125 263.5 z M 93.6875 271.96875 C 93.6208 271.95805 93.53591 271.9738 93.4375 272 C 90.98728 273.23167 90.46828 276.61577 91.5 278.9375 C 92.45277 279.52153 93.14656 278.03342 93.09375 277.21875 C 93.17635 275.88239 93.13005 274.47757 93.8125 273.28125 C 93.8946 272.93716 94.15433 272.04351 93.6875 271.96875 z M 81.34375 274.3125 L 81.3125 274.90625 C 81.2827 277.92942 82.91149 280.58681 83.84375 283.375 C 84.54537 284.42788 86.17061 283.3438 85.78125 282.25 C 85.61276 280.76211 84.27725 279.72008 84.03125 278.25 C 83.46735 276.75185 82.66133 275.27214 81.34375 274.3125 z M 461 274.8125 C 462.35629 274.756 461.81774 276.66073 460.75 276.6875 C 459.08027 277.21651 457.22984 278.40123 455.5 277.375 C 454.55486 276.63307 455.88971 275.62105 456.6875 275.53125 C 458.12441 275.29181 459.564 275.03975 461 274.8125 z M 424.84375 275.6875 L 424.65625 275.71875 C 423.7529 276.95288 425.00888 278.35134 425.71875 279.34375 C 427.03291 280.89505 427.78808 283.03834 429.625 284.0625 C 430.88386 284.28048 430.79749 282.49257 430.125 281.875 C 429.33911 280.58599 428.2651 279.51219 427.53125 278.1875 C 426.83599 277.21487 426.14533 275.86223 424.84375 275.6875 z M 427.6875 289.8125 C 427.56002 289.7961 427.44266 289.80555 427.3125 289.84375 C 426.10969 290.11971 426.5025 291.94004 427.46875 292.28125 C 428.52076 293.06766 429.58807 291.14953 428.65625 290.4375 C 428.43638 290.12885 428.06993 289.86174 427.6875 289.8125 z M 431.90625 292.9375 C 431.84295 292.9435 431.78394 292.9729 431.71875 293 C 431.08944 294.07674 432.64066 294.7679 433.46875 295.03125 C 434.44184 295.02825 433.994 293.40539 433.1875 293.40625 C 432.7573 293.32175 432.34956 292.89455 431.90625 292.9375 z "
     id="path3070" />
</svg>
