<?xml version="1.0"?>
<svg xmlns:rdf="http://www.w3.org/1999/02/22-rdf-syntax-ns#" xmlns="http://www.w3.org/2000/svg" xmlns:cc="http://creativecommons.org/ns#" xmlns:dc="http://purl.org/dc/elements/1.1/" xmlns:svg="http://www.w3.org/2000/svg" id="svg2" viewBox="0 0 184.65 501.32" version="1.0">
  <path id="path2313" d="m80.556 501.14c-17.041-2.14-26.505-5.64-39.63-14.66-17.216-11.82-30.183-30.25-36.784-52.29-8.0381-26.83-4.274-57.99 10.392-86 2.792-5.34 5.927-10.84 6.966-12.23 1.04-1.39 2.566-3.86 3.393-5.48 0.826-1.62 3.256-5.23 5.401-8.01 2.144-2.78 4.951-6.58 6.237-8.43 1.286-1.86 4.508-6.44 7.161-10.2 8.747-12.37 18.384-26.83 21.02-31.54l2.595-4.64 0.547-32.46c0.561-33.26 0.879-44.43 1.761-61.77 0.432-8.51 0.317-9.99-0.813-10.42-1.631-0.63-1.666-2.24-0.123-5.68 1.463-3.26 2.235-14.15 1.141-16.1-0.565-1.02-0.405-1.87 0.551-2.92 1.242-1.38 1.174-2.02-0.87-8.16-2.742-8.25-3.315-15.76-2.107-27.67 0.642-6.331 0.661-9.517 0.06-10.24-1.5-1.808-6.519-2.301-8.598-0.845-2.634 1.845-5.388 1.619-6.921-0.569-3.264-4.66-0.263-10.228 5.264-9.768 2.375 0.198 3.353 0.773 4.147 2.438 0.69 1.446 2.209 2.529 4.515 3.22 1.912 0.573 3.586 0.921 3.72 0.773s0.968-3.176 1.852-6.729l1.608-6.459-4.991-0.982c-3.559-0.7-5.25-0.722-5.897-0.075-1.355 1.355-6.164 1.092-7.676-0.419-1.87-1.871-1.655-3.564 0.878-6.884 1.84-2.413 2.568-2.797 4.426-2.336 1.224 0.303 2.984 1.219 3.911 2.035 1.685 1.482 9.552 4.74 10.077 4.172 0.617-0.666 2.992-8.467 2.992-9.827 0-2.134-6.261-4.704-8.517-3.496-4.339 2.322-10.033 0.138-10.033-3.848 0-2.571 3.69-6.316 6.223-6.316 1.233 0 2.779 0.88 3.78 2.153 0.932 1.184 3.459 3.046 5.617 4.139l3.924 1.986 1.19-2.847c0.654-1.566 1.189-3.442 1.189-4.169 0-2.062-7.292-4.834-11.047-4.199-2.55 0.431-3.431 0.182-4.885-1.379-2.083-2.235-2.266-4.726-0.53-7.205 2.787-3.978 7.906-2.9 9.804 2.065 0.426 1.113 2.257 2.579 4.33 3.465l3.593 1.538 1.511-4.309c0.832-2.369 1.638-5.826 1.792-7.681s0.586-4.321 0.961-5.48c0.374-1.16 0.588-2.298 0.474-2.53-0.113-0.232-2.428-0.293-5.143-0.137l-4.937 0.284 0.141-10.944 0.142-10.945 8.643-0.11694c5.748-0.077619 8.642 0.19118 8.642 0.80268 0 0.50566 0.403 0.67076 0.894 0.36676 1.418-0.87604 6.021 1.3516 9.011 4.3583 3.62 3.6417 3.77 6.7562 1 20.849-2.07 10.557-2.18 16.11-0.3 15.387 0.74-0.281 1.66-0.511 2.06-0.511 0.39 0 0.94-0.702 1.21-1.559s1.34-1.944 2.37-2.415c4.21-1.916 8.99 2.653 7.33 7.004-0.5 1.329-1.36 2.702-1.92 3.053-1.33 0.851-5.78 0.81-7.16-0.067-0.61-0.386-2.04-0.526-3.17-0.31-1.8 0.345-2.05 0.842-2.05 4.088 0 3.273 0.22 3.696 1.9 3.691 1.04-0.003 3.03-0.759 4.42-1.681 5.63-3.728 11.36-1.009 9.51 4.51-0.5 1.462-1.27 3.132-1.72 3.711-1.12 1.432-4.99 1.33-6.99-0.184-0.9-0.681-2.89-1.25-4.42-1.265l-2.78-0.026 0.57 5.27c0.32 2.898 0.7 5.41 0.85 5.582 0.72 0.829 4.55-0.963 6.94-3.243 3.31-3.168 5.11-3.209 8-0.185 2.53 2.635 2.69 3.387 1.33 6.356-1.41 3.113-4.02 3.954-7.96 2.57-3.57-1.255-7.96-0.82-7.97 0.791 0 0.543 0.65 3.535 1.44 6.65 1.38 5.376 1.56 5.638 3.59 5.171 1.18-0.27 3.4-1.206 4.93-2.079 3.67-2.09 6.45-2.007 8.56 0.258 2.4 2.576 2.15 5.448-0.74 8.338-2.89 2.891-4.97 3.103-7.65 0.778-1.93-1.67-5.47-2.275-6.17-1.054-0.2 0.348 0.38 3.478 1.3 6.961 3.26 12.42 2.85 17.65-1.78 22.41-2.73 2.8-6.39 9.67-7.15 13.42-0.989 4.85-1.448 53.21-0.63 65.91 0.8 12.4 4.2 30.45 6.2 32.95 0.46 0.58 2.03 1.06 3.48 1.06 4.28 0.01 7.73 2.69 9.26 7.19 0.75 2.19 1.16 4.3 0.92 4.69-1.5 2.42 5.94 28.3 10.4 36.18 1.18 2.09 2.66 4.74 3.3 5.9s3.14 5.02 5.56 8.57c6.52 9.57 11.89 18.17 18.53 29.65 7.58 13.11 6.45 10.96 12.92 24.6 9.94 20.95 13.65 35.92 13.8 55.65 0.17 22.14-4.31 37.35-16.14 54.81-7.31 10.8-9.23 12.39-23.87 19.85-17.11 8.7-28.5 12.96-41.74 15.6-3.458 0.69-18.681 1.18-22.344 0.72zm2.434-8.98c0.259-3.36 0.702-16.07 0.987-28.25 0.463-19.85 0.378-22.13-0.82-22.13-0.793 0-1.379 0.77-1.442 1.9-0.058 1.04-0.369 8.72-0.692 17.07l-0.588 15.18-0.15-16.98-0.151-16.98-3.037-0.57c-1.671-0.31-3.283-0.33-3.584-0.03-0.56 0.56-1.569 27.32-1.724 45.73-0.073 8.66 0.118 10.33 1.178 10.33 0.696 0 1.316-0.66 1.379-1.47 0.063-0.82 0.376-6.03 0.696-11.6l0.581-10.12 0.148 11.6c0.123 9.68 0.356 11.59 1.412 11.59 1.523 0 1.357 0.88 2.073-10.96l0.587-9.7 0.145 10.75c0.118 8.64 0.381 10.75 1.339 10.75 0.876 0 1.318-1.62 1.663-6.11zm-6.764-31.41c-0.002-4.64 0.138-6.64 0.311-4.45 0.173 2.18 0.175 5.98 0.004 8.43s-0.313 0.66-0.315-3.98zm10.767 31.83c0.062-3.13 0.219-9.48 0.349-14.12 0.787-28.07 0.759-36.11-0.128-36.42-1.241-0.42-1.842 7.71-2.55 34.52-0.526 19.87-0.456 21.71 0.821 21.71 1.149 0 1.415-1 1.508-5.69zm10.027 4.82c14.03-1.72 23.68-5.13 32.83-11.62 6.82-4.84 9.66-7.76 16.46-16.91 15.49-20.87 19.21-38.74 14.9-71.52-1.07-8.1-8.53-30.53-10.42-31.32-0.37-0.15-0.67-0.67-0.67-1.16 0-0.87-4.87-9.81-8.86-16.26-1.15-1.86-2.45-4.22-2.91-5.25-0.45-1.03-3.01-4.68-5.7-8.12-5.93-7.61-10.05-13.62-16.56-24.15-2.72-4.41-6-9.53-7.28-11.39-1.28-1.85-4.84-8.27-7.91-14.27l-5.588-10.9v15.33c0 9.65 0.312 15.32 0.843 15.32 0.464 0 0.843 0.57 0.843 1.27 0 0.79-0.802 1.26-2.163 1.26-4.746 0-5.426 1.11-5.426 8.87v7.12l3.294 1.68c7.387 3.77 13.347 14.69 13.207 24.19-0.09 6.57-3.57 14.27-8.912 19.76-2.551 2.62-5.302 5-6.113 5.28-1.367 0.47-1.476 2.65-1.476 29.62 0 18.85 0.298 29.12 0.844 29.12 0.463 0 0.782-0.29 0.709-0.63-0.074-0.35 0.127-1.22 0.446-1.94 0.97-2.18 17.392-0.94 17.392 1.31 0 1.44-2.58 2.95-5.05 2.95-1.01 0-1.56 0.37-1.26 0.86 0.3 0.48 1.17 0.76 1.95 0.63 1.11-0.18 1.47 0.56 1.68 3.46l0.26 3.69-7.982-0.6-7.982-0.6-0.489 7.03c-0.971 13.95-1.543 48.76-0.801 48.76 0.412 0 3.964-0.39 7.894-0.87zm-26.7-5.24c0.274-2.43 0.752-14.95 1.062-27.82 0.515-21.38 0.443-23.4-0.823-23.4-1.077 0-1.41 0.89-1.492 4-0.058 2.21-0.398 9.51-0.756 16.23l-0.649 12.23 0.212-16.23c0.16-12.25-0.039-16.23-0.807-16.23-1.24 0-2.11 9.07-2.11 22 0 5-0.323 9.3-0.718 9.54s-0.595-2.11-0.445-5.22c1.13-23.45 1.068-26.15-0.61-26.59-1.152-0.3-1.712 0.1-1.977 1.4-0.204 1-0.546 13.11-0.759 26.9-0.371 23.91-0.316 25.09 1.158 25.09 0.934 0 1.692-0.75 1.913-1.9 0.304-1.58 0.384-1.5 0.48 0.49 0.072 1.5 0.507 2.26 1.169 2.04 0.688-0.22 1.218-2.95 1.527-7.87l0.473-7.52 0.159 8.08c0.088 4.45 0.412 8.34 0.722 8.65 1.26 1.26 1.797 0.34 2.271-3.87zm-6.742-10.33c-0.002-4.64 0.138-6.64 0.311-4.45 0.173 2.18 0.175 5.98 0.004 8.43s-0.312 0.66-0.315-3.98zm-4.052-15.27l0.604-26.23-6.774-0.59c-6.589-0.57-6.782-0.65-7.117-2.93-0.464-3.17 0.017-4.3 1.821-4.3 2.255 0 3.833-2.19 2.068-2.87-1.157-0.44-1.202-0.74-0.278-1.86 0.827-0.99 2.221-1.24 5.568-0.99 3.532 0.28 4.54 0.07 4.826-0.97 0.2-0.73 0.591-9.29 0.869-19.03 0.279-9.74 0.714-21.31 0.967-25.72l0.46-8.01-3.033-3.24c-1.668-1.78-4.213-5.76-5.656-8.85-2.198-4.7-2.607-6.56-2.525-11.45 0.053-3.21 0.714-7.76 1.467-10.12 1.739-5.44 6.321-12.44 7.781-11.89 0.604 0.23 0.886 0.08 0.628-0.34s0.461-1.46 1.598-2.31c2.065-1.55 2.07-1.58 3.058-25.41 0.544-13.12 0.798-24.05 0.564-24.28s-2.725 3.1-5.535 7.42c-2.811 4.31-6.744 10.09-8.741 12.84-3.711 5.12-4.188 5.85-6.843 10.54-0.838 1.48-4.575 6.71-8.303 11.61-8.003 10.53-12.757 17.8-19.299 29.51-7.474 13.37-10.26 21.28-13.899 39.46-1.2523 6.26-1.7729 29.44-0.7614 33.88 3.3096 14.56 10.505 32 16.226 39.33 1.246 1.6 2.835 3.79 3.53 4.87 1.413 2.2 11.257 12.27 16.443 16.83 4.687 4.12 18.424 12.15 19.538 11.42 0.08-0.05 0.416-11.9 0.748-26.32zm96.544 7.83c11.55-8.43 21.01-26.45 24.46-46.59 1.78-10.4 0.49-31.75-2.65-43.78-0.48-1.85-1.24-4.83-1.69-6.62-2.57-10.2-12.51-32.11-20.52-45.23-2.69-4.41-7.37-12.19-10.41-17.29-3.03-5.1-8.02-13.07-11.08-17.71-8.69-13.16-15.16-30.24-15.81-41.73-0.73-12.7-1.35-13.69-9.83-15.58-5.45-1.22-5.87-2-8.37-15.72-1.803-9.87-1.905-12.53-1.871-48.81 0.041-44.5 0.041-44.5 7.071-52.38 5.33-5.98 5.91-8.92 3.5-17.59-0.96-3.46-1.75-7.206-1.75-8.31 0-1.863-0.23-1.965-3.17-1.417-1.73 0.324-3.21 0.651-3.28 0.726-0.07 0.074-0.26 4.751-0.42 10.391-0.23 7.86-0.07 10.06 0.7 9.43 0.55-0.46 1.17-1.66 1.36-2.67 0.35-1.81 0.36-1.81 0.48-0.06 0.06 0.98-1.01 3.2-2.39 4.93-1.37 1.72-3.238 5.13-4.148 7.56-1.598 4.27-1.641 6.38-1.285 63.37 0.448 71.58 0.478 72.36 3.155 80.46 2.758 8.35 9.308 22.42 14.268 30.67 2.2 3.66 4 6.77 4 6.91 0 0.15 1.9 2.86 4.22 6.01 2.33 3.16 5.58 7.63 7.22 9.95 5.27 7.41 9.6 13.44 11.12 15.47 7.61 10.19 18.13 30.06 21.77 41.12 8.53 25.96 8.64 47.07 0.35 69.96-1.79 4.95-7.12 15.17-9.2 17.64-0.78 0.93-2.39 3.2-3.58 5.06-1.18 1.85-4.01 5.44-6.27 7.97l-4.13 4.6 6.75-3.66c3.71-2.01 8.85-5.2 11.43-7.08zm-53.29-368.2c-0.26-3.01-0.78-6.393-1.15-7.509-0.47-1.402-0.4-1.852 0.25-1.456 1.17 0.728 2.08 6.685 1.69 11.075-0.26 2.83-0.38 2.48-0.79-2.11zm0.3 333.93c-0.2-1.37-0.61-2.46-0.9-2.43-2.915 0.38-3.553-1.63-1.25-3.94 0.88-0.88 2.3-1.26 3.82-1.04 1.33 0.19 2.12 0.08 1.76-0.24-0.36-0.33-3.2-0.79-6.3-1.03-5.28-0.39-5.667-0.3-5.907 1.38-0.141 0.99-0.825 1.84-1.521 1.91-0.696 0.06-1.771 0.15-2.389 0.21-0.618 0.05-0.968 0.57-0.777 1.15 0.192 0.58 2.595 1.49 5.341 2.02l4.992 0.96-5.059 0.18-5.059 0.19 6.745 1.47c3.714 0.82 6.774 1.53 6.814 1.6 0.03 0.06-0.1-1.01-0.31-2.39zm-22.946-1.29c0-0.7-0.569-1.27-1.265-1.27-1.316 0-1.672 1-0.702 1.97s1.967 0.62 1.967-0.7zm4.216 0.51c0-1.03-2.375-1.86-2.901-1.01-0.234 0.38-0.183 0.93 0.113 1.23 0.804 0.8 2.788 0.65 2.788-0.22zm4.216-0.09c0-0.46-0.569-0.84-1.265-0.84-0.695 0-1.264 0.38-1.264 0.84s0.569 0.84 1.264 0.84c0.696 0 1.265-0.38 1.265-0.84zm-17.021-3.23c0.195-1.97-0.08-2.67-1.054-2.67-1.568 0-1.775 2.2-0.264 2.81 0.843 0.34 0.843 0.44 0 0.49-0.58 0.04-1.054 0.67-1.054 1.41 0 2.47 2.105 0.67 2.372-2.04zm4.373 2.39c0-0.47-0.759-0.85-1.686-0.85-0.928 0-1.686 0.38-1.686 0.85 0 0.46 0.758 0.84 1.686 0.84 0.927 0 1.686-0.38 1.686-0.84zm-16.863-1.27c0-0.94-1.013-1.26-4.006-1.27-2.202-0.01-4.864-0.25-5.915-0.53-1.499-0.4-1.8-0.22-1.401 0.82 0.347 0.9 1.889 1.42 4.861 1.63 2.394 0.17 4.827 0.38 5.407 0.46 0.579 0.09 1.054-0.41 1.054-1.11zm5.902 0.49c0-0.42-0.474-0.96-1.054-1.19-0.843-0.34-0.843-0.44 0-0.5 1.198-0.07 1.47-2.59 0.28-2.59-0.426 0-1.384 0.23-2.13 0.52-1.049 0.4-1.136 0.78-0.387 1.69 0.705 0.84 0.711 1.16 0.021 1.16-0.52 0-0.946 0.38-0.946 0.84 0 0.47 0.948 0.85 2.108 0.85 1.159 0 2.108-0.35 2.108-0.78zm3.373-0.07c0-0.46-0.57-0.84-1.265-0.84-0.696 0-1.265 0.38-1.265 0.84 0 0.47 0.569 0.85 1.265 0.85 0.695 0 1.265-0.38 1.265-0.85zm16.02-2.1c0-1.31-0.478-2.11-1.265-2.11-2.356 0-1.507 3.34 1.054 4.15 0.116 0.03 0.211-0.88 0.211-2.04zm4.216 0.42c0-1.13-0.562-1.69-1.686-1.69s-1.687 0.56-1.687 1.69c0 1.12 0.563 1.68 1.687 1.68s1.686-0.56 1.686-1.68zm-12.648-0.84c0-1.13-0.562-1.69-1.686-1.69s-1.686 0.56-1.686 1.69c0 1.12 0.562 1.68 1.686 1.68s1.686-0.56 1.686-1.68zm4.216 0.09c0-0.88-0.569-1.82-1.265-2.09-0.913-0.35-1.264 0.1-1.264 1.6 0 1.29 0.482 2.08 1.264 2.08 0.696 0 1.265-0.72 1.265-1.59zm-11.804-0.59c0-0.73-0.451-1.18-1.002-1-1.563 0.52-1.822 2.34-0.333 2.34 0.734 0 1.335-0.6 1.335-1.34zm-8.656-2.88l-0.135-3.37h-4.14c-3.622 0-4.006 0.16-3.068 1.29 0.886 1.07 0.794 1.5-0.529 2.5-0.881 0.67-2.36 1.28-3.287 1.36-2.17 0.19 4.092 1.32 8.176 1.48 3.116 0.12 3.117 0.11 2.983-3.26zm24.676-26.98c0-24.17-0.166-27.83-1.265-27.83-1.098 0-1.264 3.6-1.264 27.34 0 26.59 0.077 27.54 2.318 28.25 0.116 0.04 0.211-12.46 0.211-27.76zm4.216-1.27c0-28.41-0.038-29.08-1.607-28.1-1.525 0.96-1.613 2.44-1.712 29.1-0.103 27.71-0.081 28.1 1.607 28.1s1.712-0.42 1.712-29.1zm-19.523 17.26l0.735-9.67 0.119 9.91c0.065 5.45 0.457 9.91 0.87 9.91 1.441 0 1.542-2.32 2.137-49.25 0.042-3.29-0.297-5.11-0.991-5.34-0.807-0.28-1.054 2.22-1.054 10.67 0 6.07-0.284 11.04-0.632 11.04s-0.633-4.84-0.633-10.75c0-14.84-1.567-14.99-2.085-0.22l-0.399 11.39-0.444-12.22c-0.374-10.28-0.657-12.26-1.787-12.47-1.431-0.28-1.355-1.29-2.992 39.65-0.562 14.08-0.558 14.13 1.253 14.13 2.032 0 2.32 0.84 0.805 2.36-0.769 0.77-0.773 1.01-0.016 1.01 1.466 0 1.854-2.63 2.115-14.34l0.235-10.53 0.182 13.02c0.216 15.41 1.476 16.24 2.582 1.7zm0.413-15.99c0-3.48 0.149-4.9 0.331-3.16s0.182 4.58 0 6.32-0.331 0.32-0.331-3.16zm-3.492-1.26c-0.017-1.4 0.158-2.07 0.389-1.5s0.245 1.71 0.031 2.53c-0.213 0.82-0.402 0.36-0.42-1.03zm14.224 14.96c0.029-7.3 0.224-16.88 0.432-21.29 0.527-11.14-0.292-20.24-1.822-20.24-1.004 0-1.193 4.35-1.193 27.41 0 23.8 0.166 27.4 1.264 27.4 1.069 0 1.274-2.06 1.319-13.28zm-3.625-14.77c0.184-22.11 0.023-26.76-0.925-26.76-1.444 0-2.249 13.36-2.249 37.3 0 15.54 0.11 16.77 1.475 16.51 1.363-0.26 1.493-2.33 1.699-27.05zm6.944-29.64c0-0.19 0.23-0.95 0.512-1.68 0.336-0.88 0.046-1.34-0.843-1.34-0.793 0-1.355 0.7-1.355 1.69 0 0.93 0.379 1.69 0.843 1.69s0.843-0.16 0.843-0.36zm-10.118-2.15c0-1.13-0.405-1.5-1.265-1.17-1.353 0.52-1.613 1.36-0.703 2.27 1.064 1.06 1.968 0.56 1.968-1.1zm-4.131-2.31c-0.81-1.39-0.879-1.37-0.903 0.25-0.028 1.95 1.042 3.47 1.492 2.12 0.159-0.47-0.106-1.54-0.589-2.37zm11.298 2.29c0.286-0.47-0.283-0.85-1.265-0.85s-1.551 0.38-1.265 0.85c0.287 0.46 0.856 0.84 1.265 0.84s0.978-0.38 1.265-0.84zm-4.48-0.58c-0.608-0.24-1.336-0.21-1.616 0.07s0.218 0.48 1.107 0.44c0.982-0.04 1.182-0.24 0.509-0.51zm16.835-1.2c1.374-0.98 2.285-1.99 2.025-2.25-0.261-0.26 0.136-1.41 0.882-2.55 1.531-2.33 0.756-2.02-3.668 1.46-1.507 1.19-2.741 2.83-2.741 3.64 0 1.9 0.468 1.86 3.502-0.3zm-4.766 0.09c0.286-0.46-0.071-0.84-0.794-0.84s-1.314 0.38-1.314 0.84 0.357 0.84 0.793 0.84 1.028-0.38 1.315-0.84zm-21.502-1.27c-1.175-1.41-2.529-1.67-2.529-0.48 0 0.43 0.664 0.96 1.475 1.17 0.812 0.21 1.617 0.43 1.79 0.48 0.173 0.06-0.158-0.47-0.736-1.17zm-6.273-3.24c-1.187-1.19-2.157-2.65-2.154-3.25 0.002-0.6 0.937 0.04 2.077 1.44 1.202 1.46 2.086 2.02 2.104 1.33 0.017-0.66-0.549-1.84-1.256-2.62-1.997-2.21-4.616-10.5-4.616-14.61 0-4.38 1.418-8.06 4.989-12.98 2.989-4.11 3.351-5.37 0.908-3.16-0.93 0.84-1.899 1.32-2.152 1.07-0.254-0.25 0.565-1.27 1.82-2.26 1.255-0.98 2.018-2.05 1.696-2.38-1.049-1.04-7.094 6.69-8.886 11.37-1.798 4.7-2.18 10.31-0.905 13.27 0.496 1.16 0.754 1.29 0.818 0.43 0.1-1.37 3.411 4.76 3.38 6.26-0.011 0.5-0.715 0-1.566-1.11-2.56-3.33-2.928-0.54-0.457 3.46 2.086 3.37 5.461 6.8 6.085 6.17 0.151-0.15-0.697-1.24-1.885-2.43zm-5.915-22.68c0.768-2.55 2.07-3.89 2.07-2.14 0 2.03-0.913 4.03-1.833 4.03-0.448 0-0.554-0.85-0.237-1.89zm22.306 24.69c0-0.45 0.57-0.6 1.265-0.34 0.939 0.37 1.265-0.12 1.265-1.87 0-2.19-0.081-2.25-1.143-0.8-0.7 0.96-1.68 1.36-2.529 1.04-1.381-0.53-1.976 1.07-0.825 2.22 0.83 0.83 1.967 0.68 1.967-0.25zm21.163-1.81c6.686-7.71 7.336-22.71 1.34-30.67-4.493-5.96-9.38-8.71-9.628-5.43-0.098 1.31 0.133 1.53 0.923 0.88 0.778-0.65 1.44-0.23 2.529 1.62 0.812 1.37 2.188 2.5 3.058 2.5 1.724 0 3.361 3.52 1.868 4.01-0.623 0.21-0.63 1.06-0.022 2.8 0.48 1.38 0.719 3.82 0.531 5.42-0.187 1.6-0.042 3.02 0.322 3.14s0.097 1.31-0.593 2.64c-1.507 2.9-1.611 4.23-0.267 3.4 0.705-0.44 0.778-0.15 0.257 1-0.401 0.89-0.76 2.99-0.798 4.68-0.038 1.68-0.579 3.67-1.204 4.42-1.695 2.05-0.109 1.65 1.684-0.41zm1.604-7.85c0-1.7 0.912-3.86 1.632-3.86 0.33 0 0.44 1.14 0.23 2.53-0.37 2.53-1.862 3.59-1.862 1.33zm0.592-11.24c-0.424-2.21-0.151-3.42 0.6-2.67 0.89 0.89 1.45 4.99 0.68 4.99-0.46 0-1.03-1.04-1.28-2.32zm-26.936 17.71c0.137-1.96 0.027-2.09-0.705-0.84-0.478 0.82-0.635 1.86-0.351 2.32 0.761 1.23 0.877 1.07 1.056-1.48zm11.141-0.42c-0.022-2.33-0.16-2.51-0.914-1.22-0.489 0.84-0.679 2.08-0.423 2.74 0.78 2.03 1.364 1.37 1.337-1.52zm-14.151 1.32c-0.609-0.25-1.336-0.22-1.616 0.06s0.218 0.48 1.107 0.45c0.982-0.04 1.182-0.24 0.509-0.51zm-3.219-2.17c0.925-3.45 0.639-4.08-1.155-2.54-1.93 1.65-2.256 4.44-0.52 4.44 0.642 0 1.395-0.85 1.675-1.9zm26.67 0.64c0-0.73-0.761-1.27-1.789-1.27-1.496 0-1.617 0.21-0.74 1.27 0.577 0.69 1.382 1.26 1.789 1.26s0.74-0.57 0.74-1.26zm-22.921-3.23c0.189-1.6-0.118-2.26-1.054-2.26-0.913 0-1.32 0.81-1.32 2.6 0 3.23 1.986 2.94 2.374-0.34zm24.323 0.06c-0.234-0.58-0.425-0.1-0.425 1.06s0.191 1.63 0.425 1.05 0.234-1.53 0-2.11zm-17.961-0.21c-0.267-0.69-1.06-1.26-1.763-1.26-1.04 0-1.082 0.23-0.228 1.26 0.577 0.7 1.371 1.27 1.763 1.27 0.393 0 0.495-0.57 0.228-1.27zm3.068 0.37c0-0.49-0.379-0.65-0.843-0.37-0.464 0.29-0.843 0.69-0.843 0.9 0 0.2 0.379 0.37 0.843 0.37s0.843-0.4 0.843-0.9zm3.795-0.79c0.286-0.46 0.141-0.84-0.322-0.84-0.464 0-1.078 0.38-1.365 0.84-0.286 0.46-0.141 0.84 0.322 0.84 0.464 0 1.078-0.38 1.365-0.84zm4.059-0.32c0.246-0.64 0.124-1.49-0.271-1.89-0.394-0.41-0.879-2.07-1.078-3.69-0.216-1.77-0.357-1.01-0.352 1.9 0.009 4.62 0.738 6.19 1.701 3.68zm4.417 0.39c-0.262-0.42 0-0.95 0.583-1.16 0.68-0.26 0.455-0.64-0.628-1.07-0.927-0.37-1.965-1.07-2.305-1.57-0.341-0.5-0.626 0.11-0.633 1.35-0.008 1.45 0.516 2.4 1.463 2.64 0.811 0.22 1.593 0.43 1.736 0.49 0.143 0.05 0.046-0.25-0.216-0.68zm-11.463-2.39c-0.02-0.35-0.589-2.72-1.264-5.27-1.152-4.35-1.195-4.4-0.694-0.84 0.293 2.09 0.564 4.46 0.601 5.27s0.366 1.47 0.73 1.47 0.646-0.28 0.627-0.63zm-4.602-1.89c-0.839-0.93-1.671-1.69-1.847-1.69s0.086 0.76 0.582 1.69c0.496 0.92 1.328 1.68 1.847 1.68s0.257-0.76-0.582-1.68zm-9.011-1.84c-0.145-1.47-0.691-2.81-1.213-2.98-1.261-0.42-1.996 3.64-0.865 4.77 1.59 1.59 2.347 0.94 2.078-1.79zm7.426-1.54c0.818-1.85 1.794-3.37 2.169-3.37 0.374 0 0.681-1.64 0.681-3.65 0-2.69-0.335-3.66-1.265-3.66-0.765 0-1.315 0.86-1.392 2.18-0.069 1.2-0.354 0.47-0.632-1.62-0.677-5.08-2.138-4.82-2.411 0.43-0.249 4.79 0.927 7.61 2.29 5.49 0.631-0.99 0.774-0.83 0.658 0.7-0.081 1.07-0.823 2.32-1.649 2.76s-1.502 1.55-1.502 2.46c0 2.71 1.462 1.89 3.053-1.72zm-12.139 1.54c-0.719-0.72-0.739-1.3-0.074-2.1 1.391-1.67 0.202-3.65-2.196-3.65-3.035 0-2.916 3.32 0.186 5.19 2.835 1.71 3.381 1.86 2.084 0.56zm7.979-7.65c0.142-7.02 0.05-7.55-0.922-5.27-1.391 3.26-1.551 7.81-0.378 10.75 0.509 1.28 0.974 2.32 1.034 2.32s0.18-3.51 0.266-7.8zm13.07 2.83c-0.827-0.52-0.749-2.53 0.285-7.35 0.425-1.98 0.234-2.74-0.783-3.13-1.147-0.44-1.346 0.28-1.346 4.89 0 2.97 0.397 5.65 0.883 5.95s0.822 1.17 0.746 1.94c-0.253 2.58 0.305 3.12 0.672 0.65 0.2-1.34-0.006-2.67-0.457-2.95zm4.567 2.67c-0.28-0.28-0.479 0.22-0.442 1.1 0.04 0.99 0.24 1.19 0.509 0.51 0.244-0.6 0.214-1.33-0.067-1.61zm7.238-2.49c-0.609-0.25-1.336-0.22-1.616 0.06-0.281 0.28 0.217 0.48 1.106 0.45 0.983-0.04 1.182-0.24 0.51-0.51zm-7.747-1.11c0-0.47-0.379-0.85-0.843-0.85s-0.843 0.38-0.843 0.85c0 0.46 0.379 0.84 0.843 0.84s0.843-0.38 0.843-0.84zm-24.97-1.68c0.411 0 0.513-1.72 0.227-3.8-0.329-2.4-0.198-3.8 0.356-3.8 0.483 0 0.643-0.38 0.356-0.84-0.287-0.47-1.116-0.84-1.844-0.84-1.069 0-1.22 0.64-0.788 3.34 0.447 2.8 0.26 3.48-1.158 4.24-2.319 1.24-2.169 2.86 0.206 2.22 1.044-0.28 2.234-0.51 2.645-0.52zm18.198-4.01c-0.025-4.45-0.13-4.72-1.265-3.22-1.684 2.23-1.665 8.06 0.027 8.06 0.98 0 1.258-1.09 1.238-4.84zm12.5 2.92c-0.136-0.59 0.132-1.14 0.596-1.21 0.464-0.08 0.79 0.41 0.726 1.07-0.064 0.67 0.198 1.22 0.583 1.22 1.087 0 1.696-1.41 1.184-2.74-0.598-1.56-7.131-5.25-7.131-4.03 0 0.51 0.569 1.14 1.265 1.41 0.696 0.26 1.265 0.86 1.265 1.32 0 0.47-0.569 0.63-1.265 0.36-1.536-0.59-1.656 0.78-0.211 2.42 1.322 1.5 3.319 1.62 2.988 0.18zm-26.049-6.46c-0.082-2.11-1.308-6.78-1.564-5.95-0.071 0.23-0.302 2.89-0.514 5.9-0.352 5.01-0.276 5.34 0.889 3.85 0.7-0.9 1.236-2.61 1.189-3.8zm26.063-2.26c-0.75-0.75-1.78-1.1-2.288-0.79-1.675 1.04-0.964 2.16 1.364 2.16 2.109 0 2.182-0.11 0.924-1.37zm-9.115-2.43c0-1.16-0.296-2.1-0.659-2.1s-0.738 0.94-0.834 2.1 0.201 2.11 0.659 2.11c0.459 0 0.834-0.95 0.834-2.11zm-10.118-1.26c0-0.87-0.38-1.82-0.843-2.11-0.464-0.29-0.843 0.26-0.843 1.22 0 0.95-0.475 1.74-1.054 1.75-0.724 0-0.67 0.25 0.17 0.78 1.576 1 2.57 0.36 2.57-1.64zm-3.318-2.92c0.433 0.27 0.788 0.12 0.788-0.33 0-0.46-0.474-1.02-1.054-1.25-0.799-0.32-0.806-0.44-0.026-0.49 0.565-0.04 0.809-0.64 0.542-1.33-1.026-2.68-1.814-1.07-1.754 3.58 0.034 2.67 0.209 3.61 0.389 2.09 0.179-1.52 0.681-2.54 1.115-2.27zm8.92 2.5c-0.139-2.41-1.386-2.92-1.386-0.56 0 1.32 0.664 2.67 1.316 2.67 0.106 0 0.137-0.95 0.07-2.11zm-11.657-5.33c0.201-1.37-0.064-1.7-1.054-1.32-1.565 0.6-1.827 4-0.269 3.49 0.58-0.19 1.175-1.17 1.323-2.17zm19.546 0.32c0-0.67-0.379-1.45-0.843-1.74-0.464-0.28-0.843 0.26-0.843 1.22 0 0.95 0.379 1.73 0.843 1.73s0.843-0.54 0.843-1.21zm-3.01-0.38c0.254-0.41-0.059-1.18-0.695-1.71-0.883-0.73-1.267-0.67-1.619 0.25-0.721 1.88 1.277 3.14 2.314 1.46zm-7.389-1.36c0-0.69-0.276-1.26-0.613-1.26s-0.831 0.57-1.098 1.26c-0.278 0.73-0.017 1.27 0.613 1.27 0.604 0 1.098-0.57 1.098-1.27zm2.968 0.69c-0.608-0.24-1.336-0.21-1.616 0.07s0.218 0.48 1.107 0.44c0.982-0.04 1.182-0.24 0.509-0.51zm0-1.69c-0.608-0.24-1.336-0.21-1.616 0.07s0.218 0.48 1.107 0.44c0.982-0.04 1.182-0.24 0.509-0.51zm7.431-8.69c0-5.06-0.337-8.44-0.843-8.44-0.464 0-0.9 1.43-0.97 3.17-0.114 2.86-0.161 2.92-0.497 0.63-0.339-2.3-1.442-3.75-2.881-3.78-0.304-0.01-0.494 3.11-0.421 6.94 0.124 6.58 0.236 6.97 2.08 7.23 1.072 0.15 2.156 0.82 2.409 1.48 0.916 2.38 1.123 1.05 1.123-7.23zm-2.365 0.42c-0.017-1.39 0.157-2.07 0.388-1.49 0.231 0.57 0.245 1.7 0.032 2.52-0.214 0.83-0.403 0.36-0.42-1.03zm-17.168 3.73c0.376-2.72 1.478-3.8 1.437-1.4-0.018 1.03 0.347 2.07 0.811 2.3 0.516 0.26 0.938-2.11 1.089-6.11 0.146-3.87-0.091-6.53-0.579-6.53-0.454 0-0.978 1.23-1.165 2.74-0.335 2.7-0.342 2.69-0.475-0.42-0.2-4.68-2.301-4.15-2.972 0.75-0.899 6.55-0.67 11.45 0.518 11.05 0.58-0.19 1.181-1.26 1.336-2.38zm9.58-4.79l0.165-5.69 0.295 5.69c0.222 4.29 0.599 5.69 1.521 5.69 0.978 0 1.226-1.46 1.226-7.23 0-5.42-0.265-7.15-1.054-6.89-0.579 0.2-1.466-0.2-1.969-0.88-0.788-1.07-1.213-0.99-3.04 0.6-1.878 1.63-2.144 2.58-2.291 8.13l-0.166 6.27h5.148l0.165-5.69zm12.244-14.32c-0.193-1.28-0.357-0.43-0.364 1.89-0.006 2.31 0.153 3.36 0.353 2.33 0.2-1.04 0.205-2.94 0.011-4.22zm-17.995 2.2c0.832-4.16 0.625-5.79-0.738-5.79-0.956 0-1.265 1.03-1.265 4.21 0 4.7 1.19 5.64 2.003 1.58zm15.704-1.16c0-2.08-0.379-3.79-0.843-3.79s-0.843 1.71-0.843 3.79c0 2.09 0.379 3.8 0.843 3.8s0.843-1.71 0.843-3.8zm6.212-30c-0.062-18.28-0.157-51.04-0.211-72.8-0.054-21.75-0.263-39.39-0.463-39.19s-0.615 33.13-0.922 73.17c-0.466 60.77-0.371 72.75 0.575 72.43 0.925-0.31 1.112-6.46 1.021-33.61zm-8.904 29.44c-0.371-5.03-2.367-5.33-2.367-0.35 0 2.94 0.315 3.86 1.313 3.86 1.021 0 1.256-0.78 1.054-3.51zm-9.956 1.83c0-0.47 0.285-0.8 0.632-0.75 2.142 0.34 2.83-0.28 2.586-2.35-0.372-3.14-2.341-3.58-2.501-0.56l-0.126 2.39-0.352-2.32c-0.534-3.52-1.925-2.76-1.925 1.06 0 1.85 0.379 3.37 0.843 3.37s0.843-0.38 0.843-0.84zm5.902-2.06c0-3.92-1.416-4.58-1.85-0.86-0.19 1.63-0.168 3.15 0.049 3.36 1.091 1.1 1.801 0.11 1.801-2.5zm9.014-7.01c-0.213-0.81-0.386-0.14-0.386 1.48s0.173 2.29 0.386 1.47c0.212-0.81 0.212-2.14 0-2.95zm-11.543-0.63c0-2.06-0.382-2.95-1.265-2.95s-1.265 0.89-1.265 2.95 0.382 2.95 1.265 2.95 1.265-0.89 1.265-2.95zm2.529 0c0-1.62-0.379-2.95-0.843-2.95s-0.843 1.33-0.843 2.95 0.379 2.95 0.843 2.95 0.843-1.33 0.843-2.95zm4.216 0c0-2.06-0.381-2.95-1.264-2.95-0.884 0-1.265 0.89-1.265 2.95s0.381 2.95 1.265 2.95c0.883 0 1.264-0.89 1.264-2.95zm2.53 0c0-1.62-0.379-2.95-0.843-2.95s-0.843 1.33-0.843 2.95 0.379 2.95 0.843 2.95 0.843-1.33 0.843-2.95zm-15.335-0.63c-0.145-1.51-0.643-2.74-1.107-2.74s-0.962 1.23-1.108 2.74c-0.2 2.08 0.068 2.74 1.108 2.74 1.039 0 1.307-0.66 1.107-2.74zm2.687 0.21c0-1.39-0.379-2.53-0.843-2.53s-0.843 1.14-0.843 2.53 0.379 2.53 0.843 2.53 0.843-1.14 0.843-2.53zm3.373-7.59c0-2.44-0.351-3.37-1.265-3.37-0.871 0-1.265 0.87-1.265 2.81 0 1.54 0.253 3.06 0.562 3.37 1.304 1.3 1.968 0.36 1.968-2.81zm2.635 2.53c0.456-3.65 0.175-5.9-0.738-5.9-0.667 0-1.054 1.23-1.054 3.37 0 1.86 0.379 3.37 0.843 3.37s0.891-0.38 0.949-0.84zm4.11-3.1c0-2.33-0.299-2.87-1.475-2.64-0.812 0.15-1.381 0.56-1.265 0.9s0.211 1.75 0.211 3.13c0 1.88 0.315 2.38 1.265 2.01 0.787-0.3 1.264-1.58 1.264-3.4zm2.53 1.04c0-1.59-0.379-3.13-0.843-3.42-0.509-0.32-0.843 0.83-0.843 2.9 0 1.88 0.379 3.42 0.843 3.42s0.843-1.3 0.843-2.9zm-15.177-0.89c0-1.62-0.38-2.95-0.844-2.95-0.463 0-0.843 1.33-0.843 2.95s0.38 2.95 0.843 2.95c0.464 0 0.844-1.33 0.844-2.95zm2.529-0.05c0-1.79-0.341-2.79-0.843-2.48-0.464 0.29-0.843 1.64-0.843 3s0.379 2.48 0.843 2.48 0.843-1.35 0.843-3zm3.373-7.95c0-3.07-0.183-3.35-2.108-3.19-1.831 0.15-2.1 0.57-2.049 3.15 0.049 2.43 0.192 2.67 0.784 1.29 0.578-1.34 0.737-1.4 0.784-0.28 0.049 1.17 0.685 1.79 2.378 2.32 0.116 0.04 0.211-1.44 0.211-3.29zm6.745-0.1c0-3.19-0.082-3.28-2.951-3.28-2.868 0-2.951 0.09-2.951 3.28 0 3.2 0.083 3.29 2.951 3.29 2.869 0 2.951-0.09 2.951-3.29zm2.53 0.09c0-1.86-0.379-3.37-0.843-3.37s-0.843 1.51-0.843 3.37c0 1.85 0.379 3.37 0.843 3.37s0.843-1.52 0.843-3.37zm-15.108 1.9c0.038-0.35 0.241-1.68 0.45-2.96 0.278-1.68 0.029-2.31-0.912-2.31-0.917 0-1.294 0.86-1.294 2.95 0 1.62 0.38 2.95 0.843 2.95 0.464 0 0.875-0.29 0.913-0.63zm0.774-10.83c0-4.97-1.997-4.68-2.368 0.35-0.201 2.74 0.034 3.52 1.054 3.52 0.998 0 1.314-0.93 1.314-3.87zm5.059-0.08c0-3.32-0.172-3.7-1.265-2.8-0.874 0.73-1.265 0.76-1.265 0.11 0-0.52-0.379-0.95-0.843-0.95-0.817 0-1.229 6.08-0.464 6.84 0.209 0.21 1.158 0.44 2.108 0.51 1.509 0.12 1.729-0.35 1.729-3.71zm6.745 0.58c0-3.3-0.07-3.38-2.951-3.38s-2.951 0.08-2.951 3.38c0 3.29 0.07 3.37 2.951 3.37s2.951-0.08 2.951-3.37zm2.53 0c0-1.86-0.379-3.38-0.843-3.38s-0.843 1.52-0.843 3.38c0 1.85 0.379 3.37 0.843 3.37s0.843-1.52 0.843-3.37zm2.266-2.33c-0.211-0.81-0.376 0.05-0.367 1.91 0.009 1.85 0.182 2.51 0.384 1.46 0.201-1.05 0.194-2.57-0.017-3.37zm-7.913-4.69c0.358-1.83 0.358-1.83 0.473 0.06 0.065 1.07 0.664 1.9 1.38 1.9 0.909 0 1.264-0.93 1.264-3.32 0-3.58-1.103-4.23-6.113-3.55-2.059 0.28-2.319 0.67-2.319 3.46 0 2.91 0.191 3.16 2.479 3.22 1.905 0.06 2.561-0.35 2.836-1.77zm5.647-1.89c0-1.59-0.379-2.9-0.843-2.9s-0.843 1.54-0.843 3.42c0 2.07 0.334 3.22 0.843 2.91 0.464-0.29 0.843-1.83 0.843-3.43zm3.046-8.24c0.362-8.18 0.239-11.52-0.425-11.52-1.033 0-1.087 0.16-1.307 3.79-0.084 1.39 0.194 2.77 0.618 3.06 0.465 0.31 0.457 1.15-0.019 2.11-0.729 1.46-0.452 15.15 0.292 14.41 0.181-0.18 0.56-5.51 0.841-11.85zm-17.38 7.87c0-1.85-0.38-3.37-0.843-3.37-0.464 0-0.844 0.92-0.844 2.04s-0.23 2.64-0.511 3.37c-0.336 0.88-0.046 1.33 0.843 1.33 1.018 0 1.355-0.83 1.355-3.37zm2.529 0c0-1.85-0.379-3.37-0.843-3.37s-0.843 1.52-0.843 3.37c0 1.86 0.379 3.37 0.843 3.37s0.843-1.51 0.843-3.37zm-2.467-6.53c0.035-0.81 0.222-2.33 0.417-3.38 0.238-1.27-0.057-1.89-0.906-1.89-0.907 0-1.26 0.94-1.26 3.37 0 3.22 1.619 4.97 1.749 1.9zm11.582-1.69l-0.261-3.16-4.763-0.18-4.763-0.17-0.303 3.17-0.303 3.17 5.328 0.17 5.327 0.16-0.262-3.16zm2.69 0.21c0-1.62-0.379-2.95-0.843-2.95s-0.843 1.33-0.843 2.95 0.379 2.95 0.843 2.95 0.843-1.33 0.843-2.95zm-17.128-2.75c-0.211-0.81-0.376 0.05-0.366 1.91 0.009 1.85 0.182 2.51 0.383 1.46 0.202-1.04 0.194-2.56-0.017-3.37zm10.811-9.33c-0.286-0.28-0.873 0.04-1.305 0.72-0.531 0.84-0.788 0.9-0.797 0.19-0.007-0.58-0.962-1.05-2.121-1.05-1.884 0-2.102 0.33-2.049 3.16 0.048 2.53 0.203 2.83 0.784 1.47 0.692-1.61 0.728-1.6 0.784 0.21 0.067 2.14 0.868 2.4 2.544 0.85 0.73-0.68 0.939-0.71 0.585-0.08-0.303 0.54-0.074 1.15 0.509 1.35 1.109 0.37 2.075-5.81 1.066-6.82zm6.317 4.07c0-1.85-0.379-3.37-0.843-3.37s-0.843 1.52-0.843 3.37c0 1.86 0.379 3.37 0.843 3.37s0.843-1.51 0.843-3.37zm-2.53-0.42c0-2.06-0.381-2.95-1.264-2.95-0.884 0-1.265 0.89-1.265 2.95s0.381 2.95 1.265 2.95c0.883 0 1.264-0.89 1.264-2.95zm-14.598-2.75c-0.211-0.81-0.376 0.05-0.366 1.91 0.009 1.85 0.182 2.51 0.383 1.46 0.202-1.05 0.194-2.56-0.017-3.37zm3.48 1.63c0.195-1.98-0.08-2.67-1.054-2.67-0.951 0-1.319 0.84-1.319 3.02 0 3.81 1.991 3.52 2.373-0.35zm-3.506-7.96c-0.231-0.57-0.406 0.1-0.389 1.49 0.018 1.39 0.207 1.86 0.42 1.04 0.214-0.82 0.2-1.96-0.031-2.53zm3.663-0.62c0-4.07-1.6-6.16-1.771-2.32-0.08 1.82-0.111 1.82-0.759-0.21-0.371-1.16-0.713-1.62-0.759-1.04-0.132 1.69 1.945 7.79 2.651 7.79 0.351 0 0.638-1.9 0.638-4.22zm5.059 0.01c0-3.89-0.145-4.19-1.897-3.93-1.609 0.25-1.936 0.88-2.154 4.21-0.243 3.72-0.142 3.93 1.897 3.93 2.022 0 2.154-0.26 2.154-4.21zm2.53-0.01c0-2.32-0.38-4.21-0.844-4.21-0.463 0-0.843 1.89-0.843 4.21s0.38 4.22 0.843 4.22c0.464 0 0.844-1.9 0.844-4.22zm5.902 0.39c0-2.95-0.316-3.65-1.833-4.04-2.69-0.71-3.226-0.03-3.226 4.07 0 3.55 0.093 3.68 2.529 3.61 2.401-0.06 2.53-0.25 2.53-3.64zm-2.365 0.03c-0.017-1.39 0.157-2.06 0.388-1.49s0.245 1.71 0.032 2.53c-0.214 0.82-0.403 0.36-0.42-1.04zm5.142-2.09c-0.736-2.81-2.198-1.97-1.618 0.93 0.29 1.45 0.56 3.26 0.6 4.01s0.385 0.33 0.767-0.94 0.495-3.07 0.251-4zm0.082-12.93c0.211-7.63 0.021-9.86-0.873-10.2-0.875-0.34-1.143 0.63-1.143 4.12 0 2.51 0.413 4.82 0.917 5.13 0.66 0.41 0.66 0.82 0 1.48-0.995 1-1.239 6.35-0.391 8.56 0.945 2.46 1.215 0.82 1.49-9.09zm-19.12 1.31c-0.193-1.27-0.346-0.03-0.342 2.75 0.005 2.79 0.163 3.82 0.35 2.31 0.188-1.52 0.184-3.8-0.008-5.06zm2.77 2.75c0-2.55-0.38-4.63-0.843-4.63-0.464 0-0.843 2.08-0.843 4.63s0.379 4.64 0.843 4.64c0.463 0 0.843-2.09 0.843-4.64zm5.059 0.42c0-5.37-1.642-5.56-1.819-0.21l-0.132 4.01-0.5-4.22c-0.552-4.65-1.765-3.44-1.765 1.76 0 2.51 0.271 2.88 2.108 2.88 1.968 0 2.108-0.28 2.108-4.22zm2.53 0c0-2.31-0.38-4.21-0.844-4.21-0.463 0-0.843 1.9-0.843 4.21 0 2.32 0.38 4.22 0.843 4.22 0.464 0 0.844-1.9 0.844-4.22zm5.902-0.12c0-3.98-0.067-4.09-2.53-4.09-2.468 0-2.529 0.1-2.529 4.16 0 4.07 0.051 4.16 2.529 4.09 2.453-0.07 2.53-0.2 2.53-4.16zm-8.432-10.42c0-2.55-0.379-4.63-0.843-4.63s-0.843 2.08-0.843 4.63c0 2.56 0.379 4.64 0.843 4.64s0.843-2.08 0.843-4.64zm2.53 0c0-2.55-0.38-4.63-0.844-4.63-0.463 0-0.843 2.08-0.843 4.63 0 2.56 0.38 4.64 0.843 4.64 0.464 0 0.844-2.08 0.844-4.64zm3.372 0c0-3.56-0.293-4.63-1.264-4.63-0.953 0-1.265 1.02-1.265 4.14 0 3.63 0.375 4.45 2.319 5.07 0.116 0.03 0.21-2.02 0.21-4.58zm2.53 0c0-2.55-0.379-4.63-0.843-4.63-0.929 0-1.181 7.81-0.281 8.71 1.014 1.01 1.124 0.61 1.124-4.08zm-15.121 3.05c1.041 1.68 1.778 0.43 2.26-3.85 0.446-3.95-1.016-5.6-1.721-1.94l-0.366 1.9-0.115-1.9c-0.24-3.96-1.798-1.69-1.734 2.53 0.036 2.44 0.272 3.91 0.523 3.28 0.38-0.95 0.576-0.96 1.153-0.02zm3.92-5.79c-0.193-1.27-0.351-0.23-0.351 2.32s0.158 3.6 0.351 2.32c0.193-1.27 0.193-3.36 0-4.64zm6.042-5.95c0.086 1.94 0.453 2.25 2.629 2.19 2.483-0.07 2.53-0.16 2.53-4.53 0-3.7-0.251-4.45-1.476-4.42-0.811 0.02-3.467-0.16-5.902-0.41l-4.427-0.45 0.1 4.78c0.083 3.96 0.211 4.35 0.743 2.26l0.644-2.53 0.1 2.41c0.072 1.75 0.439 2.28 1.337 1.93 0.681-0.26 1.527-0.01 1.88 0.55 0.408 0.64 0.841 0.09 1.192-1.52 0.544-2.5 0.551-2.5 0.65-0.26zm8.062-2.03c-0.328-6.1-2.06-6.35-2.06-0.31 0 3.41 0.317 4.71 1.149 4.71 0.853 0 1.088-1.13 0.911-4.4zm-18.32-2.98c-0.193-1.27-0.351-0.23-0.351 2.32s0.158 3.6 0.351 2.32 0.193-3.36 0-4.64zm2.769 1.85c0-2.91-0.32-4.49-0.843-4.17-0.464 0.29-0.843 2.4-0.843 4.69s0.379 4.17 0.843 4.17 0.843-2.11 0.843-4.69zm12.648-10.65v-5.03l-3.162 0.28c-1.739 0.15-3.441 0.65-3.781 1.12-0.384 0.52-0.625 0.44-0.633-0.22-0.007-0.57-0.392-1.05-0.856-1.05s-0.843 0.75-0.843 1.66c0 1.13 0.404 1.51 1.265 1.18 0.863-0.34 1.264 0.04 1.264 1.19 0 0.97-0.712 1.86-1.686 2.12-1.474 0.38-1.702 0-1.813-3.07-0.091-2.52-0.224-2.85-0.477-1.18-0.193 1.27-0.653 2.32-1.022 2.32-0.368 0-0.489-0.95-0.267-2.11 0.223-1.17 0.007-2.11-0.483-2.11-0.487 0-1.043 1.04-1.236 2.32l-0.352 2.32-0.126-2.32c-0.234-4.3-1.523-2.36-1.686 2.53-0.116 3.48 0.077 4.49 0.686 3.58 0.569-0.85 0.852-0.92 0.861-0.21 0.025 2.05 1.592 1.03 1.938-1.26l0.352-2.32 0.126 2.32c0.122 2.24 1.799 3.4 1.826 1.26 0.009-0.73 0.203-0.77 0.632-0.12 0.833 1.24 2.43 1.69 6.263 1.77l3.21 0.05v-5.02zm3.373-0.26c0-3.56-0.294-4.64-1.265-4.64s-1.265 1.08-1.265 4.64 0.294 4.64 1.265 4.64 1.265-1.08 1.265-4.64zm-9.537-10.33c-0.212-0.81-0.386-0.15-0.386 1.47 0 1.63 0.174 2.29 0.386 1.48s0.212-2.14 0-2.95zm3.919 2.95c0.34-0.84 0.439-0.84 0.492 0 0.037 0.58 0.446 1.05 0.91 1.05 0.468 0 0.843-2.24 0.843-5.05 0-4.79-0.111-5.06-2.03-5.06-1.868 0-2.053 0.37-2.319 4.71-0.159 2.59-0.13 4.86 0.063 5.06 0.672 0.66 1.619 0.34 2.041-0.71zm5.618-4.07c0-6.82-1.998-6.52-2.361 0.34-0.205 3.87-0.003 4.78 1.054 4.78 1.037 0 1.307-1.05 1.307-5.12zm-17.948-3.11c-0.192-1.27-0.346-0.03-0.341 2.75 0.005 2.79 0.162 3.82 0.35 2.31 0.187-1.52 0.183-3.79-0.009-5.06zm2.77 2.75c0-2.55-0.379-4.63-0.843-4.63s-0.843 2.08-0.843 4.63 0.379 4.64 0.843 4.64 0.843-2.09 0.843-4.64zm4.216 2.95c0-2.07-1.633-2.26-1.824-0.21-0.075 0.82-0.393-0.61-0.705-3.16l-0.569-4.64-0.137 4.85c-0.123 4.34 0.042 4.85 1.549 4.85 1.124 0 1.686-0.56 1.686-1.69zm0-5.9c0-0.92-0.379-1.68-0.843-1.68s-0.843 0.76-0.843 1.68c0 0.93 0.379 1.69 0.843 1.69s0.843-0.76 0.843-1.69zm2.517-1.05c0.007-0.35-0.367-0.63-0.83-0.63-0.464 0-0.838 0.85-0.831 1.89 0.011 1.54 0.17 1.66 0.831 0.64 0.449-0.7 0.823-1.55 0.83-1.9zm-8.432-3.37c0.031 2.51 1.628 0.76 1.928-2.11l0.331-3.16 0.155 3.37c0.115 2.52 0.361 3.05 0.972 2.11 0.545-0.85 0.821-0.92 0.83-0.21 0.007 0.58 0.392 1.05 0.856 1.05 1.192 0 1.049-2.82-0.211-4.15-0.843-0.9-0.843-1.2 0-1.51 2.403-0.88 0.963-2.57-2.224-2.62-2.996-0.04-3.323 0.18-3.794 2.54-0.284 1.42-0.511 3.38-0.504 4.37 0.011 1.47 0.162 1.56 0.831 0.53 0.545-0.85 0.821-0.92 0.83-0.21zm8.445-1.53c0-1.5-0.351-2.36-0.843-2.06-0.464 0.29-0.844 1.45-0.844 2.58s0.38 2.06 0.844 2.06c0.463 0 0.843-1.16 0.843-2.58zm5.059-1.21c0-3.49-0.172-3.8-2.108-3.8s-2.108 0.31-2.108 3.8c0 3.48 0.172 3.79 2.108 3.79s2.108-0.31 2.108-3.79zm3.373 0c0-2.82-0.328-3.8-1.265-3.8s-1.265 0.98-1.265 3.8c0 2.81 0.328 3.79 1.265 3.79s1.265-0.98 1.265-3.79zm-8.432-2.96c0-0.46-0.38-0.84-0.843-0.84-0.464 0-0.844 0.38-0.844 0.84 0 0.47 0.38 0.85 0.844 0.85 0.463 0 0.843-0.38 0.843-0.85zm8.149-5.42c-0.279-0.73-0.899-1.32-1.377-1.32-0.97 0-1.192 2.77-0.294 3.67 0.926 0.92 2.226-0.9 1.671-2.35zm-13.854 0.01c0.417-0.61 0.624-0.56 0.633 0.14 0.007 0.58 0.582 1.06 1.277 1.06 0.884 0 1.265-0.89 1.265-2.95s-0.381-2.95-1.265-2.95c-0.695 0-1.294 0.66-1.331 1.47-0.04 0.88-0.238 1.05-0.492 0.42-0.753-1.86-1.968-1.12-2.071 1.27l-0.099 2.32-0.644-2.53c-0.643-2.53-0.644-2.53-0.744 0.6-0.084 2.65 0.128 3.05 1.376 2.59 0.812-0.3 1.755-0.95 2.095-1.44zm10.764-0.02c0-2.49-1.406-3.6-1.946-1.53-0.295 1.13-0.411 1.03-0.486-0.41-0.16-3.11-1.784-2.15-1.784 1.05 0 2.59 0.261 2.95 2.108 2.95 1.673 0 2.108-0.42 2.108-2.06zm-17.707-0.05c0-0.69-0.149-1.26-0.331-1.26-0.183 0-0.55 0.57-0.817 1.26-0.267 0.7-0.118 1.27 0.331 1.27s0.817-0.57 0.817-1.27zm12.648-1.68c0-1.63-0.38-2.95-0.843-2.95-0.464 0-0.844 1.32-0.844 2.95 0 1.62 0.38 2.95 0.844 2.95 0.463 0 0.843-1.33 0.843-2.95zm8.432-8.01c0-5.44-0.246-6.75-1.265-6.75-1.011 0-1.265 1.26-1.265 6.26 0 5.71 0.261 6.52 2.319 7.17 0.116 0.03 0.211-2.97 0.211-6.68zm-3.373 1.21c0-2.72-0.288-3.66-0.987-3.23-0.663 0.41-0.81 0.15-0.448-0.8 0.297-0.77 0.171-1.4-0.278-1.4s-0.817-0.76-0.817-1.69c0-0.92-0.379-1.68-0.843-1.68-0.482 0-0.843 2.53-0.843 5.9s0.361 5.9 0.843 5.9c0.464 0 0.843-0.38 0.843-0.84s0.38-0.84 0.844-0.84c0.463 0 0.843 0.57 0.843 1.26 0 0.7 0.189 1.27 0.421 1.27s0.422-1.73 0.422-3.85zm-2.463-0.72c-0.037-0.89 0.163-1.39 0.443-1.11s0.31 1.01 0.066 1.62c-0.269 0.67-0.469 0.47-0.509-0.51zm-10.244 2.25c0.032 0.81 0.439 1.47 0.902 1.47 0.464 0 0.843-1.7 0.843-3.79s0.38-3.8 0.844-3.8c0.463 0 0.843-0.94 0.843-2.1 0-1.69-0.422-2.11-2.108-2.11-1.944 0-2.624 1.13-2.187 3.64 0.066 0.39-0.268 0.46-0.743 0.17-1-0.62-1.059 0.38-0.295 5.01 0.443 2.68 0.677 3.01 1.196 1.68 0.557-1.42 0.654-1.45 0.705-0.17zm5.118 0.53c0-0.66 0.391-0.63 1.265 0.1 1.088 0.9 1.261 0.59 1.235-2.22-0.029-3.13-0.074-3.18-1.126-1.29-1.022 1.85-1.19 1.89-2.5 0.58-1.309-1.31-1.403-1.27-1.403 0.62 0 1.12 0.253 2.28 0.562 2.59 0.875 0.88 1.967 0.66 1.967-0.38zm13.252-8.12c-0.193-1.28-0.351-0.23-0.351 2.32s0.158 3.59 0.351 2.32c0.193-1.28 0.193-3.37 0-4.64zm-10.722-0.45c0-1.33-0.529-1.97-1.687-2.06-0.963-0.07-1.686 0.39-1.686 1.09 0 0.66 0.569 1.21 1.265 1.21 0.695 0 1.265 0.38 1.265 0.84s0.189 0.84 0.421 0.84 0.422-0.86 0.422-1.92zm-1.687-4.82c0-0.93-0.379-1.69-0.843-1.69s-0.843 0.76-0.843 1.69 0.379 1.69 0.843 1.69 0.843-0.76 0.843-1.69zm1.353-0.62c-0.28-0.28-0.479 0.22-0.443 1.11 0.041 0.98 0.24 1.18 0.51 0.51 0.243-0.61 0.213-1.34-0.067-1.62zm1.735-0.44c-0.233-0.57-0.425-0.1-0.425 1.06s0.192 1.63 0.425 1.05c0.234-0.58 0.234-1.53 0-2.11zm8.717 1.48c0-0.79-0.796-1.26-2.108-1.26s-2.108 0.47-2.108 1.26 0.796 1.27 2.108 1.27 2.108-0.48 2.108-1.27zm-19.393-0.82c0-0.75-0.495-1.04-1.26-0.75-0.693 0.26-1.05 0.82-0.794 1.24 0.736 1.19 2.054 0.88 2.054-0.49zm18.089-5.17c0.555-2.96 2.101-7.03 4.285-11.3 0.594-1.15 1.355-3.57 1.69-5.36 0.582-3.1 0.52-3.22-1.291-2.65-1.046 0.33-2.413 0.68-3.038 0.77-2.088 0.31-2.158 1.16-0.384 4.63 1.807 3.54 1.073 4.79-1.04 1.78-1.327-1.9-2.262-1.42-2.35 1.19-0.057 1.69-0.083 1.69-0.705 0.1-0.518-1.32-0.753-0.99-1.196 1.69-0.659 3.99-0.748 10.96-0.133 10.35 0.24-0.24 0.792-2.68 1.226-5.41l0.791-4.98-0.435 6.12c-0.353 4.97-0.207 6.11 0.788 6.11 0.736 0 1.449-1.21 1.792-3.04zm-7.087-15.31c0.582-6.15 1.248-11 1.48-10.77 0.43 0.43-1.26 21.75-2.058 25.96-0.242 1.27-0.085 2.32 0.348 2.32 0.906 0 3.205-27.88 2.459-29.82-0.272-0.71-0.116-9.56 0.346-19.673 0.462-10.114 0.844-18.957 0.848-19.653 0.009-1.697 1.568-15.796 2.097-18.971 0.4-2.406 0.357-2.45-0.884-0.893-0.717 0.9-1.342 2.987-1.388 4.637-0.046 1.651-0.388 3.95-0.759 5.109-0.482 1.504-0.691 0.416-0.731-3.794-0.044-4.595 0.294-6.323 1.526-7.8 0.871-1.043 1.907-1.897 2.302-1.897 0.635 0 3.108-8.488 2.588-8.879-0.113-0.085-1.374-0.376-2.802-0.647l-2.598-0.493-1.543 6.485c-1.619 6.806-1.664 7.08-2.754 16.773-0.648 5.759-1.817 9.144-1.955 5.663-0.04-1.019-0.485-0.525-1.201 1.335-0.714 1.852-0.999 4.991-0.766 8.432 0.233 3.446 0.104 4.866-0.348 3.825-0.673-1.548-0.755-1.519-1.247 0.443-0.29 1.155-0.553 11.007-0.586 21.893-0.032 10.885-0.106 20.365-0.164 21.055-0.058 0.7 0.03 3.35 0.196 5.9 0.213 3.29 0.449 1.81 0.808-5.05l0.506-9.7 0.169 11.73c0.092 6.46 0.312 11.58 0.489 11.39 0.176-0.2 0.591-10.41 0.922-22.7 0.331-12.289 0.756-22.502 0.944-22.696 0.188-0.193 0.342 7.623 0.342 17.366 0 9.75 0.266 20.72 0.591 24.39 0.536 6.04 0.644 6.35 1.177 3.28 0.323-1.85 1.064-8.4 1.646-14.55zm-2.294 1.06c-0.003-3.24 0.146-4.67 0.332-3.18 0.186 1.5 0.19 4.16 0.007 5.91-0.183 1.74-0.335 0.52-0.339-2.73zm1.195-21.076c0.248-7.42 0.753-16.147 1.124-19.393 0.864-7.587 0.054 15.563-0.9 25.719-0.476 5.05-0.541 3.19-0.224-6.326zm-2.962-13.913c0-1.623 0.173-2.287 0.385-1.475 0.213 0.811 0.213 2.139 0 2.951-0.212 0.812-0.385 0.148-0.385-1.476zm-1.816-5.41c-0.036-0.889 0.163-1.387 0.443-1.107s0.31 1.008 0.067 1.616c-0.269 0.673-0.469 0.473-0.51-0.509zm1.62-11.453c0-0.464 0.168-0.844 0.372-0.844 0.205 0 0.606 0.38 0.893 0.844 0.287 0.463 0.119 0.843-0.372 0.843s-0.893-0.38-0.893-0.843zm5.301-2.952c0.006-2.318 0.17-3.167 0.363-1.885 0.194 1.282 0.189 3.179-0.011 4.216s-0.359-0.012-0.352-2.331zm-5.301 0.472c0-0.491 0.38-0.893 0.843-0.893 0.464 0 0.844 0.167 0.844 0.372 0 0.204-0.38 0.606-0.844 0.893-0.463 0.286-0.843 0.119-0.843-0.372zm-4.518 46.112c0.076-14.967-0.14-22.284-0.579-19.692-1.299 7.661-1.441 43.512-0.173 43.512 0.348 0 0.687-10.72 0.752-23.82zm-2.651 9.6c-0.444-1.16-0.613-1.17-1.295-0.09-1.106 1.75-0.997 5.97 0.243 9.34 1.051 2.86 1.055 2.85 1.308-2.53 0.14-2.96 0.025-5.99-0.256-6.72zm-0.446-4.96c0.014-0.58-0.732-1.05-1.66-1.05-1.71 0-2.11 1.28-1.165 3.75 0.468 1.22 0.637 1.2 1.66-0.15 0.626-0.82 1.15-1.97 1.165-2.55zm16.89 0.1c0-0.58-0.379-1.29-0.843-1.58-0.464-0.28-0.843 0.23-0.843 1.15s-0.221 2.36-0.49 3.21c-0.449 1.42-0.378 1.41 0.843-0.09 0.733-0.9 1.333-2.11 1.333-2.69zm-17.353-6.42c-0.226-2.44-0.583-6.06-0.794-8.06-0.213-2.02-0.048-3.418 0.372-3.158 0.414 0.256 0.315-0.471-0.221-1.616l-0.975-2.081-0.579 2.712c-0.318 1.493-0.838 5.093-1.155 8.003-0.526 4.84-0.41 5.44 1.34 6.96 1.054 0.92 2.03 1.66 2.169 1.66s0.068-1.99-0.157-4.42zm25.608 2.53c1.473-1.22 1.067-11.01-1.005-24.246-1.545-9.87-1.929-14.045-2.694-29.301-0.554-11.049-1.141-13.851-2.28-10.883-0.239 0.623-0.711 3.34-1.048 6.037-0.541 4.336-0.453 4.842 0.766 4.374 1.625-0.623 1.87 1.119 0.37 2.62-0.555 0.555-1.297 3.192-1.649 5.86-1.131 8.579-1.73 27.55-0.935 29.637 0.433 1.136 0.474 3.912 0.093 6.332-0.372 2.38-0.384 5.41-0.026 6.75 0.551 2.06 0.832 1.35 1.822-4.65 0.644-3.89 1.196-7.996 1.227-9.117 0.03-1.121 0.587-2.215 1.237-2.432 0.895-0.298 1.034 0.095 0.574 1.617-1.242 4.109-3.018 13.912-3.019 16.662-0.001 2.74 0.094 2.82 2.659 2.31 1.463-0.29 3.222-1 3.908-1.57zm-7.959-20.873c0.293-2.551 0.548-6.155 0.566-8.01 0.022-2.27 0.264-2.959 0.739-2.108 0.761 1.362-0.298 13.343-1.257 14.223-0.319 0.293-0.34-1.554-0.048-4.105zm0.946-12.915c-0.348-0.858-0.208-1.947 0.319-2.474 1.422-1.422 2.195-0.059 1.191 2.101-0.814 1.748-0.938 1.779-1.51 0.373zm29.789 15.276c2.07-2.067 0.94-7.42-1.56-7.42-1.81 0-7.55 3.217-7.55 4.229 0 1.17 4.54 4.148 6.37 4.176 0.95 0.015 2.18-0.429 2.74-0.985zm-4.05-3.044c0-0.453 0.6-1.054 1.34-1.335 0.82-0.316 1.2-0.127 1 0.489-0.42 1.26-2.34 1.954-2.34 0.846zm-11.14 1.429c0.23-1.186-0.13-1.241-2.73-0.427-3.743 1.172-3.898 2.405-0.26 2.053 1.7-0.165 2.83-0.777 2.99-1.626zm18.13 0.098c0.24-0.927 0.1-1.898-0.32-2.158s-0.77 0.499-0.77 1.686c0 2.583 0.48 2.792 1.09 0.472zm-54.207-2.448c0-0.418-1.139-1.158-2.53-1.643-2.941-1.025-3.426 0.027-0.632 1.375 2.404 1.159 3.162 1.223 3.162 0.268zm5.912-7.081c0.759-4.596 0.819-6.844 0.2-7.463-0.971-0.971-1.088-0.686-2.754 6.677-1.001 4.427-0.504 9.551 0.788 8.117 0.373-0.415 1.168-3.714 1.766-7.331zm24.841 5.207c-0.402-1.832-0.294-2.46 0.354-2.059 0.51 0.318 0.93 1.468 0.93 2.557 0 1.569 0.36 1.887 1.7 1.534 2.53-0.66 2.7-1.408 1.65-7.188-1.42-7.757-1.34-7.602-3.32-6.362-1.446 0.901-1.628 1.643-1.2 4.867 0.63 4.706-0.277 4.089-1.359-0.927l-0.797-3.7 0.4 4.123c0.22 2.267 0.4 5.398 0.4 6.956 0 1.559 0.41 2.834 0.911 2.834 0.585 0 0.705-0.954 0.331-2.635zm-40.729-0.126c0.825-1.334-2.483-5.671-4.326-5.671-2.456 0-3.762 6.101-1.508 7.048 1.472 0.618 5.136-0.246 5.834-1.377zm-4.78-1.455c0.287-0.464 0.878-0.843 1.315-0.843 0.436 0 0.793 0.379 0.793 0.843s-0.592 0.843-1.315 0.843-1.08-0.379-0.793-0.843zm8.01 0.843c0-0.464-0.402-0.843-0.893-0.843s-0.658 0.379-0.372 0.843c0.287 0.464 0.689 0.843 0.893 0.843 0.205 0 0.372-0.379 0.372-0.843zm-1.686-2.848c0-0.175-0.578-0.798-1.284-1.384-1.074-0.891-1.197-0.839-0.753 0.318 0.453 1.182 2.037 2.011 2.037 1.066zm42.369-10.37c1.87-1.1 0.19-1.667-2.74-0.924-4.043 1.026-4.618 2.738-0.632 1.884 1.512-0.324 3.022-0.756 3.372-0.96zm16.26-0.309c0.18-0.299-0.04-1.888-0.49-3.531-1.29-4.653-4.99-4.841-8.34-0.422-1.81 2.391 1.02 4.937 5.22 4.689 1.8-0.106 3.42-0.438 3.61-0.736zm-5.51-2.444c0-0.436 0.38-1.028 0.85-1.314 0.46-0.287 0.84 0.07 0.84 0.793s-0.38 1.315-0.84 1.315c-0.47 0-0.85-0.358-0.85-0.794zm-40.949 0.031c-0.433-0.404-1.686-1.007-2.784-1.339-1.468-0.445-1.898-0.309-1.624 0.514 0.205 0.616 1.294 1.353 2.419 1.638 2.332 0.591 3.14 0.261 1.989-0.813zm26.446 0.236c0.474 0.292 1.423 0.318 2.103 0.056 0.95-0.365 1.08-1.162 0.58-3.415-0.37-1.617-0.49-4.06-0.27-5.429 0.4-2.562-0.66-3.202-2.921-1.766-0.809 0.513-0.947 1.907-0.519 5.257 0.321 2.507 0.307 4.303-0.03 3.99s-0.802-2.4-1.034-4.638c-0.53-5.121-1.111-5.835-1.111-1.363 0 4.784 0.936 9.048 1.711 7.795 0.346-0.561 1.017-0.78 1.491-0.487zm8.603 0.553c0-0.449-0.57-0.598-1.27-0.331-0.69 0.267-1.26 0.634-1.26 0.816 0 0.183 0.57 0.332 1.26 0.332 0.7 0 1.27-0.368 1.27-0.817zm-45.951-1.716c1.278-1.413 1.367-2.045 0.545-3.85-0.755-1.658-1.502-2.098-3.211-1.894-3.056 0.366-4.266 2.485-3.001 5.26 1.186 2.604 3.564 2.807 5.667 0.484zm-3.376-1.683c-0.287-0.464 0.07-0.843 0.793-0.843s1.315 0.379 1.315 0.843-0.357 0.843-0.794 0.843c-0.436 0-1.027-0.379-1.314-0.843zm8.01 0.893c0-0.437-0.379-1.028-0.843-1.315-0.464-0.286-0.843 0.071-0.843 0.794s0.379 1.314 0.843 1.314 0.843-0.357 0.843-0.793zm11.492-3.913c0.528-2.281 1.255-4.863 1.614-5.738 0.475-1.156 0.34-1.486-0.495-1.208-0.632 0.211-1.794 2.938-2.582 6.061-0.978 3.877-1.126 5.575-0.465 5.354 0.532-0.177 1.399-2.188 1.928-4.469zm38.055-8.688c0.4-5.155-3.02-6.804-6.47-3.128-1.54 1.642-1.73 2.352-1 3.721 1.06 1.987 2.26 2.54 5.14 2.379 1.76-0.098 2.15-0.585 2.33-2.972zm-4.01-0.097c0-0.464 0.59-0.843 1.31-0.843s1.08 0.379 0.79 0.843c-0.28 0.464-0.87 0.843-1.31 0.843s-0.79-0.379-0.79-0.843zm-10.49 1.246c1.52-1.193 1.39-1.245-1.741-0.741-4.258 0.685-5.87 2.025-2.438 2.025 1.396 0 3.269-0.578 4.179-1.284zm5.43-1.246c0-0.464-0.38-0.843-0.85-0.843-0.46 0-0.84 0.379-0.84 0.843s0.38 0.843 0.84 0.843c0.47 0 0.85-0.379 0.85-0.843zm-29.515-0.864c0-0.712-3.362-2.509-4.693-2.509-1.115 0-0.097 1.559 1.531 2.344 2.461 1.187 3.162 1.224 3.162 0.165zm4.662-5.46c0.465-2.607 0.372-3.157-0.411-2.421-0.556 0.524-1.195 2.611-1.419 4.638-0.505 4.56 0.933 2.819 1.83-2.217zm18.773 0.734c0.25-4.213 0.21-4.3-1.894-3.899-2.275 0.435-2.538 1.424-1.613 6.051 0.37 1.852 0.954 2.595 1.897 2.416 1-0.19 1.43-1.401 1.61-4.568zm-30.74 2.247c0.388-0.375 0.251-0.964-0.305-1.307-0.556-0.344-1.381-0.102-1.833 0.537-0.606 0.856-0.712 0.662-0.405-0.738 0.24-1.095-0.202-2.664-1.042-3.702-1.34-1.654-1.659-1.705-3.927-0.621-5.271 2.519-2.203 8.119 3.855 7.039 1.623-0.289 3.269-0.833 3.657-1.208zm-6.608-1.716c-0.287-0.464 0.283-0.843 1.265-0.843s1.551 0.379 1.265 0.843c-0.287 0.464-0.856 0.843-1.265 0.843s-0.978-0.379-1.265-0.843zm32.199-3.172c-0.211-0.806-0.376 0.052-0.367 1.907 0.01 1.855 0.182 2.515 0.384 1.466s0.194-2.567-0.017-3.373zm3.847-2.719c0.652-0.012 0.922-2.541 0.262-2.541-0.198 0-1.336 0.37-2.525 0.822-2.701 1.027-2.929 2.953-0.266 2.239 1.043-0.28 2.182-0.514 2.529-0.52zm13.732-1.233c3.31-1.385 3.69-3.07 1.24-5.524-1.95-1.945-3.38-2.121-5.16-0.632-2.78 2.333-3.43 3.828-2.46 5.637 1.1 2.059 2.43 2.167 6.38 0.519zm-2.14-2.052c0-0.463 0.38-1.077 0.85-1.364 0.46-0.287 0.84-0.142 0.84 0.322s-0.38 1.078-0.84 1.364c-0.47 0.287-0.85 0.142-0.85-0.322zm-17.789-2.046c-0.072-3.018-0.182-3.226-0.759-1.426-0.983 3.069-0.983 6.088 0 5.481 0.464-0.287 0.805-2.111 0.759-4.055zm11.889 3.683c0-1.144-1.49-1.896-2.03-1.024-0.5 0.815 0.23 1.817 1.33 1.817 0.38 0 0.7-0.357 0.7-0.793zm-24.453-0.758c0-0.735-3.692-2.664-5.098-2.664-1.484 0-0.822 1.42 1.093 2.343 2.337 1.127 4.005 1.261 4.005 0.321zm16.733-9.41c-0.006-2.046-0.04-2.033-1.164 0.422-1.27 2.772-1.6 7.36-0.602 8.366 0.645 0.651 1.777-4.98 1.766-8.788zm-7.885-2.291c4.695-0.262 5.487-0.742 5.487-3.321v-2.292l-2.515 2.409c-2.454 2.351-2.557 2.372-4.222 0.866-0.938-0.849-1.822-1.388-1.964-1.198-0.425 0.569-3.133 12.924-3.033 13.837 0.051 0.464 0.738-1.623 1.528-4.637l1.435-5.481 3.284-0.183zm11.145 5.545c0.1-2.336 0.96-7.811 1.9-12.168 0.94-4.356 1.72-9.98 1.72-12.498 0-4.0758-0.29-4.816-2.6-6.7599-2.476-2.0856-7.522-3.0547-7.522-1.4452 0 0.4058-0.237 1.9236-0.527 3.3728-0.481 2.4083-0.339 2.6353 1.657 2.6353 3.321 0 4.26 2.578 3.509 9.631-0.349 3.282-0.682 9.607-0.74 14.055-0.088 6.806 0.096 8.034 1.161 7.756 0.882-0.231 1.322-1.623 1.442-4.579zm-30.501 0.901c1.069-2.067 1.13-2.841 0.305-3.837-1.348-1.623-4.97-1.16-6.154 0.787-0.763 1.255-0.507 1.893 1.438 3.584 1.301 1.131 2.524 2.057 2.719 2.057 0.194 0 0.955-1.166 1.692-2.591zm-2.983-1.154c0-0.723 0.38-1.315 0.844-1.315 0.463 0 0.843 0.357 0.843 0.794 0 0.436-0.38 1.028-0.843 1.314-0.464 0.287-0.844-0.07-0.844-0.793zm26.615-11.222c3.866-2.459 4.921-4.765 4.119-9.005-0.63-3.332-1.13-3.995-2.776-3.677-1.052 0.203-1.397 1.2-1.397 4.041v3.772l-3.032-0.254c-2.904-0.243-3.036-0.136-3.111 2.515-0.07 2.474 0.991 4.927 2.132 4.927 0.23 0 2.06-1.044 4.065-2.319zm-2.736-8.053c-3.584-4.158-5.39-5.711-6.117-5.261-0.426 0.263-1.97 1.988-3.432 3.833l-2.657 3.355 6.87-0.074 6.87-0.073-1.534-1.78zm-7.839-8.123c-0.394-0.7264-1.888-2.4347-3.319-3.7968l-2.602-2.4765 0.036 7.5353 0.036 7.536 3.283-3.739c2.371-2.701 3.084-4.106 2.566-5.059zm9.093-3.0621l-0.259-3.9008-2.773 3.9469-2.773 3.947 2.773 3.09 2.773 3.091 0.259-3.137c0.141-1.725 0.141-4.8918 0-7.0371zm-4.292-0.9511c1.492-1.719 2.51-3.3274 2.264-3.5741-0.517-0.517-10.675-0.1196-11.234 0.4395-0.4 0.3997 5.013 6.2454 5.791 6.2546 0.257 0.003 1.687-1.401 3.179-3.12z"/>
  <metadata>
    <rdf:RDF>
      <cc:Work>
        <dc:format>image/svg+xml</dc:format>
        <dc:type rdf:resource="http://purl.org/dc/dcmitype/StillImage"/>
        <cc:license rdf:resource="http://creativecommons.org/licenses/publicdomain/"/>
        <dc:publisher>
          <cc:Agent rdf:about="http://openclipart.org/">
            <dc:title>Openclipart</dc:title>
          </cc:Agent>
        </dc:publisher>
        <dc:title>cittern</dc:title>
        <dc:date>2009-03-23T10:07:20</dc:date>
        <dc:description>Source: http://commons.wikimedia.org/wiki/File:Cittern_(PSF).jpg</dc:description>
        <dc:source>http://openclipart.org/detail/22878/cittern-by-papapishu</dc:source>
        <dc:creator>
          <cc:Agent>
            <dc:title>papapishu</dc:title>
          </cc:Agent>
        </dc:creator>
        <dc:subject>
          <rdf:Bag>
            <rdf:li>black and white</rdf:li>
            <rdf:li>clip art</rdf:li>
            <rdf:li>clipart</rdf:li>
            <rdf:li>contour</rdf:li>
            <rdf:li>externalsource</rdf:li>
            <rdf:li>image</rdf:li>
            <rdf:li>line art</rdf:li>
            <rdf:li>media</rdf:li>
            <rdf:li>music</rdf:li>
            <rdf:li>musical instrument</rdf:li>
            <rdf:li>outline</rdf:li>
            <rdf:li>png</rdf:li>
            <rdf:li>psf</rdf:li>
            <rdf:li>public domain</rdf:li>
            <rdf:li>string instrument</rdf:li>
            <rdf:li>svg</rdf:li>
            <rdf:li>wikimedia commons</rdf:li>
          </rdf:Bag>
        </dc:subject>
      </cc:Work>
      <cc:License rdf:about="http://creativecommons.org/licenses/publicdomain/">
        <cc:permits rdf:resource="http://creativecommons.org/ns#Reproduction"/>
        <cc:permits rdf:resource="http://creativecommons.org/ns#Distribution"/>
        <cc:permits rdf:resource="http://creativecommons.org/ns#DerivativeWorks"/>
      </cc:License>
    </rdf:RDF>
  </metadata>
</svg>
