<?xml version="1.0" standalone="no"?>
<!DOCTYPE svg PUBLIC "-//W3C//DTD SVG 20010904//EN"
 "http://www.w3.org/TR/2001/REC-SVG-20010904/DTD/svg10.dtd">
<svg version="1.0" xmlns="http://www.w3.org/2000/svg"
 width="720.000000pt" height="480.000000pt" viewBox="0 0 720.000000 480.000000"
 preserveAspectRatio="xMidYMid meet">
<metadata>
Created by potrace 1.15, written by Peter Selinger 2001-2017
</metadata>
<g transform="translate(0.000000,480.000000) scale(0.100000,-0.100000)"
fill="#000000" stroke="none">
<path d="M2175 4770 c-98 -25 -259 -150 -334 -260 -43 -64 -92 -184 -110 -270
-27 -135 -26 -382 3 -460 4 -10 -10 -24 -39 -43 -57 -36 -112 -127 -160 -264
-31 -89 -37 -121 -45 -247 -8 -134 -11 -148 -39 -198 -17 -30 -31 -63 -31 -74
0 -11 -4 -24 -8 -30 -5 -5 -19 -52 -32 -105 -19 -82 -21 -102 -10 -135 21 -71
32 -83 107 -120 66 -33 80 -36 131 -32 31 3 77 3 102 -1 l44 -6 1 -50 c1 -56
13 -84 60 -136 17 -19 40 -56 51 -82 26 -64 64 -62 64 3 0 10 14 44 31 76 25
47 32 70 31 114 -1 75 -9 177 -16 204 -4 15 1 31 14 46 10 12 21 27 22 32 6
18 66 -20 93 -59 32 -47 34 -114 5 -158 -15 -23 -19 -40 -14 -75 4 -35 -1 -64
-24 -130 -57 -164 -78 -218 -90 -233 -7 -7 -15 -27 -18 -43 -8 -39 17 -61 92
-81 32 -8 67 -21 78 -29 11 -8 33 -14 48 -14 32 0 43 -15 39 -52 -3 -34 23
-75 62 -94 l29 -16 -7 -71 c-4 -40 -10 -76 -14 -82 -8 -12 -6 -110 4 -125 3
-5 -1 -24 -9 -42 -9 -17 -16 -35 -16 -40 0 -19 -46 -106 -77 -144 -46 -57 -63
-112 -62 -202 1 -62 -4 -89 -26 -141 -14 -35 -28 -76 -30 -90 -3 -27 -61 -175
-89 -226 -8 -16 -22 -55 -31 -86 -8 -31 -28 -73 -45 -94 -25 -32 -30 -46 -30
-94 0 -35 6 -65 15 -78 28 -40 145 -58 164 -26 15 28 23 8 12 -31 -18 -67 26
-126 94 -126 13 0 26 -4 29 -9 3 -5 25 -14 50 -20 70 -17 106 1 166 84 27 38
50 72 50 75 0 15 71 50 97 48 42 -3 99 38 124 89 16 34 19 51 13 90 -5 26 -7
51 -6 55 1 4 2 60 3 125 0 98 6 137 30 228 25 91 30 125 28 205 -3 95 -3 95
43 185 24 50 56 110 70 135 14 25 33 74 44 110 19 68 88 198 109 206 6 3 46
-13 87 -36 115 -62 257 -75 296 -27 7 8 10 21 7 29 -5 13 -23 15 -94 12 l-88
-4 -94 48 c-52 26 -102 46 -111 44 -15 -3 -18 7 -20 79 -3 95 -17 110 -46 52
-14 -27 -20 -60 -20 -113 -1 -70 -4 -81 -41 -145 -23 -38 -44 -85 -47 -105 -8
-51 -21 -79 -133 -295 -35 -68 -36 -73 -33 -162 3 -73 -1 -106 -18 -160 -38
-117 -41 -135 -46 -258 -8 -193 -8 -219 0 -236 4 -9 -2 -26 -15 -43 -17 -21
-27 -26 -48 -21 -19 4 -39 -3 -71 -23 l-44 -28 -43 43 c-34 34 -50 43 -78 43
-40 0 -42 8 -16 59 33 65 40 85 51 151 14 75 27 115 50 150 25 36 50 131 45
166 -3 16 -10 52 -17 80 -10 47 -9 55 10 88 12 21 22 50 22 65 0 16 11 54 25
86 30 67 33 84 39 231 5 105 4 113 -19 143 -17 24 -22 42 -19 64 6 36 -24 93
-54 104 -9 4 -33 21 -52 39 -19 18 -45 40 -57 51 -12 10 -25 30 -28 44 -6 23
0 32 38 64 54 45 66 85 43 148 -18 52 -51 166 -65 231 -13 54 -8 64 68 131 19
17 104 100 190 185 114 113 169 177 205 235 27 44 61 92 75 106 14 14 39 42
54 63 33 43 81 66 117 55 14 -4 50 -13 80 -19 30 -6 63 -18 73 -28 25 -22 165
-24 191 -3 15 12 20 11 44 -12 20 -18 42 -27 82 -31 68 -6 216 -16 250 -16 14
0 39 0 55 1 70 0 143 25 215 74 41 27 52 29 120 28 146 -3 195 -1 205 6 5 4
30 9 54 10 25 2 55 10 68 18 13 9 61 22 107 29 46 8 104 22 129 33 49 21 93
17 138 -12 23 -15 27 -15 48 -1 18 13 27 14 52 4 22 -9 36 -10 53 -2 24 11 61
5 172 -30 60 -18 92 -44 127 -100 10 -16 22 -28 28 -28 20 0 89 84 118 145 64
131 136 458 112 504 -15 27 -14 51 2 51 15 -1 57 -35 57 -48 0 -5 13 -26 29
-46 60 -76 69 -159 27 -263 -29 -73 -29 -99 0 -110 12 -4 28 7 56 37 41 48 50
41 18 -12 -11 -18 -20 -42 -20 -53 0 -11 -14 -37 -31 -58 -26 -32 -30 -43 -24
-70 21 -99 20 -101 -93 -218 -103 -107 -112 -124 -111 -212 1 -39 1 -101 1
-135 -1 -52 4 -75 27 -121 27 -52 28 -61 20 -106 -9 -45 -17 -94 -23 -135 -2
-8 -11 -42 -20 -75 -10 -33 -19 -69 -21 -80 -2 -11 -10 -47 -19 -80 -9 -32
-16 -70 -16 -84 0 -13 -5 -38 -11 -55 -10 -28 -7 -41 34 -129 25 -53 61 -116
80 -139 51 -63 88 -136 94 -190 5 -43 0 -58 -65 -190 -39 -79 -83 -174 -97
-213 -15 -38 -35 -86 -45 -105 -29 -57 -42 -144 -40 -278 1 -70 2 -135 1 -144
-1 -23 -39 -44 -54 -29 -20 20 -55 12 -80 -18 -13 -16 -31 -31 -38 -32 -27 -6
-104 23 -138 51 l-33 28 25 34 c14 18 37 57 50 86 14 29 32 61 40 70 9 10 34
58 56 108 50 111 63 211 37 262 -13 25 -18 67 -20 170 -4 146 -21 231 -57 276
-11 14 -18 30 -14 35 3 5 1 12 -5 16 -5 3 -10 15 -10 26 0 10 -6 19 -12 19 -7
0 -25 21 -40 48 -52 92 -82 112 -233 162 -137 45 -183 79 -246 182 -29 49 -56
61 -78 34 -6 -7 -8 -21 -5 -30 4 -10 -1 -25 -11 -37 -14 -15 -26 -18 -52 -13
-26 5 -34 2 -39 -11 -4 -10 -2 -26 4 -36 19 -29 15 -34 -27 -34 -41 0 -91 -34
-91 -62 0 -23 -47 -45 -87 -41 -36 4 -109 -24 -137 -53 -15 -14 -64 -11 -92 8
-21 13 -46 16 -132 14 -59 -2 -120 -2 -137 -1 -80 6 -243 -4 -256 -17 -6 -6
-4 -17 8 -31 21 -26 26 -26 247 -18 131 4 164 2 189 -10 16 -9 39 -13 50 -10
11 3 29 0 40 -6 16 -8 35 -4 91 20 39 17 105 36 146 42 69 9 78 14 110 49 31
35 41 40 95 44 l59 6 62 -59 c34 -33 69 -60 77 -60 8 0 31 -15 49 -33 19 -17
46 -39 59 -48 33 -22 79 -116 79 -159 0 -34 -35 -142 -64 -201 -8 -16 -18 -43
-21 -61 -4 -18 -17 -45 -30 -59 -12 -15 -28 -42 -35 -60 -8 -19 -38 -70 -67
-113 -29 -44 -53 -83 -53 -88 0 -17 -157 -254 -179 -271 -29 -21 -62 -89 -72
-145 -10 -63 -2 -84 38 -101 31 -12 307 -33 330 -24 21 8 33 47 33 107 0 49
22 116 39 116 4 0 12 -5 18 -11 21 -21 98 -1 131 32 24 25 30 41 35 94 3 35
13 81 22 102 9 21 18 43 19 48 1 6 10 27 19 48 9 21 19 54 23 75 6 38 48 112
62 112 5 0 21 18 38 40 29 40 51 53 40 24 -3 -8 2 -30 11 -47 34 -66 6 -192
-73 -322 -19 -32 -43 -77 -54 -99 -10 -23 -46 -70 -79 -106 -82 -89 -123 -173
-138 -282 -7 -51 17 -71 111 -93 63 -15 86 -16 129 -7 28 6 77 16 108 22 78
15 98 39 110 131 5 40 11 74 13 77 3 2 26 5 51 7 36 2 54 9 76 31 33 33 51
106 37 145 -10 25 -5 180 7 259 7 42 16 65 86 218 16 35 29 66 29 69 0 4 26
58 57 121 74 148 79 196 33 302 -17 40 -51 99 -75 131 -24 33 -47 70 -51 82
-3 12 -14 31 -24 42 -32 37 -37 74 -23 173 7 50 19 104 25 120 6 15 12 34 13
42 1 8 10 38 19 65 9 28 22 99 30 159 12 94 12 115 0 149 -8 22 -19 46 -26 54
-6 7 -8 16 -5 20 4 3 2 12 -4 20 -9 9 -8 17 0 27 7 9 8 17 2 20 -9 6 1 49 20
88 5 10 9 33 9 52 0 19 4 38 10 41 5 3 12 28 16 56 5 39 13 55 35 71 15 11 42
41 60 67 18 25 39 49 45 54 9 5 12 32 11 85 -2 69 1 80 24 112 27 35 61 104
74 148 11 40 -14 121 -44 140 -35 22 -38 27 -44 83 -7 56 -24 90 -86 171 -33
43 -55 61 -90 74 -25 10 -51 21 -58 26 -7 6 -20 5 -32 -2 -21 -11 -28 -35 -12
-44 10 -6 24 -105 23 -156 -1 -19 -2 -52 -2 -72 0 -98 -111 -418 -145 -418 -6
0 -25 12 -41 27 -16 15 -69 47 -119 71 l-90 44 -65 -11 c-116 -19 -143 -19
-171 0 -15 11 -43 18 -65 18 -49 -1 -221 -37 -254 -54 -14 -7 -52 -16 -85 -20
-33 -4 -72 -14 -86 -21 -31 -16 -91 -18 -213 -10 -71 5 -94 3 -112 -9 -109
-71 -235 -113 -290 -95 -30 10 -106 17 -224 19 -39 1 -47 5 -63 32 -20 35 -27
35 -146 3 -63 -17 -65 -17 -105 4 -23 12 -53 24 -69 28 -15 3 -30 10 -33 15
-3 5 -36 9 -75 9 -62 0 -69 2 -69 20 0 10 -20 42 -44 69 -24 27 -52 63 -62 80
-22 37 -44 46 -100 42 -53 -3 -99 33 -116 92 -14 51 -25 66 -55 78 l-22 8 35
63 c20 35 46 74 59 88 42 45 57 88 58 166 1 69 -1 76 -28 104 -26 27 -35 30
-65 25 -52 -10 -251 -114 -296 -156 -11 -10 -23 -17 -25 -14 -3 2 -30 11 -60
18 -50 13 -54 17 -59 48 -5 34 5 131 17 159 3 8 7 21 9 27 10 49 49 151 75
195 76 130 179 189 325 187 82 -2 94 3 94 35 0 29 -77 103 -117 112 -15 3 -43
10 -62 14 -73 19 -272 -40 -330 -97 -7 -8 -15 -12 -18 -10 -11 12 30 78 86
139 64 69 73 91 44 106 -28 14 -95 20 -128 12z m55 -56 c0 -3 -20 -30 -44 -59
-30 -37 -51 -77 -65 -124 -14 -44 -27 -72 -39 -75 -9 -4 -50 -42 -91 -86 -73
-78 -75 -80 -121 -80 -70 0 -78 16 -46 85 21 47 29 56 46 51 11 -3 29 -9 40
-12 27 -7 60 4 60 22 0 9 -10 14 -27 14 -16 0 -36 7 -47 15 -18 13 -18 15 2
42 11 15 29 37 41 47 21 19 23 19 57 2 37 -17 78 -13 71 7 -2 7 -13 13 -25 15
-11 2 -26 10 -33 18 -14 17 -3 27 101 86 57 32 120 49 120 32z m303 -165 c20
-5 37 -13 37 -17 -1 -20 -20 -30 -72 -36 -68 -7 -100 -20 -152 -61 -43 -33
-132 -159 -148 -208 -5 -18 -16 -45 -23 -62 -32 -72 -59 -205 -58 -285 0 -19
7 -70 14 -112 11 -68 10 -79 -4 -101 -32 -49 -133 -60 -171 -18 -36 39 -78
137 -83 194 -3 31 -3 57 -1 57 3 0 22 -7 43 -16 48 -20 109 -15 113 9 3 14 -4
17 -41 17 -29 0 -53 7 -70 20 -14 11 -30 20 -36 20 -7 0 -11 25 -11 65 0 36 4
65 9 65 4 0 20 -9 33 -20 40 -31 138 -45 138 -20 0 13 -19 23 -53 26 -17 2
-46 16 -66 31 -20 14 -37 27 -39 29 -2 1 11 27 28 58 l32 56 46 -25 c56 -30
105 -34 100 -7 -2 9 -14 19 -28 21 -30 4 -80 38 -80 55 0 6 20 31 44 55 l44
44 35 -22 c41 -25 97 -29 97 -6 0 8 -8 15 -17 15 -10 1 -29 7 -42 14 -23 13
-23 13 -2 19 12 3 21 13 21 24 0 20 37 43 110 68 24 9 56 23 70 33 21 14 70
26 130 31 8 0 32 -4 53 -10z m104 -642 c13 -9 11 -39 -7 -107 -5 -19 -28 -57
-51 -85 -22 -27 -47 -62 -55 -78 -26 -48 -54 -72 -96 -76 -3 -1 -20 -13 -37
-27 -57 -48 -30 -103 33 -65 47 29 93 35 120 18 13 -9 34 -39 48 -69 14 -29
37 -64 52 -77 42 -40 43 -78 3 -158 -19 -38 -38 -84 -42 -102 -4 -18 -20 -61
-35 -95 -15 -33 -30 -68 -34 -76 -18 -47 -112 -178 -155 -218 -49 -44 -135
-102 -152 -102 -9 0 -20 19 -27 47 -14 51 -89 147 -123 158 -35 11 -22 26 72
79 27 15 87 85 108 124 27 50 42 121 31 142 -23 43 -59 10 -86 -79 -14 -48
-38 -75 -156 -173 -29 -23 -56 -60 -77 -102 -18 -36 -38 -69 -45 -73 -7 -5
-18 -18 -24 -30 -15 -28 -100 -85 -107 -72 -4 5 -17 9 -31 9 -26 0 -31 9 -12
28 12 12 35 70 47 117 5 22 15 32 39 39 53 15 41 39 -29 60 -69 21 -96 12 -65
-23 17 -19 17 -23 -5 -93 -29 -95 -47 -114 -115 -123 -91 -11 -116 9 -74 62
25 32 25 49 3 58 -13 4 -28 -4 -51 -29 -18 -20 -37 -36 -42 -36 -13 0 -13 81
0 116 6 15 20 62 31 103 11 42 29 92 39 113 31 59 41 113 46 238 5 138 37 252
99 357 30 50 45 65 83 81 73 31 84 31 100 -3 53 -112 181 -154 278 -90 37 24
69 93 65 143 -3 45 9 54 43 29 18 -13 18 -15 2 -39 -27 -41 -37 -87 -23 -109
17 -27 36 -24 43 9 23 94 84 171 164 208 33 15 53 25 128 64 39 19 62 21 79 7z
m173 -642 c12 -19 34 -48 50 -65 28 -30 28 -31 13 -68 -8 -20 -18 -39 -22 -42
-4 -3 -24 -36 -45 -75 -69 -126 -142 -218 -279 -350 -193 -187 -256 -240 -263
-222 -3 9 2 29 10 46 9 16 16 37 16 45 0 8 14 25 32 38 60 44 175 166 207 219
17 30 36 61 41 69 21 33 60 124 80 188 12 37 26 72 31 78 5 6 19 40 30 75 37
116 59 129 99 64z m-878 -680 c-10 -16 -3 -65 12 -88 19 -30 13 -66 -20 -124
-15 -26 -29 -50 -31 -52 -4 -5 -17 13 -65 82 -21 30 -28 51 -27 86 1 66 11 94
34 96 11 1 36 11 55 23 32 20 35 20 41 4 4 -9 4 -21 1 -27z m265 -427 c-3
-153 -8 -174 -40 -151 -7 5 -32 16 -57 23 -25 8 -46 14 -48 15 -1 1 16 45 38
98 22 53 40 102 40 107 0 6 7 26 15 46 13 31 17 34 34 24 19 -10 20 -19 18
-162z m68 114 c5 -37 39 -156 57 -201 7 -19 5 -30 -10 -50 -51 -68 -74 -10
-70 173 3 121 12 153 23 78z m2285 -452 c0 -6 19 -31 43 -57 43 -47 165 -112
238 -128 19 -4 41 -13 49 -20 8 -7 26 -15 40 -19 24 -6 59 -45 101 -111 10
-16 23 -37 28 -45 6 -8 22 -40 37 -70 33 -70 49 -212 26 -247 -8 -13 -18 -23
-21 -23 -4 0 -22 -22 -40 -50 -18 -27 -40 -55 -50 -62 -30 -23 -59 -73 -72
-124 -6 -27 -16 -54 -20 -60 -22 -28 -82 -195 -88 -244 -6 -51 -8 -55 -34 -58
-16 -2 -35 2 -43 9 -12 9 -23 9 -52 0 -34 -12 -42 -11 -73 8 -22 13 -51 21
-81 21 -56 0 -59 9 -23 62 14 21 46 77 72 125 25 49 56 102 69 118 28 39 117
218 134 270 7 22 27 71 45 108 33 67 46 140 31 166 -4 7 -5 15 -2 18 3 4 -5
21 -19 39 -14 18 -25 39 -25 47 0 9 -29 39 -65 67 -36 29 -70 61 -76 71 -5 10
-18 19 -29 19 -11 0 -44 22 -74 49 -29 27 -62 53 -71 58 -16 10 -16 12 6 42
23 31 39 40 39 21z m-2142 -162 c7 -7 12 -30 12 -52 0 -23 8 -55 18 -71 29
-48 22 -223 -13 -335 -15 -47 -31 -94 -36 -105 -35 -78 -39 -105 -24 -168 16
-71 7 -131 -27 -179 -23 -32 -47 -104 -54 -158 -7 -60 -14 -82 -51 -157 l-35
-73 -30 23 c-72 55 -93 67 -115 67 -19 0 -23 4 -19 18 3 9 8 31 12 47 4 17 20
58 36 93 16 34 42 106 59 160 17 53 41 120 54 147 21 43 24 64 22 142 -2 88
-1 92 29 129 80 101 129 217 118 283 -7 42 13 201 25 201 4 0 12 -5 19 -12z
m2151 -1168 c19 -5 42 -17 52 -26 17 -16 18 -19 4 -40 -8 -13 -15 -46 -15 -74
l0 -50 -60 0 c-68 0 -79 10 -61 60 22 64 -18 84 -45 23 -9 -21 -17 -47 -18
-58 -1 -24 -47 -33 -64 -12 -16 19 7 75 57 139 32 42 40 47 76 48 22 0 55 -4
74 -10z m-2468 -112 c22 -12 39 -25 39 -30 0 -5 9 -12 19 -16 19 -7 19 -7 0
-31 -17 -20 -23 -22 -42 -13 -49 24 -68 24 -92 2 -34 -32 -55 -20 -55 29 0 31
6 44 26 60 34 27 57 26 105 -1z m2939 -63 c36 -33 64 -45 104 -45 19 0 37 -3
39 -7 2 -5 2 -30 -1 -56 -5 -56 -13 -61 -110 -70 l-63 -5 3 61 c2 50 0 62 -14
65 -11 2 -20 -8 -27 -31 -7 -19 -11 -39 -10 -43 6 -35 -2 -44 -39 -44 -21 0
-41 2 -44 5 -10 11 54 170 76 187 25 20 51 15 86 -17z m-2746 -14 c3 -5 15 -7
26 -4 22 6 80 -48 80 -73 0 -27 -81 -134 -101 -134 -28 0 -32 20 -14 63 28 66
-12 82 -45 18 -11 -22 -24 -42 -29 -45 -15 -10 -61 12 -61 29 0 22 107 155
125 155 8 0 16 -4 19 -9z"/>
<path d="M2503 3810 c-12 -5 -26 -18 -32 -28 -6 -11 -31 -32 -55 -46 -34 -20
-48 -37 -61 -70 -27 -70 1 -90 29 -21 9 20 28 40 48 50 18 9 45 31 60 48 15
18 28 27 28 21 0 -6 -7 -17 -15 -24 -8 -7 -15 -18 -15 -25 0 -7 -12 -25 -26
-40 -24 -26 -24 -29 -9 -44 15 -15 17 -14 31 4 9 11 29 46 45 78 43 84 32 121
-28 97z"/>
<path d="M1987 3456 c-5 -11 -18 -13 -60 -9 -59 6 -108 -12 -127 -46 -16 -31
-13 -126 5 -141 8 -7 15 -21 15 -31 0 -23 18 -35 33 -20 6 6 29 11 50 11 32 0
46 7 78 39 42 41 49 74 29 127 -8 19 -8 30 0 38 15 15 12 46 -4 46 -8 0 -16
-6 -19 -14z"/>
</g>
</svg>
