<?xml version="1.0"?>
<svg xmlns:rdf="http://www.w3.org/1999/02/22-rdf-syntax-ns#" xmlns="http://www.w3.org/2000/svg" xmlns:cc="http://creativecommons.org/ns#" xmlns:dc="http://purl.org/dc/elements/1.1/" xmlns:svg="http://www.w3.org/2000/svg" id="svg1332" viewBox="0 0 605.9 938.16" version="1.0">
  <g id="layer1" transform="translate(-66.619 -66.688)">
    <path id="path2355" fill="#030303" d="m516.16 1002.5c-8.51-2-29.54-11.16-49.13-21.33-18.83-9.78-38.72-19.95-44.19-22.59-5.46-2.64-9.92-5.86-9.9-7.14 0.02-1.29 3.63-21.29 8.02-44.45l7.98-42.11-7.31-12.23c-9.91-16.58-27.67-38.2-30.13-36.69-1.1 0.68-2.02 5.65-2.04 11.04-0.08 14.16-7.79 46.95-16.1 68.44-29.94 77.44-100 113.46-169.77 87.4-27.5-10.29-50.48-33.35-65.4-65.65-17.09-36.97-22.44-79.45-15.44-122.49 3.52-21.69 16.43-53.68 31.96-79.19l12.6-20.7-8.06-17.9c-19.74-43.79-34.41-95.91-38.81-137.89-2.44-23.25-8.75-37.04-30.748-67.21-8.425-11.55-17.052-26.2-19.171-32.54-7.112-21.27-4.577-56.49 8.23-114.3 4.703-21.23 4.806-23.46 1.411-30.58-5.965-12.51-9.617-41.79-8.15-65.35 1.467-23.55 6.1-39.53 13.854-47.79 4.722-5.02 4.847-6.18 2.208-20.5-3.016-16.37-1.874-25.64 3.992-32.38 2.731-3.14 3.733-9.34 3.78-23.39 0.077-23.068 5.184-32.525 19.944-36.948 12.63-3.785 20.62-0.017 36 16.975 6.83 7.542 13.21 13.713 14.19 13.713s3.85-2.632 6.38-5.849c9.65-12.272 31.8-4.757 54.65 18.549 17.57 17.91 41.01 38.47 71.34 62.57 25.02 19.86 35.09 30.44 42.12 44.22 6.11 11.98 10.44 13.63 16.26 6.23 8.75-11.13 30.3-17.31 36.99-10.62 1.54 1.54 2.8 5.85 2.8 9.57 0 14.18 10.01 55.22 18.85 77.33 5.07 12.67 16.57 36.04 25.57 51.93 30.33 53.56 36.7 71.34 39.7 110.81 1.23 16.22 4.33 36.32 6.88 44.68 8.54 28 14.28 53.31 20.25 89.35 3.26 19.68 6.92 39.52 8.13 44.09 2.44 9.2 11.06 18.35 22.98 24.37 7.5 3.78 8.34 3.74 19.15-0.91 14.56-6.26 31.49-6.21 48.52 0.14 7.36 2.74 20.76 7.48 29.76 10.52 9.01 3.04 20.84 7.2 26.3 9.23l9.91 3.69-8.27 8.59c-10.6 11-31.12 41.72-40.78 61.03-23.63 47.26-43.82 114.12-66.57 220.36-2.09 9.79-5.08 19.41-6.65 21.37-4.31 5.43-17.56 6.43-34.09 2.53zm-225.85-134.17c22.25-11.2 46.95-35.84 56.58-56.4 11.94-25.52 11.72-26.44-10.02-41.15-61.21-41.42-112.23-124.02-129.85-210.23-2.61-12.75-6.36-28.82-8.34-35.69-3.41-11.84-3.94-12.43-9.91-10.98-3.47 0.84-11.81 5.15-18.55 9.58-6.73 4.43-12.79 8.05-13.45 8.05-3.04 0-0.59-7.07 6.08-17.59l7.29-11.5-9.83-19.96c-5.41-10.98-14.48-28.07-20.16-37.99-10.54-18.4-17.34-38.99-17.34-52.51 0-13.9 4.13-10.32 10.54 9.14 9.03 27.45 45.45 95.27 51.16 95.3 5.99 0.03 4.11-8.64-6.98-32.12-11.38-24.1-66.58-173.09-69.91-188.69-2.49-11.7-5.48-3.77-10.468 27.85-2.639 16.71-6.292 37.23-8.117 45.6-6.016 27.56-8.568 58.56-6.288 76.39 1.808 14.13 3.594 18.67 11.518 29.24 24.275 32.37 32.495 52.37 36.875 89.65 1.82 15.47 5.47 36.03 8.1 45.68 11.53 42.23 38.24 102.19 54.21 121.65 16.3 19.88 21.21 31.22 22.44 51.79 0.98 16.33 0.49 18.94-5.65 30.22-12.03 22.1-7.88 53.89 9.2 70.47 11.3 10.96 19.31 13.59 39.29 12.88 12.28-0.44 18.75-2.21 31.58-8.68zm149.72-48.02c10.73-37.31 41.75-89.77 72.22-122.17 9.69-10.3 17.62-19.33 17.62-20.06s-4.77-4.12-10.61-7.54c-12.43-7.29-17.46-15.73-17.46-29.28 0-12.03-7.87-58.3-13.69-80.51-2.36-9-8.27-26.3-13.14-38.44-8.25-20.6-8.92-24.11-10.03-52.64-1.6-41.48-7.56-57.87-43.41-119.26-5.94-10.18-13.88-27.03-17.65-37.43-7.76-21.48-16.71-62.07-16.71-75.81 0-16.28-9.04-17.62-25.5-3.78-9.12 7.68-9.03 8.86 3.43 42.42 9.54 25.74 30.45 68.6 45.26 92.78 5.4 8.83 9.42 16.46 8.93 16.95-2.26 2.26-21.17-17.11-30.57-31.31-17.46-26.35-26.45-44.81-36.68-75.38-17.38-51.93-25.9-63.41-81.85-110.23-14.79-12.39-37.68-32.65-50.85-45.04s-25.59-22.52-27.6-22.52c-6.16 0-17.46 6.93-17.46 10.71 0 9.59 27.42 44.01 66.03 82.87 45.63 45.93 58.49 64.27 77.69 110.82 11.97 29.03 25.15 52.22 40.14 70.62 10.72 13.17 9.66 16.14-3.38 9.4-12.29-6.36-26.17-24.54-38.18-50-41.46-87.93-48.45-98.49-93.12-140.71-29.36-27.76-35.8-35.3-55.24-64.73-24.18-36.598-35.13-47.696-47.06-47.696-10.04 0-14.77 7.362-16.42 25.526-1.26 13.92-1.23 14.01 5.48 15.45 25.32 5.47 32.93 12.15 53.29 46.81 12.6 21.43 25.14 38.33 51.49 69.38 35.09 41.34 43.53 57.67 65.65 126.95 13.78 43.14 14.1 44.39 10.82 42.37-4.72-2.92-18.16-30.31-32.2-65.64-16.94-42.61-29.48-62.86-60.12-97.09-22.58-25.23-30.48-36.16-49.37-68.39-14.37-24.53-22.05-32.55-35.31-36.93-12.26-4.05-14.33-1.05-10.97 15.84 4.03 20.23 6.32 56.73 3.55 56.73-1.28 0-4.43-5.53-6.99-12.28-2.569-6.76-6.107-12.28-7.864-12.28-5.711 0-9.376 23.49-8.395 53.8 1.007 31.11 2.572 37.96 7.703 33.7 1.78-1.48 3.236-3.97 3.236-5.55 0-1.57 2.105-4.76 4.679-7.09 3.221-2.92 4.681-7.22 4.691-13.82 0.02-13.63 4.14-26.67 9.29-29.43 7.26-3.89 17.57-2.71 26.03 2.97 11.77 7.92 42.25 62.19 59.59 106.14 5 12.67 17.8 40.76 28.44 62.42s19.34 40.37 19.34 41.58c0 4.71-11.24-5.55-22.64-20.66-14.97-19.85-26.58-42.96-34.45-68.55-3.35-10.9-10.56-27.79-16.03-37.52-5.46-9.73-16.24-28.92-23.96-42.65-14.34-25.51-19.5-29.83-24.49-20.52-3.89 7.27-3 13.87 8.13 60.27 8.75 36.46 15 55.2 36.53 109.49 34.78 87.7 42.83 110.58 53.73 152.67 10.12 39.14 14.15 50.51 26.94 75.97 25.76 51.28 68.28 100.48 108 124.96 9.94 6.12 22.46 14.66 27.82 18.96 9.42 7.57 34.54 38.23 40.36 49.26 1.57 2.98 4 5.03 5.4 4.56s4.95-9.22 7.89-19.44z"/>
  </g>
  <metadata>
    <rdf:RDF>
      <cc:Work>
        <dc:format>image/svg+xml</dc:format>
        <dc:type rdf:resource="http://purl.org/dc/dcmitype/StillImage"/>
        <cc:license rdf:resource="http://creativecommons.org/licenses/publicdomain/"/>
        <dc:publisher>
          <cc:Agent rdf:about="http://openclipart.org/">
            <dc:title>Openclipart</dc:title>
          </cc:Agent>
        </dc:publisher>
        <dc:title>praying hands</dc:title>
        <dc:date>2008-02-05T05:19:57</dc:date>
        <dc:description>art, black and white, body part, christianity, clip art, clipart, hand, line art, outline, pray, prayer, religion, </dc:description>
        <dc:source>http://openclipart.org/detail/12800/praying-hands-by-anonymous</dc:source>
        <dc:creator>
          <cc:Agent>
            <dc:title>Anonymous</dc:title>
          </cc:Agent>
        </dc:creator>
        <dc:subject>
          <rdf:Bag>
            <rdf:li>art</rdf:li>
            <rdf:li>black and white</rdf:li>
            <rdf:li>body part</rdf:li>
            <rdf:li>christianity</rdf:li>
            <rdf:li>clip art</rdf:li>
            <rdf:li>clipart</rdf:li>
            <rdf:li>hand</rdf:li>
            <rdf:li>line art</rdf:li>
            <rdf:li>outline</rdf:li>
            <rdf:li>pray</rdf:li>
            <rdf:li>prayer</rdf:li>
            <rdf:li>religion</rdf:li>
          </rdf:Bag>
        </dc:subject>
      </cc:Work>
      <cc:License rdf:about="http://creativecommons.org/licenses/publicdomain/">
        <cc:permits rdf:resource="http://creativecommons.org/ns#Reproduction"/>
        <cc:permits rdf:resource="http://creativecommons.org/ns#Distribution"/>
        <cc:permits rdf:resource="http://creativecommons.org/ns#DerivativeWorks"/>
      </cc:License>
    </rdf:RDF>
  </metadata>
</svg>
