<?xml version="1.0" standalone="no"?>
<!DOCTYPE svg PUBLIC "-//W3C//DTD SVG 20010904//EN"
 "http://www.w3.org/TR/2001/REC-SVG-20010904/DTD/svg10.dtd">
<svg version="1.0" xmlns="http://www.w3.org/2000/svg"
 width="600.000000pt" height="600.000000pt" viewBox="0 0 600.000000 600.000000"
 preserveAspectRatio="xMidYMid meet">
<metadata>
Created by potrace 1.15, written by Peter Selinger 2001-2017
</metadata>
<g transform="translate(0.000000,600.000000) scale(0.100000,-0.100000)"
fill="#000000" stroke="none">
<path d="M4110 5863 c-14 -9 -36 -27 -50 -39 -18 -17 -29 -20 -40 -14 -37 24
-124 5 -173 -38 -14 -12 -22 -13 -43 -4 -48 22 -112 12 -149 -23 -6 -5 -16
-22 -23 -38 -9 -22 -16 -26 -36 -21 -36 9 -99 -12 -128 -43 -55 -57 -73 -148
-43 -207 15 -28 15 -29 -51 -99 -112 -118 -185 -247 -223 -392 -26 -99 -2
-332 49 -473 25 -69 -7 -174 -84 -275 -20 -26 -36 -49 -36 -51 0 -3 -26 -44
-58 -93 -32 -48 -61 -96 -65 -105 -3 -10 -21 -19 -44 -23 -164 -25 -220 -51
-252 -118 l-21 -44 -83 -7 c-45 -3 -143 -11 -217 -17 -153 -12 -297 -37 -385
-68 -90 -32 -89 -32 -228 61 -115 76 -178 97 -212 68 -18 -15 -21 -110 -3
-128 16 -16 8 -22 -37 -25 -34 -2 -40 2 -62 38 -13 22 -26 47 -30 55 -10 23
-132 217 -175 279 -63 90 -187 218 -293 302 -55 44 -105 84 -112 89 -28 23
-164 89 -222 108 -79 27 -158 28 -187 4 -49 -39 -69 -116 -48 -180 19 -53 15
-66 -28 -88 -46 -24 -75 -59 -109 -131 -40 -87 -40 -158 1 -240 26 -51 28 -64
20 -94 -25 -87 1 -203 60 -269 l36 -39 -10 -71 c-19 -138 25 -293 107 -383 24
-25 39 -54 46 -87 6 -27 21 -71 33 -97 31 -66 122 -156 175 -171 27 -8 58 -29
88 -61 26 -27 67 -60 91 -73 24 -13 44 -25 44 -28 0 -4 -17 -12 -37 -19 -21
-8 -50 -24 -65 -37 -19 -15 -47 -25 -85 -29 -114 -12 -183 -44 -183 -86 0 -11
4 -17 10 -14 32 20 134 35 235 35 66 0 115 4 115 9 0 6 -10 17 -22 26 -22 15
-22 17 -5 30 29 21 172 29 288 15 140 -16 141 -16 146 -5 2 6 -6 21 -18 34
-11 12 -18 25 -15 28 6 6 125 -12 133 -20 2 -2 -10 -19 -27 -37 -34 -37 -39
-75 -11 -89 10 -6 44 -13 74 -17 l55 -7 -15 -41 c-9 -26 -12 -58 -9 -86 l6
-46 -92 -28 c-115 -35 -170 -71 -192 -126 -21 -53 -20 -67 7 -118 48 -90 164
-151 303 -160 l80 -4 13 -45 c16 -62 80 -126 162 -161 60 -25 73 -27 209 -27
159 0 246 17 327 62 47 26 44 28 63 -44 16 -65 114 -142 220 -171 40 -12 155
-30 185 -30 99 1 267 35 339 69 80 39 123 73 158 128 28 43 29 51 25 118 l-5
71 95 31 96 30 36 -27 c80 -61 144 -89 261 -113 91 -19 308 -16 390 5 149 38
264 118 306 213 17 37 30 54 46 57 232 46 333 105 364 214 15 52 15 59 -1 110
-22 72 -91 143 -158 162 -26 8 -47 18 -47 22 0 5 13 35 30 68 43 86 78 196 86
273 6 56 10 67 25 67 21 0 21 -1 23 115 2 115 27 148 143 187 91 30 273 22
273 -12 0 -6 -29 -10 -70 -10 -56 0 -70 -3 -70 -15 0 -11 13 -15 54 -15 83 0
296 -55 296 -76 0 -4 -49 -3 -109 0 -71 5 -111 4 -115 -3 -10 -16 28 -31 80
-31 47 0 271 -55 289 -71 12 -12 42 -11 49 0 8 13 -25 46 -61 62 -18 7 -33 17
-33 21 0 3 -11 20 -25 36 -29 34 -88 64 -162 82 -40 9 -56 18 -65 38 -10 20
-26 29 -68 38 -108 26 -238 15 -323 -26 -22 -11 -42 -20 -44 -20 -2 0 -3 17
-3 38 0 42 -26 246 -39 307 -53 249 -138 408 -309 578 -80 79 -109 116 -146
187 -25 48 -46 96 -46 107 0 34 28 48 85 45 70 -5 118 23 140 83 16 40 16 47
1 93 -9 27 -28 60 -42 73 l-26 24 74 7 c40 3 142 10 226 14 107 5 155 11 163
20 20 25 -1 67 -67 131 -67 64 -192 136 -259 149 -33 6 -35 8 -35 49 0 52 -42
105 -84 105 -21 0 -30 9 -49 48 -59 119 -144 213 -256 282 -12 7 -9 18 14 67
44 93 55 132 55 197 0 70 -15 133 -38 159 -19 22 -78 22 -112 0z m100 -69 c14
-35 13 -134 -2 -175 -6 -19 -29 -58 -51 -86 -41 -55 -60 -63 -109 -44 -14 5
-64 14 -114 20 -110 13 -234 1 -352 -35 -45 -14 -87 -22 -92 -19 -6 3 -10 26
-10 50 0 35 6 52 31 79 38 44 61 51 101 32 54 -27 66 -22 83 39 20 68 41 77
95 41 22 -14 46 -26 54 -26 9 0 33 18 55 40 44 45 52 46 115 25 54 -19 66 -14
111 41 41 50 71 57 85 18z m-229 -348 c79 -16 162 -40 191 -56 10 -6 24 -10
31 -10 26 0 147 -121 183 -183 47 -80 52 -114 24 -150 -12 -15 -27 -27 -34
-27 -16 0 -49 -37 -64 -73 -25 -59 -10 -181 31 -241 l20 -29 -23 -17 c-21 -16
-103 -40 -136 -40 -8 0 -35 -10 -59 -21 -36 -17 -43 -24 -34 -35 27 -33 134
-25 221 18 51 25 68 23 110 -12 43 -36 60 -92 36 -117 -33 -32 -138 -25 -138
10 0 18 -37 38 -56 30 -13 -5 -15 -15 -10 -50 9 -65 -5 -83 -62 -83 -36 0 -60
8 -105 36 -54 33 -60 35 -75 21 -21 -21 -5 -56 40 -90 44 -32 90 -47 148 -47
47 0 48 0 68 -47 30 -70 114 -185 202 -277 73 -77 107 -130 191 -296 30 -60
71 -217 89 -345 13 -88 9 -193 -11 -327 -13 -90 -27 -109 -49 -68 -16 31 -62
25 -143 -19 -78 -42 -123 -56 -131 -42 -3 5 -2 29 3 54 13 72 5 76 -91 44 -46
-15 -94 -29 -108 -30 -24 -2 -25 0 -22 43 2 24 10 57 18 73 28 53 -10 62 -92
23 -108 -52 -144 -53 -144 -2 -1 45 -49 73 -78 44 -19 -19 -42 9 -42 52 0 115
-66 147 -153 74 l-31 -26 -17 23 c-21 28 -32 89 -23 126 10 39 -14 52 -86 46
-72 -7 -85 9 -49 58 22 31 22 32 3 46 -12 9 -30 12 -49 8 -87 -17 -131 -17
-144 -1 -12 14 -11 19 2 34 9 10 13 27 10 44 -7 37 -55 46 -122 24 -70 -23
-72 -22 -65 23 9 58 -21 74 -148 79 -54 3 -98 6 -98 9 0 2 4 13 10 23 7 14 6
23 -7 35 -14 14 -28 16 -79 11 -69 -7 -94 7 -47 25 15 6 69 22 118 36 68 18
95 30 112 51 13 15 23 30 23 34 0 4 32 54 70 113 39 58 87 136 106 173 20 37
43 75 52 85 21 23 27 119 14 212 -46 327 -46 333 -35 412 20 134 80 249 181
347 157 153 332 204 553 162z m519 -406 c22 -22 27 -69 9 -87 -15 -15 23 -38
75 -48 55 -9 118 -40 163 -81 l38 -34 -45 6 c-25 3 -58 10 -74 15 -60 19 -196
4 -196 -22 0 -16 41 -30 108 -35 108 -8 152 -15 152 -23 0 -4 -59 -14 -130
-21 -157 -16 -185 -8 -221 61 -28 56 -24 146 9 187 13 15 29 41 36 57 24 52
43 58 76 25z m-3936 -605 c133 -48 247 -119 351 -218 11 -10 35 -31 54 -45 53
-42 188 -198 254 -296 86 -128 190 -346 174 -363 -4 -3 -26 16 -49 43 -106
124 -336 340 -478 449 -143 110 -388 275 -410 275 -22 0 -40 47 -40 106 0 33
3 64 7 67 13 14 70 6 137 -18z m-68 -251 c32 -26 94 -69 138 -96 119 -73 154
-102 356 -287 170 -156 263 -252 314 -321 26 -34 46 -65 46 -70 0 -12 -111
-34 -125 -24 -7 5 -64 48 -127 95 -241 182 -460 300 -683 366 -110 33 -120 38
-137 73 -26 53 -24 153 5 194 37 55 111 112 149 115 4 1 33 -20 64 -45z m-116
-387 c14 -7 63 -28 110 -47 125 -50 302 -143 410 -215 94 -63 200 -150 200
-164 0 -4 -31 -22 -69 -40 l-68 -34 -99 50 c-97 48 -275 122 -344 142 -19 5
-55 15 -79 21 -92 24 -142 94 -142 200 -1 92 23 117 81 87z m1284 -109 c27
-16 76 -48 110 -71 69 -47 103 -51 197 -22 140 42 363 76 614 95 94 7 174 18
193 27 39 17 62 12 56 -14 -10 -42 8 -48 142 -45 l126 3 -6 -26 c-3 -14 -9
-36 -12 -50 -14 -55 31 -68 116 -35 28 11 62 20 76 20 l25 0 -22 -29 c-16 -23
-19 -33 -10 -48 18 -34 56 -52 117 -55 57 -3 59 -4 59 -32 1 -42 45 -76 99
-76 43 0 43 -1 48 -38 7 -51 56 -149 86 -173 39 -31 59 -24 84 28 13 25 28 46
33 45 6 0 14 -15 18 -34 31 -123 46 -144 102 -135 31 5 37 3 45 -18 19 -50 77
-55 167 -14 71 32 75 27 42 -52 -17 -40 -19 -52 -9 -64 16 -20 99 -20 164 0
68 21 68 20 61 -29 l-7 -43 37 -7 c49 -10 81 -1 172 44 42 21 82 36 89 33 24
-9 31 -47 23 -112 -37 -267 -208 -507 -444 -620 -135 -65 -174 -74 -338 -77
-160 -3 -163 -4 -242 -76 -51 -45 -135 -101 -220 -145 -70 -36 -117 -54 -241
-93 -128 -41 -642 -67 -799 -40 -163 28 -199 46 -300 155 -40 43 -71 67 -91
71 -24 4 -35 15 -48 45 -12 26 -26 41 -43 45 -32 8 -49 -11 -58 -67 -4 -21
-10 -41 -15 -44 -18 -11 -52 13 -73 50 -34 59 -58 54 -80 -17 -10 -32 -24 -58
-31 -58 -43 0 -53 142 -16 227 12 29 20 59 16 68 -8 21 -36 19 -61 -5 -12 -12
-38 -23 -57 -26 -32 -6 -36 -4 -42 21 -12 48 4 94 43 123 43 32 60 52 61 71 0
13 -17 13 -110 0 -8 -1 -36 -1 -62 -1 -59 2 -56 19 11 61 46 28 119 49 191 54
30 2 35 6 35 27 0 21 -8 28 -50 42 -43 14 -47 18 -27 23 12 4 22 10 22 14 -1
29 -52 51 -119 51 -57 0 -87 -25 -76 -61 7 -21 6 -22 -42 -15 -28 3 -126 11
-219 17 -208 13 -291 22 -326 37 -29 12 -73 72 -60 83 4 4 34 15 67 25 49 16
92 19 240 19 186 0 269 -11 352 -46 26 -11 65 -18 100 -17 46 1 72 -6 126 -30
37 -18 73 -32 79 -32 6 0 37 -9 67 -20 31 -10 81 -26 111 -34 30 -8 98 -27
150 -41 90 -25 204 -55 420 -111 165 -43 241 -54 370 -54 258 0 474 74 619
213 113 109 156 215 156 387 0 106 -3 119 -28 170 -26 51 -51 80 -68 80 -3 0
-2 -21 3 -47 38 -203 2 -408 -90 -507 -44 -46 -129 -106 -190 -132 -31 -14
-66 -29 -77 -33 -76 -34 -197 -52 -348 -52 -242 0 -432 51 -600 164 -113 75
-273 244 -291 307 -50 172 -55 203 -35 254 9 25 38 73 63 107 50 66 53 86 15
81 -41 -4 -68 -24 -100 -74 -49 -76 -70 -155 -59 -224 25 -151 111 -304 234
-416 28 -25 49 -49 46 -52 -3 -3 -30 3 -60 14 -30 10 -102 33 -160 50 -126 38
-278 88 -305 100 -11 5 -46 20 -77 34 -68 29 -185 96 -218 126 l-25 21 40 -6
c22 -4 60 -13 85 -21 84 -28 235 -63 280 -65 25 -1 67 -8 94 -15 63 -18 76
-18 76 1 0 8 -17 19 -42 25 -24 6 -52 15 -63 19 -51 22 -345 108 -548 161
-102 26 -197 68 -197 86 0 4 21 4 48 0 26 -4 79 -11 117 -16 105 -14 376 -58
475 -77 83 -16 111 11 43 40 -99 42 -231 69 -540 108 -51 7 -93 15 -93 18 0 4
5 12 12 19 8 8 8 15 -2 27 -15 18 -15 16 25 34 78 34 240 24 495 -30 69 -15
220 -23 220 -12 0 20 -116 63 -222 82 -230 43 -229 44 32 70 52 6 127 7 166 4
91 -7 146 2 142 25 -5 24 -39 30 -176 31 l-123 1 -57 61 c-31 34 -58 65 -60
70 -5 12 89 11 107 0 20 -13 51 5 51 28 0 10 -18 37 -40 61 -68 74 -52 84 44
28z m-1138 -269 c55 -22 117 -48 139 -58 22 -10 74 -33 115 -52 41 -18 85 -39
97 -47 l22 -14 -19 -39 c-11 -21 -20 -42 -20 -47 0 -5 19 -31 42 -57 l43 -48
-45 6 c-104 16 -289 27 -348 21 -53 -5 -66 -4 -84 12 -28 26 -64 108 -77 179
-13 68 2 185 24 185 7 0 57 -18 111 -41z m279 -414 c44 -8 113 -21 153 -29 40
-9 88 -16 105 -16 23 0 60 -19 131 -68 99 -67 134 -104 85 -87 -44 14 -242 17
-329 5 -47 -7 -116 -24 -155 -37 -109 -39 -105 -39 -152 9 -50 53 -76 97 -93
164 -21 82 -15 87 88 79 48 -4 123 -13 167 -20z m3913 -717 c24 -17 52 -44 63
-61 22 -36 25 -97 7 -129 -16 -27 -64 -70 -92 -82 -22 -9 -195 -55 -209 -56
-4 0 -20 21 -36 48 -17 26 -44 55 -61 65 l-30 18 78 64 c78 62 162 149 162
167 0 17 75 -5 118 -34z m-3161 -206 c7 -5 12 -31 11 -67 -1 -68 8 -114 28
-153 37 -70 15 -83 -113 -67 -118 16 -160 33 -204 83 -26 29 -30 41 -25 70 7
45 27 66 95 99 66 33 182 52 208 35z m2790 -48 c35 -27 73 -90 73 -122 0 -60
-58 -130 -141 -170 -162 -79 -487 -88 -650 -19 -44 18 -79 47 -79 64 0 7 39
43 86 80 48 38 100 80 117 95 29 27 32 28 112 22 48 -4 117 -2 166 5 86 13
222 46 249 62 23 13 30 11 67 -17z m-2407 -124 c0 -14 51 -59 90 -80 20 -10
56 -39 80 -65 50 -51 91 -75 163 -95 26 -7 47 -16 47 -20 0 -10 -89 -56 -135
-70 -183 -53 -306 -52 -435 2 -68 29 -120 108 -106 162 9 36 44 75 88 96 36
17 43 18 69 5 15 -8 35 -15 43 -15 18 0 76 59 76 78 0 6 5 12 10 12 6 0 10 -4
10 -10z m1280 -259 c39 -74 -52 -174 -205 -224 -132 -44 -282 -57 -390 -35
-135 27 -237 128 -209 207 l10 26 204 -3 c195 -3 390 11 515 37 60 13 63 13
75 -8z"/>
<path d="M4045 5224 c-47 -17 -82 -56 -91 -101 -4 -23 -14 -34 -35 -42 -44
-15 -32 -61 16 -61 12 0 32 -11 45 -24 25 -27 98 -56 141 -56 39 0 114 34 133
61 20 29 21 89 1 115 -8 10 -15 34 -15 52 0 30 -11 38 -43 33 -4 -1 -20 5 -35
12 -45 23 -75 26 -117 11z"/>
<path d="M5330 2893 c-20 -7 -50 -34 -50 -45 0 -4 26 -8 58 -8 78 0 227 -51
262 -90 3 -3 23 -19 45 -35 22 -16 68 -53 102 -82 34 -29 65 -53 68 -53 3 0 5
13 5 29 0 24 -16 46 -78 108 -93 94 -187 146 -305 168 -85 16 -85 16 -107 8z"/>
<path d="M5210 2670 c0 -17 59 -67 103 -88 27 -12 85 -24 159 -31 64 -6 124
-14 133 -17 9 -4 36 -36 60 -72 41 -60 43 -67 27 -79 -15 -12 -12 -17 36 -59
80 -70 70 -82 -29 -35 -74 36 -144 49 -152 29 -6 -18 159 -105 253 -133 55
-17 80 -45 104 -118 14 -42 62 -26 52 17 -3 11 0 26 5 33 8 9 0 25 -29 60 -21
26 -72 100 -112 163 -41 63 -87 132 -104 154 -26 34 -28 39 -13 48 31 17 20
38 -20 38 -36 0 -58 13 -128 74 -33 29 -85 36 -85 11 0 -8 11 -22 26 -31 65
-43 -44 -32 -198 20 -87 29 -88 30 -88 16z"/>
<path d="M498 2265 c-65 -18 -109 -45 -136 -85 -24 -35 -26 -70 -5 -77 6 -2
30 14 53 36 41 39 88 60 140 62 39 1 95 24 95 40 0 17 -42 39 -75 38 -14 0
-46 -7 -72 -14z"/>
<path d="M5761 2136 c-8 -9 -8 -21 0 -45 6 -18 9 -34 7 -37 -3 -2 -25 7 -49
20 -56 32 -129 45 -129 24 0 -20 46 -61 105 -93 83 -45 85 -48 85 -140 0 -45
-3 -84 -6 -87 -3 -3 -17 0 -32 7 -33 16 -236 24 -240 10 -1 -5 8 -11 20 -13
13 -2 71 -26 130 -54 l107 -52 11 -48 c18 -84 11 -248 -11 -248 -17 0 -61 90
-56 112 8 28 -8 47 -32 41 -13 -3 -44 14 -90 50 -40 29 -87 59 -106 65 -60 18
-43 -16 51 -104 l87 -81 -20 -79 c-11 -43 -24 -78 -29 -77 -5 0 -17 27 -27 60
-40 130 -87 203 -123 189 -24 -9 -13 -72 25 -146 54 -103 37 -118 -46 -39 -42
39 -59 50 -81 47 -33 -4 -42 -33 -11 -41 41 -11 10 -24 -38 -16 -68 11 -73 11
-73 -6 0 -8 1 -15 3 -15 2 0 30 -5 62 -11 77 -14 111 -32 130 -69 15 -28 34
-180 22 -180 -3 0 -17 20 -31 44 -37 64 -89 106 -131 106 -53 0 -52 -18 2 -65
38 -34 61 -66 98 -144 51 -106 75 -127 75 -66 0 20 14 61 32 95 l31 60 -15 71
c-8 38 -12 72 -8 74 13 8 42 -33 49 -67 5 -25 12 -33 28 -33 12 0 25 -4 29 -8
4 -4 18 -7 31 -7 21 0 23 4 24 53 0 55 19 154 32 175 13 19 25 6 58 -61 17
-34 33 -64 35 -66 9 -10 34 24 34 45 0 14 12 42 26 63 32 49 57 154 49 203
-11 63 3 55 105 -58 33 -37 35 -38 38 -16 6 38 -22 83 -98 156 -39 38 -69 74
-67 80 3 6 10 38 17 71 14 66 11 67 63 -15 30 -46 51 -46 55 0 2 29 -7 50 -51
115 -43 64 -57 94 -67 150 -7 39 -19 80 -27 93 -15 25 -45 29 -62 8z"/>
<path d="M420 2014 c-56 -33 -111 -85 -157 -146 -25 -35 -42 -48 -59 -48 -29
0 -84 -26 -84 -40 0 -6 0 -13 0 -17 0 -4 37 -6 83 -4 54 2 119 -5 191 -19 121
-24 146 -18 97 22 -19 16 -58 32 -105 43 -42 9 -76 20 -76 24 0 24 143 135
208 161 46 18 39 44 -13 48 -29 2 -53 -5 -85 -24z"/>
<path d="M165 1700 c-60 -11 -90 -26 -114 -56 -21 -27 -28 -64 -12 -64 5 0 29
8 53 19 66 28 182 45 218 32 62 -21 81 18 25 50 -36 20 -115 29 -170 19z"/>
<path d="M221 1543 c-73 -14 -221 -150 -221 -203 0 -16 5 -30 11 -32 6 -2 37
21 68 52 36 35 84 69 134 94 84 41 101 61 72 82 -19 14 -22 15 -64 7z"/>
<path d="M241 1335 c-27 -25 -64 -75 -82 -110 -29 -55 -32 -66 -21 -89 16 -37
41 -22 80 46 16 29 51 77 78 106 38 43 46 57 37 70 -18 30 -42 24 -92 -23z"/>
<path d="M5084 1318 c-4 -6 -7 -31 -5 -55 l2 -43 -54 0 c-33 0 -59 -5 -66 -13
-13 -16 -5 -27 20 -27 52 0 100 -50 113 -118 9 -52 -11 -126 -46 -162 -35 -37
-27 -56 21 -45 38 8 77 53 91 105 6 22 15 40 20 40 5 0 20 -25 34 -55 14 -30
30 -55 35 -55 6 0 11 21 11 50 0 50 -22 103 -60 145 -10 11 -28 57 -39 102
-29 120 -56 165 -77 131z"/>
<path d="M373 1165 c-39 -30 -80 -67 -91 -82 -28 -41 -46 -98 -38 -119 7 -16
17 -9 74 52 80 85 141 130 194 145 32 8 39 14 36 32 -3 19 -10 22 -53 25 -47
2 -55 -1 -122 -53z"/>
<path d="M498 1085 c-117 -43 -167 -78 -192 -134 -16 -33 -17 -43 -6 -56 11
-13 19 -10 59 29 77 71 117 87 246 95 86 6 90 7 93 30 3 15 -3 30 -14 38 -23
17 -138 16 -186 -2z"/>
<path d="M4814 1075 c-3 -14 -1 -46 5 -71 7 -26 10 -49 7 -51 -2 -3 -17 10
-33 28 -53 61 -97 99 -115 99 -10 0 -18 -2 -18 -5 0 -11 43 -89 56 -103 26
-25 62 -97 69 -134 5 -29 1 -49 -19 -92 -14 -30 -26 -59 -26 -64 0 -5 -10 -18
-23 -30 l-24 -22 -32 50 c-33 51 -53 67 -90 73 -12 2 -27 12 -35 22 -13 18
-14 18 -38 -6 -14 -14 -35 -57 -47 -97 -24 -76 -37 -87 -60 -49 -36 56 -97
118 -138 137 -51 24 -73 21 -73 -10 0 -13 -7 -20 -20 -20 -33 0 -80 -75 -80
-127 0 -50 -13 -55 -34 -15 -20 39 -44 58 -57 45 -8 -8 -1 -38 20 -101 21 -62
31 -108 31 -151 0 -46 3 -61 14 -61 23 0 46 41 46 82 0 31 4 38 19 38 23 0 29
18 30 85 1 66 9 103 35 142 33 51 34 51 139 -69 38 -44 57 -75 57 -92 0 -24 4
-26 40 -26 28 0 40 4 40 15 0 7 16 50 35 94 19 43 35 86 35 95 0 28 37 17 69
-19 30 -34 61 -117 61 -161 0 -13 4 -25 9 -29 9 -5 40 19 42 33 0 4 2 17 3 30
2 12 21 40 43 62 21 22 50 62 63 90 13 27 27 50 30 50 9 0 28 -47 32 -80 5
-39 35 -38 46 2 6 23 15 34 30 36 29 4 29 36 -2 133 -28 87 -113 269 -127 269
-5 0 -11 -11 -15 -25z"/>
<path d="M580 919 c-43 -27 -69 -55 -76 -86 -9 -34 2 -40 34 -19 50 32 132 66
162 66 35 0 38 12 10 40 -27 27 -85 26 -130 -1z"/>
<path d="M929 828 c-25 -17 -63 -54 -84 -83 -36 -50 -42 -54 -98 -64 -65 -11
-111 -36 -101 -53 4 -7 31 -8 80 -4 l74 7 0 -31 c0 -42 26 -39 47 5 18 39 43
47 125 45 75 -2 78 -2 78 15 0 22 -33 35 -89 35 -29 0 -51 5 -51 11 0 31 100
89 153 89 25 0 31 20 11 41 -27 30 -89 25 -145 -13z"/>
<path d="M1254 800 c-41 -9 -108 -58 -129 -92 -38 -65 -62 -205 -38 -229 18
-18 38 14 68 106 25 79 32 90 74 121 25 18 58 34 72 34 36 0 58 26 38 44 -20
19 -49 25 -85 16z"/>
<path d="M1410 668 c0 -13 14 -45 30 -71 17 -26 30 -50 30 -54 0 -3 -10 -20
-23 -37 -13 -17 -29 -46 -36 -63 -8 -18 -17 -33 -21 -33 -10 0 -28 64 -36 130
-10 77 -20 100 -44 100 -79 0 -17 -271 80 -347 26 -21 32 -14 25 27 -4 26 -3
40 4 40 6 0 27 23 47 50 20 28 42 49 48 47 6 -2 14 -36 17 -76 4 -39 11 -77
16 -84 5 -6 16 -28 23 -47 16 -42 48 -80 68 -80 11 0 14 12 10 56 -4 49 -2 57
14 62 10 2 18 5 18 7 0 15 -31 81 -61 131 -22 35 -39 68 -39 74 0 5 12 12 28
16 46 10 52 13 52 27 0 26 -29 40 -83 39 -52 0 -52 0 -87 51 -40 59 -80 76
-80 35z"/>
<path d="M3817 603 c-3 -10 -8 -45 -12 -78 -3 -33 -11 -81 -17 -107 -13 -53
-49 -105 -66 -95 -6 4 -25 37 -43 73 -34 71 -76 106 -119 102 -35 -4 -28 -30
28 -99 26 -32 62 -85 81 -118 37 -66 56 -75 71 -36 5 14 21 29 34 35 52 19
106 128 105 210 0 42 -29 122 -46 127 -6 2 -14 -4 -16 -14z"/>
<path d="M3108 523 c-31 -50 -48 -108 -48 -165 0 -72 40 -142 71 -122 5 3 9
47 9 98 0 90 10 132 42 178 9 13 9 20 -1 32 -22 26 -48 18 -73 -21z"/>
<path d="M3366 541 c-49 -54 -15 -325 39 -305 20 8 26 79 16 190 -14 138 -21
153 -55 115z"/>
<path d="M2172 525 c-12 -9 -33 -36 -48 -60 -14 -25 -28 -45 -30 -45 -3 0 -29
17 -126 82 -66 44 -93 9 -85 -113 7 -111 47 -189 96 -189 15 0 14 50 -3 96
-18 52 -29 134 -19 134 5 0 32 -24 62 -54 49 -49 52 -56 46 -88 -8 -44 7 -56
34 -29 20 20 22 20 50 3 48 -27 57 -5 20 51 -35 54 -34 60 35 127 47 45 55 67
34 88 -16 16 -39 15 -66 -3z"/>
<path d="M1747 503 c-11 -10 -8 -48 8 -110 16 -62 19 -146 5 -178 -7 -17 -9
-17 -9 -2 -1 24 -38 58 -56 51 -9 -4 -15 -19 -15 -40 0 -34 1 -35 53 -38 10
-1 23 -8 28 -16 8 -11 12 -12 16 -2 2 6 11 12 19 12 25 0 47 69 48 155 1 91
-14 135 -55 159 -31 18 -33 19 -42 9z"/>
<path d="M2772 478 c-15 -15 -15 -77 2 -153 15 -72 31 -105 51 -105 18 0 21
74 5 116 -16 40 2 49 34 17 41 -41 76 -119 76 -170 0 -49 15 -56 46 -22 57 63
-26 248 -136 304 -56 29 -62 29 -78 13z"/>
<path d="M2417 453 c-4 -3 -7 -14 -7 -23 0 -9 -20 -36 -45 -60 -40 -39 -85
-113 -85 -140 0 -27 43 -4 90 47 91 99 96 100 155 20 41 -55 93 -107 107 -107
4 0 10 -11 14 -25 9 -35 27 -26 37 17 11 47 -4 99 -50 176 -62 101 -63 102
-141 102 -38 0 -72 -3 -75 -7z"/>
<path d="M3204 445 c-25 -63 80 -294 117 -258 19 19 1 96 -44 185 -43 83 -62
103 -73 73z"/>
</g>
</svg>
