<?xml version="1.0" standalone="no"?>
<!DOCTYPE svg PUBLIC "-//W3C//DTD SVG 20010904//EN"
 "http://www.w3.org/TR/2001/REC-SVG-20010904/DTD/svg10.dtd">
<svg version="1.0" xmlns="http://www.w3.org/2000/svg"
 width="500.000000pt" height="500.000000pt" viewBox="0 0 500.000000 500.000000"
 preserveAspectRatio="xMidYMid meet">
<metadata>
Created by potrace 1.15, written by Peter Selinger 2001-2017
</metadata>
<g transform="translate(0.000000,500.000000) scale(0.100000,-0.100000)"
fill="#000000" stroke="none">
<path d="M1320 4514 c-659 -35 -983 -84 -1064 -159 l-26 -24 0 -1761 c0 -1952
-6 -1790 68 -1848 132 -105 335 -160 742 -201 588 -60 1233 -52 1658 20 214
36 516 131 552 174 7 8 15 116 22 287 l11 273 96 98 c53 54 195 178 316 275
311 248 469 386 630 547 352 352 445 543 432 884 -9 232 -69 383 -212 527 -67
68 -95 89 -175 127 -134 64 -219 81 -415 81 -238 -1 -435 -44 -555 -124 l-45
-30 -5 336 -5 336 -31 27 c-65 59 -333 107 -789 141 -134 11 -1070 21 -1205
14z m1230 -93 c290 -21 511 -52 585 -82 l30 -11 -35 -15 c-224 -95 -1505 -133
-2258 -68 -198 18 -390 48 -429 69 -25 13 -26 14 -7 24 68 37 423 76 864 96
153 7 1110 -3 1250 -13z m-2163 -88 c-3 -37 40 -60 160 -82 239 -46 491 -62
1083 -68 679 -7 1141 15 1404 68 141 29 187 57 155 96 -12 14 -11 15 11 8 14
-4 41 -15 59 -25 l35 -17 -33 -17 c-84 -44 -326 -84 -681 -113 -272 -22 -1249
-25 -1510 -5 -461 35 -774 91 -772 137 0 7 54 34 89 44 1 1 1 -11 0 -26z
m2879 -702 c-81 -83 -121 -213 -120 -386 0 -120 7 -161 46 -267 18 -52 24 -58
55 -64 l35 -7 -6 -221 c-3 -121 -9 -344 -12 -495 l-7 -275 -47 -46 c-82 -80
-121 -240 -101 -409 20 -161 54 -236 101 -224 22 6 22 5 16 -93 -3 -54 -9
-165 -12 -246 l-6 -146 -67 -31 c-345 -158 -1006 -220 -1806 -170 -572 36
-875 102 -1010 220 l-35 31 0 1720 c0 1614 1 1720 17 1714 87 -34 284 -68 513
-90 838 -81 2072 -39 2424 83 l51 17 3 -290 2 -290 -34 -35z m969 99 c196 -63
319 -170 403 -349 97 -210 93 -509 -10 -719 -109 -222 -399 -516 -918 -931
-135 -108 -302 -251 -371 -318 -70 -68 -129 -123 -132 -123 -3 0 -14 26 -23
58 -14 42 -18 91 -19 187 0 150 17 221 69 281 26 30 42 38 99 50 315 65 755
392 963 714 134 208 199 420 175 569 -39 241 -275 412 -571 415 -89 1 -101 -2
-162 -32 -99 -49 -163 -123 -239 -279 -71 -147 -116 -213 -172 -254 -60 -44
-72 -39 -97 36 -55 166 -39 375 40 513 23 40 36 52 54 52 13 0 66 22 117 49
170 89 284 112 539 107 159 -3 195 -7 255 -26z m-195 -236 c36 -8 97 -30 136
-49 304 -146 324 -457 57 -859 -77 -117 -263 -308 -388 -401 -165 -123 -389
-240 -499 -261 l-39 -7 6 89 c4 49 10 276 13 504 l7 415 71 75 c40 42 82 96
93 120 78 168 97 204 137 256 75 98 144 133 266 133 41 1 104 -6 140 -15z"/>
</g>
</svg>
