<?xml version="1.0" encoding="UTF-8" standalone="no"?>
<svg id="svg4158" xmlns:rdf="http://www.w3.org/1999/02/22-rdf-syntax-ns#" xmlns="http://www.w3.org/2000/svg" height="1285" viewBox="0 0 558 1285" width="558" version="1.1" xmlns:cc="http://creativecommons.org/ns#" xmlns:dc="http://purl.org/dc/elements/1.1/">
<path id="path4168" d="m264.5 1269.5c-3.85-1.3144-7.675-2.4197-8.5-2.4561-3.7842-0.1674-11.634-9.5788-14.466-17.345-2.8851-7.9104-3.951-9.4312-6.5737-9.3795-2.2765 0.045-23.751-5.1157-28.96-6.9595-4.8353-1.7115-7.1034-2.1946-22.473-4.7871-5.4853-0.9252-10.435-2.0519-11-2.5038-0.56466-0.4519-2.5361-1.1447-4.3809-1.5395-3.4937-0.7476-8.1652-2.6356-19.146-7.7377-13.205-6.1358-16.656-7.6692-22.016-9.7818-8.1982-3.2314-34.229-26.64-42.763-38.455-2.0017-2.7713-6.3578-8.0099-9.6801-11.641-3.322-3.6-8.29-10.6-11.04-15.4s-7.115-11.2-9.701-14.1c-12.697-14.4-25.635-56.6-30.439-99.4-0.278-2.5-1.837-15.9-3.464-29.81l-2.9582-25.31 0.17036-55.19c0.0937-30.354 0.31061-57.44 0.48203-60.19s0.49397-9.9087 0.71678-15.908c0.54601-14.702 3.1705-16.867 10.39-8.5713 11.799 13.559 56.032 10.507 66.587-4.5941 5.0606-7.2406 7.6232-28.818 4.211-35.458-9.364-18.22-15.202-21.53-31.566-17.85-5.186 1.16-11.904 2.46-14.929 2.89-3.025 0.42724-7.6754 1.7255-10.334 2.885-10.848 4.7306-37.09-9.9706-36.911-20.678 0.067238-4.0194 1.8794-11.366 2.9815-12.087 0.5282-0.34553 2.8463-3.6299 5.1514-7.2986l4.191-6.6704 1.5153-19.83c1.692-22.13 4.402-39.6 8.117-52.33 1.3648-4.675 3.0503-11.053 3.7456-14.173 0.69528-3.1203 2.5443-7.8453 4.1088-10.5 5.3522-9.0812 13.299-26.085 14.001-29.958 2.5855-14.264 41.551-64.35 56.354-72.437 1.5785-0.86232 4.1981-2.8959 5.8213-4.5191 4.03-4.03 32.89-23.41 34.86-23.41 0.87157 0 5.4812-1.9999 10.244-4.4442 4.7624-2.4443 12.422-5.8065 17.022-7.4714 4.5997-1.665 8.8747-3.4263 9.5-3.914 0.62529-0.48777 3.2612-1.5938 5.8576-2.4579 7.5147-2.5009 12.387-7.1358 17.011-16.18l4.1058-8.0322 0.76249-17c0.41936-9.35 0.79519-26.675 0.83518-38.5 0.0523-15.477 0.53762-24.021 1.7323-30.5 0.91279-4.95 1.5832-11.475 1.4899-14.5-1.0793-34.975 0.10876-78.031 2.7318-99 1.301-10.4 0.0985-24.868-2.1724-26.139-0.96-0.53-1.73-1.8-1.73-2.83 0-1.0305-1.1305-3.2171-2.5122-4.8592-2.7379-3.2538-5.7154-10.607-4.7045-11.618 0.34694-0.34693-0.3117-2.5251-1.4636-4.8404s-2.6588-6.0096-3.3486-8.2096c-0.68982-2.2-2.6447-6.025-4.3443-8.5-5.29-7.71-10.63-19.02-10.63-22.53 0-1.8346-0.46566-4.5605-1.0348-6.0574-4.9439-13.003-0.6753-58.597 6.5357-69.808 0.74305-1.1552 2.485-5.3719 3.8711-9.3703 1.386-3.9984 3.3856-8.4984 4.4435-10 1.05-1.506 2.83-4.535 3.95-6.735 5.71-11.236 33.49-35.728 44.23-38.997 2.5589-0.77884 10.635-5.0105 12.586-6.5945 0.59749-0.48512 2.9897-1.5536 5.3161-2.3744 2.3264-0.82079 5.4912-2.3906 7.033-3.4884 16.96-12.081 60.5-12.807 92.06-1.535 25.594 9.1411 37.569 17.208 54.305 36.584 32.587 37.726 18.673 105.79-22.988 112.45-5.3995 0.86332-13.303 2.2413-17.564 3.0621-10.901 2.1001-18.15-1.4161-26.822-13.009-2.4372-3.2583-6.7627-8.572-9.6122-11.808-5.283-6-6.5829-9.4611-8.802-23.436-1.2311-7.7527 4.6756-16.849 16.613-25.585l2.37-1.725-2.36-2.016c-3.554-3.0342-9.723-2.6537-16.729 1.0319-8.2552 4.3425-19.191 12.685-20.005 15.261-0.381 1.2054-1.7156 3.5416-2.9659 5.1916-3.0471 4.0214-6.438 13.197-6.4386 17.422-0.00089 6.0698 3.152 20.466 5.3568 24.458 1.1785 2.1343 2.9769 5.5093 3.9965 7.5 2.8728 5.6091 15.801 17.181 26.646 23.851 1.925 1.1839 4.2548 3.0456 5.1774 4.1371 0.92255 1.0915 5.4226 4.5976 10 7.7912 22.376 15.612 24.923 20.437 23.672 44.846-3.04 59.28-1.38 234.5 2.23 234.5 0.5 0 0.92 0.63 0.92 1.41 0 6.9875 12.871 14.224 28.636 16.1 6.125 0.72903 12.624 2.0946 14.441 3.0346 1.8178 0.94001 6.3713 2.752 10.119 4.0267 17.204 5.8514 72.158 50.653 76.58 62.433 0.30973 0.825 1.6116 2.772 2.893 4.3267s2.3298 3.5433 2.3298 4.4191c0 0.87583 1.3088 3.9115 2.9084 6.7459 4.8319 8.5616 12.716 34.224 15.518 50.508 0.89892 5.225 2.0707 11.672 2.604 14.326 0.53331 2.6545 0.97745 9.4045 0.98698 15 0.01 5.5955 0.42594 14.224 0.92536 19.174s1.1942 18.675 1.5441 30.5c0.34982 11.825 1.0567 26.82 1.5708 33.323 1.0184 12.881 0.42442 15.669-3.3428 15.689-1.2182 0.007-4.6898 0.70966-7.7148 1.5625-12.248 3.4531-16.745 4.356-21.863 4.39-6.1146 0.0406-19.827 6.9781-28.028 14.18-2.4149 2.1208-4.9607 3.856-5.6573 3.856-0.69656 0-3.5672 4.479-6.3791 9.9533-2.812 5.4743-5.5537 10.226-6.0927 10.559-5.1683 3.1942 2.2613 31.313 10.513 39.787 11.688 12.003 46.098 19.483 61.423 13.351 11.629-4.6531 18.893-0.0579 12.114 7.6633-6.7019 7.633-16.487 48.007-20.039 82.686-0.64792 6.325-1.5997 13.075-2.115 15-0.51536 1.925-2.0519 12.012-3.4146 22.416-6.0019 45.823-16.661 80.756-35.422 116.08-3.2128 6.05-6.9796 13.146-8.3708 15.769-1.3911 2.6227-3.8449 6.4477-5.4528 8.5s-4.867 6.8814-7.2426 10.731c-2.3755 3.85-5.8229 8.575-7.6607 10.5-4.3603 4.5671-8.7581 10.26-14.312 18.528-2.475 3.6845-7.425 9.9654-11 13.958-3.575 3.9922-7.2261 8.3285-8.1135 9.6362-0.88742 1.3077-4.9374 4.6206-9 7.3619-4.0626 2.7414-9.0753 6.4539-11.139 8.25-2.0641 1.7962-4.1864 3.2658-4.7163 3.2658-0.52986 0-3.5766 1.6875-6.7705 3.75s-7.8216 4.5902-10.284 5.617c-2.4621 1.0269-6.7266 2.8947-9.4766 4.1508-17.324 7.9127-23.564 10.358-28 10.973-15.339 2.1263-32.236 7.377-36.403 11.313-0.98826 0.9332-3.5518 2.6458-5.6968 3.8056-2.7645 1.4948-4.7734 3.7476-6.9 7.7378-6.4768 12.153-19.223 16.84-33 12.137zm12.991-20.655c3.2544-3.8676 3.1646-5.8267-0.42453-9.2653-5.8102-5.5665-13.609-1.6402-12.517 6.302 1.174 8.5421 7.1048 9.9001 12.942 2.9633zm-4.6874-27.403c1.2366-0.8662 2.7992-1.377 3.4725-1.1352 4.6422 1.667 6.0495-4.0146 8.2461-33.29 3.9114-52.13 5.2447-63.676 7.7068-66.737 1.8655-2.3195 0.14026-4.3535-2.7581-3.2515-1.4304 0.5438-3.6699 0.9888-4.9767 0.9888-3.7234 0-6.181 17.248-5.7707 40.5 0.15366 8.7092-1.2882 36.456-2.3576 45.371-0.99304 8.2777-2.1984 2.5841-3.3598-15.871-2.1881-34.769-2.8395-43.505-3.9141-52.5-0.59139-4.95-1.079-9.5625-1.0835-10.25-0.015-2.2836-3.601-1.2921-5.727 1.5835-2.2653 3.064-2.553 13.87-0.51026 19.166 0.53034 1.375 1.2885 8.125 1.6848 15 0.39632 6.875 1.0905 14.525 1.5427 17 0.45216 2.475 1.6196 13.612 2.5943 24.75 0.97469 11.138 2.0399 20.25 2.3672 20.25 0.32726 0 1.6067-0.7086 2.8433-1.5747zm-37.7-5.308c3.018-2.4438 3.0731-9.2473 0.17116-21.117-1.1429-4.675-2.3742-10.75-2.7361-13.5-0.36194-2.75-3.374-14.675-6.6934-26.5-8.2047-29.228-9.4932-33.409-12.789-41.5-6.802-16.697-7.3139-22.817-2.0616-24.648 1.6082-0.5606 3.2223-1.9592 3.5869-3.1081 0.36464-1.1489 3.9151-5.4988 7.8899-9.6664 14.661-15.372 14.871-15.669 14.056-19.841-0.91491-4.6826-0.94278-20.145-0.0724-40.168 0.75917-17.465 0.47538-19.614-2.6961-20.424-24.592-6.2747-30.853-41.826-10.496-59.591 3.659-3.1931 3.9398-3.265 10.149-2.6002 8.1655 0.87445 7.9981 1.1997 8.2075-15.954 0.14381-11.783 2.6919-41.6 4.9992-58.5 0.81938-6.0016 2.1806-50.774 3.3138-109 1.2293-63.159 1.8652-82.444 3.1329-95 0.83176-8.2384 0.82859-16.444-0.008-19.725-0.0316-0.12389-1.2243 0.21839-2.6504 0.76062-2.9474 1.1206-6.9562-1.5787-11.249-7.5744l-2.3422-3.2712 1.079-16.345c4.3112-65.304 3.7356-78.675-3.3947-78.869-1.1727-0.0318-3.3574-1.8996-5.2817-4.5153-3.853-5.2376-5.1854-5.4398-15.402-2.3366-8.8819 2.6978-12.859 5.8599-11.066 8.7989 1.7254 2.829 1.7327 2.8194-2.7061 3.5693-3.277 0.55366-4.264 1.2982-5.75 4.3379-1.4984 3.065-2.3705 3.714-5.2939 3.9395-6.2029 0.47841-8 1.1842-8 3.1421 0 2.0362 1.8594 3.0879 5.4593 3.0879 4.6237 0 5.5905 4.8326 1.4139 7.0678-1.0403 0.55675-6.0929 0.94126-11.228 0.85446-17.742-0.29989-19.962 5.5606-2.4492 6.4654 8.4258 0.43527 9.8114 0.91958 9.7888 3.4214-0.0394 4.3512-1.1147 4.6312-17.902 4.6618-15.337 0.0279-16.125 0.12737-18.305 2.3121-3.3218 3.329-1.7208 3.8401 14.561 4.6485 15.341 0.76161 17.396 1.5024 16.299 5.8737-0.90877 3.6208-2.0288 3.7604-21.32 2.6567-18.94-1.0836-20.742-0.90555-22.412 2.2133-1.7668 3.3012 0.0253 3.9367 13.728 4.868 23.447 1.5934 26.366 2.429 26.366 7.5474 0 4.6231 0.92688 4.5021-27 3.5224-21.943-0.76979-24.633-0.69208-25.779 0.7445-3.9742 4.9845-0.14962 5.9554 27.244 6.9164 22.606 0.79306 23.905 1.0951 22.804 5.3042-1.0346 3.9563-2.8017 4.3745-13.098 3.1-11.461-1.4188-45.024-1.5579-47.172-0.19553-6.1427 3.8976 5.7874 6.2635 38 7.5359 19.382 0.76558 21 1.1888 21 5.4939 0 5.2918-2.5098 5.9491-18.5 4.8455-28.527-1.9689-45.821-0.43436-45.304 4.0201l0.3 2.64 20.5 0.8c11.275 0.43732 24.55 0.88732 29.5 1 11.904 0.27096 14.576 4.2708 6 8.9802-2.5355 1.3923-39.902 1.0933-50.633-0.4052-11.301-1.5782-15.688 1.4278-7.8038 5.3471 3.2266 1.6039 18.22 2.7858 51.427 4.054 4.7109 0.17991 6.0588 0.5889 6.311 1.9149 0.56862 2.9892-5.2649 3.4396-32.036 2.473-27.65-1-28.76-0.85-28.76 3.9 0 2.9662 1.6638 3.1833 30.5 3.9794 18.603 0.51358 22.193 0.8571 23.25 2.2246 4.6388 6.0014-3.2637 8.7375-22.24 7.7005-34.693-1.89-36.51-1.76-36.51 2.59 0 3.901-1.1833 3.7227 38.172 5.7513 12.628 0.65094 13.871 0.89145 16.276 3.1516 2.5798 2.4236 2.6731 2.4339 9.8282 1.085 11.588-2.1847 14.425-1.8206 13.305 1.708-1.6494 5.1969-13.977 6.3432-47.081 4.378-20.794-1.2345-31.252-0.43007-33.208 2.5542-2.5581 3.9042-1.2667 4.1396 28.897 5.2672 34.025 1.272 34.836 1.4727 30.279 7.4975-0.80751 1.0676-1.4682 2.7026-1.4682 3.6334 0 2.4801-3.3095 2.9372-9.2559 1.2786-21.566-6.0154-46.381-3.9258-45.922 3.8668 0.33574 5.6962-1.5931 10.652-6.0094 15.44-3.897 4.2252 1.5664 7.4319 16.853 9.8918 32.619 5.249 43.808 21.241 43.109 61.615l-0.36917 21.334-2.9528 5.1409c-1.6241 2.8275-3.933 6.9087-5.131 9.0693-6.3458 11.445-16.567 20.596-26.938 24.118-3.3637 1.1422-7.6387 2.7616-9.5 3.5988-1.8613 0.83716-5.2443 1.9869-7.5177 2.555-12.712 3.1766-8.1151 14.932 5.865 14.997 5.0708 0.0235 16.301 1.5079 23.99 3.1711 2.597 0.5617 8.34 2.7947 12.762 4.9622l8.0402 3.941-1.3584 2.7238c-0.74715 1.4981-2.5889 6.7738-4.0927 11.724-1.5038 4.95-2.9089 9.5625-3.1223 10.25-0.49967 1.6096-0.76297 1.6012-21.451-0.68607-30.356-3.3563-33.888-3.5195-34.625-1.6001-0.97968 2.553 1.1129 3.9126 7.9167 5.1436 3.4143 0.61775 9.8079 1.8338 14.208 2.7024 4.4 0.8686 13.175 1.8589 19.5 2.2006 14.453 0.78086 26.092 8.5215 12.75 8.4792-6.7094-0.0213-27.472-2.1374-33.25-3.3888-12.911-2.8-23.5-1.91-23.5 1.97 0 2.24 0.383 2.43 4.785 2.43 2.6316 0 7.2441 0.8528 10.25 1.8951 5.755 1.99 23.915 4.1 35.335 4.1 9.31 0 10.63 0.87 10.63 7.04 0 3-0.44 4.96-1.12 4.96-0.61692 0-5.6794-0.6548-11.25-1.4551-5.5706-0.80032-15.753-1.6905-22.628-1.9782-7.2548-0.30361-14.178-1.1433-16.5-2.001-5.2488-1.9392-8.421-1.9351-9.1681 0.0119-1.0891 2.8381 2.0622 4.5654 9.1416 5.0109 3.7056 0.23315 7.0773 0.63392 7.4926 0.89059 1.107 0.68419 35.954 5.521 39.777 5.521 3.2499 0 4.9256 3.2772 2.149 4.2028-0.91325 0.30442-43.12-5.3147-46.392-6.1762-4.0336-1.0622-7.4936 1.6233-4.4862 3.482 3.2686 2.0201 16.703 4.6034 28.672 5.5134 7.5976 0.57765 16.064 1.375 18.814 1.7719l5 0.72163 0.30479 4.7423c0.34158 5.3146 0.15389 5.4149-7.0404 3.7632-15.088-3.4639-40.319-5.624-41.126-3.521-1.988 5.2 18.866 10.51 41.256 10.51 8.6137 0 9.6127 2.1441 10.483 22.5 0.17105 4.0023-1.206 3.88-33.253-2.9537-4.7703-1.0172-7.7888-1.2353-8.5342-0.6167-1.2633 1.0484-6.8039 0.094-10.293-1.7732-3.879-2.1-7.293-1.5-7.293 1.2 0 2.3728 5.7202 4.5829 11.861 4.5829 0.96962 0 3.535 0.8419 5.7008 1.8709 4.1893 1.9904 22.511 5.6634 33.644 6.7449 7.3018 0.7093 11.738 4.6224 11.834 10.438 0.0221 1.3454 1.1082 4.9212 2.4135 7.9462 2.6864 6.2254 2.0284 8.3356-2.3181 7.4339-1.4496-0.3007-4.4356-0.9369-6.6356-1.4138s-7.15-1.3659-11-1.9756c-3.85-0.6098-10.996-1.7692-15.881-2.5766-12.84-2.1223-17.619-1.9867-17.619 0.5 0 4.0058 29.135 10.776 49.185 11.429 11.467 0.3737 12.926 2.3871 18.399 25.398 7.1184 29.928 7.3528 27.949-3.0945 26.13-6.1518-1.0713-13.976-0.9117-28.843 0.5883-4.0841 0.412-7.2479 3.2371-5.5552 4.9605 1.5405 1.5684 40.598 2.0293 42.44 0.5008 2.0618-1.7111 2.0432-1.746 5.5104 10.349 1.6832 5.8715 3.7125 12.236 4.5096 14.144 3.2322 7.7358 3.194 7.7576-12.301 7.0088-11.223-0.5424-14.102-0.3981-15.662 0.7851-3.1368 2.3776-1.356 4.7294 3.6311 4.7956 10.825 0.1435 18.85 0.6788 19.47 1.2987 1.2728 1.2727-1.4099 2.7704-6.1938 3.4579-9.1127 1.3095-8.7418 5.926 0.50498 6.2867 10.331 0.4029 12.437 2.8891 8.7952 10.384-3.2782 6.7476-2.0256 9.3576 8.5257 17.764 10.788 8.5946 17.224 11.557 28.679 13.198 2.475 0.3545 6.3 1.747 8.5 3.0943 4.8125 2.9473 6.5478 3.0516 9.6035 0.5772zm-48.77-325.47c-16.63-5.7351-20.137-11.732-15.969-27.306 4.3424-16.226 10.632-24.373 19.926-25.81 2.3169-0.35831 5.7033-1.1142 7.5253-1.6798 2.7242-0.84568 3.6563-0.7174 5.247 0.72216 2.656 2.4037 7.9868 2.1068 10.151-0.56538 4.603-5.6845 5.1563-31.891 1.1986-56.773-1.1821-7.4318-7.2903-10.572-14.907-7.663-3.8331 1.4638-5.428 1.573-9.7906 0.67004-2.8664-0.59328-6.8647-1.35-8.8852-1.6815-3.7821-0.62061-9.0108-5.3958-10.277-9.3857-0.34498-1.0869-1.7723-2.7265-3.1718-3.6435-7.4174-4.86-6.6941-21.482 1.2541-28.821 1.9003-1.7547 5.4792-5.2754 7.9532-7.8238l4.4982-4.6334 10.208-0.6472c9.7691-0.61935 10.66-0.5006 20.708 2.759l10.5 3.4062 4.5955 9.174c2.5275 5.0457 6.2567 10.875 8.287 12.954 3.5763 3.6625 3.7027 4.0431 4.0514 12.2 0.19794 4.631 0.68423 13.145 1.0806 18.92 0.43022 6.2676 0.2519 15.539-0.4424 23-0.63972 6.875-1.5411 20.6-2.0032 30.5l-0.84003 18-4.2268 8.2348c-3.1265 6.0912-5.9909 9.899-11.003 14.628-5.0959 4.8072-7.46 7.9732-9.532 12.765-4.9506 11.449-11.453 13.564-26.137 8.5003zm78.474 320.39c0.19103-4.0767-0.99381-14.28-3.1934-27.5-4.9018-29.461-6.4361-39.607-7.6376-50.505-1.144-10.377-1.5995-11.344-5.1074-10.848-4.0216 0.569-3.8247 5.3424 1.2926 31.335 1.0828 5.5 2.3779 13.6 2.8779 18 0.50003 4.4 1.8133 12.205 2.9185 17.344 1.1051 5.1394 2.2655 12.339 2.5785 16 1.0551 12.337 1.3396 13.314 3.7741 12.968 1.9621-0.2792 2.225-0.9948 2.4968-6.7937zm-9.0029-2.3792c0.17064-3.2346-0.61563-9.9089-1.8167-15.421-1.1646-5.345-3.1839-14.893-4.4872-21.218s-3.1112-14.65-4.0176-18.5c-0.90639-3.85-2.2755-10.6-3.0425-15-3.7775-21.67-5.2069-25.57-8.8593-24.168-1.8695 0.7174-2.1453 7.2836-0.53238 12.675 1.8148 6.0658 7.9215 33.734 12.027 54.493 2.1756 11 4.3676 21.8 4.8711 24 2.5212 11.017 5.3614 12.539 5.8573 3.1392zm99.746-1.6304c9.59-2.1328 15.809-4.125 20.823-6.6706 7.1638-3.6368 15.412-9.0151 19.63-12.8 2.475-2.2209 6.1162-4.8895 8.0914-5.9301 1.9753-1.0406 5.1253-4.185 7-6.9876s6.1086-8.0757 9.4086-11.718 7.7021-8.8229 9.7825-11.512c2.0804-2.6895 9.2804-11.897 16-20.462 6.7196-8.5645 13.235-16.99 14.478-18.723 5.6627-7.8958 18.238-31.306 20.253-37.705 0.69294-2.2 2.3031-6.0823 3.5781-8.6274s2.859-6.8201 3.52-9.5c0.66098-2.6799 2.206-7.1226 3.4333-9.8726s3.2307-7.2199 4.4519-9.9332c1.8035-4.0068 2.1022-5.9785 1.5906-10.5-0.39152-3.4607-0.0387-8.7826 0.93265-14.067 1.7011-9.2543 2.8686-17.123 4.3769-29.5 0.53622-4.4 1.6408-11.375 2.4546-15.5 0.81381-4.125 2.4832-12.9 3.7097-19.5s2.6192-13.054 3.0949-14.342c2.5154-6.8129 4.0832-18.793 4.2083-32.158l0.15-14.49-3.5-0.29c-1.925-0.15734-4.85-0.91162-6.5-1.6762-1.65-0.76455-6.375-1.9272-10.5-2.5837-11.314-1.8005-14.809-2.8327-22.207-6.5581-6.78-3.41-20.79-15.47-20.79-17.88 0-0.68891-2.4557-4.8586-5.4572-9.266-17.351-25.478-1.5581-72.416 29.737-88.382 2.2989-1.1728 5.7638-3.3896 7.6999-4.9262 3.6355-2.8854 7.3175-3.7978 24.02-5.9522 12.747-1.6442 12.903-1.6989 13.554-4.7441 0.32144-1.5041 1.0033-3.7684 1.5152-5.0318 1.6167-3.9897 1.0721-14.81-1.0228-20.323-1.9382-5.1008-1.9382-5.1718 0-8.9709 2.1382-4.1912 2.4987-10.489 0.98143-17.145-1.9937-8.7452-3.1525-18.622-3.6096-30.764-0.47797-12.698-2.6059-25.271-7.024-41.5-1.3475-4.95-3.1057-11.475-3.9071-14.5-5.8015-21.9-24.293-45.938-44.487-57.833-3.025-1.7818-8.2-4.9938-11.5-7.1379s-8.3532-5.3774-11.229-7.185c-3.133-1.9692-5.6073-4.371-6.1722-5.9914-4.0509-11.62-57.775-19.8-63.22-9.6259-4.0095 7.4917-2.7225 89.171 1.6875 107.1 1.902 7.7344 1.8537 8.2523-1.1359 12.172-2.7456 3.5997-7.8427 5.485-9.7291 3.5986-5.9159-5.9159-6.5267-2.6818-7.7245 40.899-0.98365 35.79-2.2762 56.071-3.9444 61.888-0.461 1.6074-1.342 10.503-1.9578 19.768-0.61581 9.2647-1.779 22.47-2.5848 29.345-2.0615 17.588-3.3583 34.138-3.9963 51-0.30176 7.975-1.0163 19.9-1.5879 26.5-0.57159 6.6-1.2158 15.825-1.4316 20.5-0.21582 4.675-0.65916 13.753-0.98522 20.173l-0.59283 11.673 3.2396 5.8272c1.7818 3.205 4.8644 8.3097 6.8502 11.344 1.9858 3.0342 4.3299 7.3092 5.2089 9.5 0.87907 2.1908 3.026 6.6833 4.7709 9.9833 5.251 9.9307 6.2011 16.696 3.3622 23.94-2.9655 7.5671-2.6303 7.2881-11.414 9.5015-20.583 5.1865-18.963 2.5278-19.535 32.059-0.25048 12.925-0.88638 27.63-1.4131 32.678-1.0387 9.9544-0.74543 11.885 1.9113 12.58 0.95589 0.25 3.3535 2.8818 5.328 5.8485 1.9745 2.9668 4.9863 6.4201 6.6929 7.674 4.7328 3.4777 4.278 7.7683-2.4302 22.927-3.0432 6.8767-6.0268 14.805-6.6302 17.619-0.60346 2.8139-1.9759 7.1542-3.05 9.6452-2.2398 5.1948-6.623 18.101-9.859 29.029-1.2215 4.125-4.1789 12.675-6.5721 19-7.414 19.595-6.1452 28.002 3.3819 22.409 10.434-6.1255 25.915-13.396 28.537-13.402 1.5262 0 5.8012-1.5225 9.5-3.3754s7.85-3.7082 9.225-4.1229c5.3903-1.6258 16.263-8.9191 29.835-20.012 4.0344-3.2976 9.1815-7.4762 11.438-9.2858 2.2564-1.8096 4.8055-4.3628 5.6647-5.674 0.85914-1.3111 3.6374-4.7806 6.1739-7.7099 6.9038-7.9729 15.943-21.813 23.397-35.826 3.6572-6.875 7.2346-13.175 7.9499-14 1.6435-1.8957 4.0518-6.6375 5.9065-11.63 0.79084-2.1287 2.8306-7.4703 4.5329-11.87 1.7022-4.4 3.0966-8.6316 3.0986-9.4035s1.0869-3.6969 2.4108-6.5c2.8635-6.0625 6.0689-22.466 5.2198-26.711-0.58028-2.9015 2.9088-7.8852 5.5202-7.8852 0.47038 0 2.2329-2.9159 3.9168-6.4798 3.0882-6.5361 4.843-8.7369 5.0466-6.3292 0.26831 3.1729-0.4343 6.5939-2.1173 10.309-0.99663 2.2-2.1183 5.8-2.4927 8-0.65405 3.8438-1.3957 6.5278-8.5662 31-6.6755 22.783-16.669 46.466-22.564 53.472-1.3038 1.5495-2.3705 3.25-2.3705 3.7791 0 0.529-1.575 3.0245-3.5 5.5456s-3.5 4.8397-3.5 5.1525c0 0.7706-5.122 7.7895-9.0068 12.342-1.7407 2.0401-5.8462 7.5342-9.1232 12.209-7.2483 10.34-31.149 34.838-38.705 39.671-3.021 1.9325-6.0282 4.0491-6.6825 4.7034-0.65435 0.6543-2.9432 1.9386-5.0862 2.8539-15.067 6.4349-18.231 7.6935-20.897 8.3121-4.2484 0.9859-11.661 5.3906-10.965 6.5159 0.88975 1.4397 5.1723 1.1409 15.012-1.0475zm-10.235-26.639c-1.6747-4.3642 5.7519-11.386 15.188-14.36 7.5281-2.373 12.336-4.9846 14.672-7.9699 1.2853-1.6423 6.5526-6.5866 11.705-10.987 14.379-12.281 29.648-29.362 36.622-40.967 0.55-0.9152 2.6875-3.9564 4.75-6.7582s3.75-5.4375 3.75-5.8572 1.6429-2.7679 3.6508-5.2184c3.8638-4.7152 8.2495-14.488 11.332-25.251 1.0239-3.575 3.9202-12.575 6.4362-20s4.576-14.441 4.5777-15.59c0.004-2.4431 5.7836-14.41 6.9599-14.41 1.7054 0 3.361 6.0302 2.2787 8.3002-0.57682 1.2099-2.2288 6.6279-3.671 12.04s-3.7342 12.035-5.0934 14.717c-1.3591 2.6821-2.4711 5.4922-2.4711 6.2446 0 5.8783-14.492 37.152-21.121 45.58-1.0332 1.3135-1.8785 2.9473-1.8785 3.6308s-0.65584 1.787-1.4574 2.4523c-0.80158 0.6652-3.3135 4.5914-5.582 8.7247-13.964 25.443-38.741 47.89-70.432 63.809-7.8356 3.9359-9.3201 4.2078-10.217 1.8714zm6.68-21.8c0-2.316 2.3928-8.7616 5.7391-15.46 1.6607-3.3242 6.1594-6.2573 11.609-7.5691 1.5666-0.3772 6.0957-3.7035 10.065-7.3919 3.969-3.6885 10.482-9.4063 14.473-12.706 4.4487-3.6785 9.4002-9.0954 12.797-14 3.0476-4.4 6.8232-9.125 8.3902-10.5 8.0097-7.0284 25.674-49.67 28.572-68.974 2.233-14.871 5.2747-19.34 10.361-15.221 3.4555 2.7981 1.5202 11.438-8.5555 38.196-1.9675 5.225-4.6794 12.749-6.0264 16.719-2.507 7.3902-4.657 11.201-17.013 30.156-21.25 32.6-70.42 79.2-70.42 66.7zm11.014-31.377c0.008-0.4125 4.0562-4.342 8.9966-8.7322 8.1224-7.2179 9.1294-8.5105 10.517-13.5 2.9331-10.548 4.0708-11.857 6.852-7.8863 2.9458 4.2057 14.939-14.736 19.079-30.132 0.96116-3.575 4.3774-11.9 7.5916-18.5s6.4151-14.152 7.1131-16.782c1.6028-6.0396 3.6029-5.8793 5.7515 0.461 0.87216 2.5736 1.9232 5.0111 2.3357 5.4167 1.5114 1.486 0.67614 5.6642-2.3411 11.71-1.7001 3.4066-4.0112 8.6689-5.1358 11.694-2.4087 6.479-7.4209 14.827-14.026 23.36-2.6141 3.3772-5.8123 7.717-7.1071 9.644-7.3502 10.939-39.717 38.095-39.626 33.246zm36.486-241.57c-1.6502-0.75633-3.5601-2.0496-4.2442-2.8739-1.2702-1.5305-5.0984-3.3149-13.458-6.2727-4.8992-1.7336-9.0375-9.273-11.271-20.535-0.38184-1.925-1.6092-7.325-2.7275-12-2.3311-9.7452-1.9915-37.297 0.64594-52.403 0.7589-4.3466 1.1471-9.3368 0.86275-11.089-0.57159-3.5223 2.3908-15.55 6.2234-25.268 1.358-3.4433 2.469-7.2754 2.469-8.5159 0-1.2404 1.7683-5.2814 3.9295-8.9798s4.2006-7.5786 4.532-8.6226c1.5293-4.8184 5.1681-7.1215 11.241-7.1146 3.1888 0.004 9.2003-0.51122 13.359-1.1441l7.5612-1.1507 6.9388 3.3941c10.224 5.0012 16.843 20.031 14.859 33.743-1.7751 12.267-21.175 22.383-38.704 20.182-8.1833-1.0275-8.3045-0.99114-9.0183 2.7072-0.29321 1.5192-1.4875 6.5872-2.6539 11.262-3.9513 15.836-4.2674 18.045-3.0151 21.069 0.8855 2.1378 0.88667 3.6583 0.005 6.3302-0.92999 2.8179-0.85436 4.6673 0.38068 9.3088 0.84768 3.1858 2.0186 7.7048 2.6022 10.042 0.80865 3.2395 1.5391 4.25 3.072 4.25 2.2877 0 7.9094-2.6812 7.9164-3.7757 0.0525-8.2232 21.818-11.9 23.394-3.9519 0.35201 1.7752 2.1948 5.7519 4.0952 8.8372 1.9003 3.0853 4.6326 9.2599 6.0716 13.721l2.6164 8.1117-2.1688 6.5172c-1.98 6.02-5.54 10.59-8.2 10.59-0.50601 0-2.982 0.93937-5.5023 2.0875-5.8392 2.66-17.606 3.5202-21.808 1.5941zm109.76-186.38c-0.58319-2.0625-1.5467-6.675-2.1411-10.25-3.6796-22.131-6.3502-37.392-7.6123-43.5-0.79553-3.85-1.7033-8.8-2.0172-11-3.395-23.791-20.549-59.974-31.936-67.361-15.17-9.85-22.55-17.07-22.55-22.07 0-1.6414 2.5935-1.2623 4.1276 0.60342 0.75484 0.91803 4.1205 3.5055 7.4793 5.75 38.705 25.864 49.734 48.441 56.461 115.58 0.63376 6.325 1.586 12.958 2.1162 14.739 1.6564 5.5664 1.7649 16.51 0.18843 19.011-1.987 3.1517-2.8944 2.8211-4.1162-1.5zm-32.572 0.37019c-0.28879-0.75258-0.84278-5.1375-1.2311-9.7443-0.38831-4.6068-1.0457-8.8259-1.4608-9.3759-0.41513-0.55-1.0814-5.0295-1.4805-9.9544-0.58254-7.188-1.2989-9.97-3.6314-14.103-1.5981-2.8317-4.8858-11.177-7.306-18.546-8.03-24.44-14.9-39.26-20.59-44.41-1.09-0.99-1.99-2.32-1.99-2.96 0-0.63685-1.3949-2.4796-3.0998-4.095-6.5837-6.238-9.5286-12-11.595-22.687-0.68665-3.5507 1.396-3.667 2.7322-0.1526 0.54315 1.4286 2.3647 4.0161 4.0479 5.75 5.7634 5.9371 12.415 14.153 15.911 19.653 3.5546 5.5916 4.4987 6.8785 9.0919 12.393 4.4049 5.2881 9.6282 16.615 12.962 28.107 1.755 6.05 5.4045 18.425 8.11 27.5 4.6844 15.712 4.8939 16.919 4.389 25.269-0.75941 12.561-3.2686 21.51-4.8648 17.351zm17.02-5.87c-1.4983-5.3345-4.5241-18.001-9.2567-38.75-2.5704-11.27-7.1977-27.735-9.3627-33.315-0.6-1.54-1.09-4.16-1.09-5.82 0-5.53-16.76-31.06-28.14-42.86-6.9756-7.232-9.4756-14.026-5.1448-13.982 5.7174 0.0584 34.039 30.43 35.864 38.46 0.37214 1.6378 2.2066 6.5878 4.0766 11 4.3328 10.223 7.562 22.424 11.916 45.022 1.9073 9.9 3.861 19.125 4.3416 20.5 2.7201 7.7819 3.2361 13.965 1.6273 19.499-1.994 6.8593-2.9618 6.9096-4.8319 0.25147zm-55.727-21.269c-1.0229-1.2326-0.97911-1.845 0.23263-3.25 4.812-5.5795 7.2809-12.082 5.8641-15.445-0.76143-1.8072-1.2954-4.6359-1.1866-6.2859 0.60332-9.1515 0.21527-12.858-1.953-18.656-2.9039-7.765-11.192-23.17-14.785-27.48-11.028-13.229-14.593-21.714-9.6431-22.957 2.684-0.67363 5.487 0.93967 5.487 3.1581 0 0.72631 2.4128 3.9337 5.3618 7.1276 2.949 3.1938 5.6685 6.7855 6.0434 7.9814 0.37487 1.1959 1.8493 3.8951 3.2765 5.9982 3.6904 5.4382 10.091 18.376 12.418 25.101 6.6058 19.094 9.0589 27.857 8.587 30.675-0.98118 5.8609-2.5205 8.5495-4.9116 8.5784-1.4228 0.0172-3.211 1.3177-4.7748 3.4725-2.7725 3.8204-7.683 4.7918-10.016 1.9812zm-7.62-33.73c-1.0948-1.2375-3.4936-5.625-5.3307-9.75s-4.1085-8.625-5.0475-10-2.6336-4.6156-3.7659-7.2012c-1.6615-3.7944-2.7005-4.8674-5.3864-5.5628-5.6456-1.4616-7.9666-9.6244-3.6053-12.679 3.7655-2.6374 5.3606-1.9183 7.5775 3.4162 1.1367 2.7351 3.3708 6.8976 4.9648 9.25 5.0862 7.506 16.577 31.445 15.918 33.162-0.86817 2.2624-2.9843 2.01-5.3243-0.63506zm-139.48 564.5c1.9506-4.7709 4.1183-14.208 4.1183-17.93 0-1.97 0.65056-7.9105 1.4457-13.201 5.6454-37.564 5.0659-55.075-1.602-48.408-1.9282 1.9283-2.1717 3.4677-2.5245 15.961-0.21475 7.6048-0.79113 15.177-1.2808 16.827-0.48972 1.65-1.1827 7.95-1.54 14-0.35727 6.05-1.2906 13.84-2.074 17.312-1.485 6.5805-1.9083 16.371-0.75771 17.521 1.4096 1.4097 3.1358 0.5565 4.215-2.0833zm16.937-36.821c7.3348-21.67 10.645-42.845 6.8461-43.799-5.3491-1.3425-6.4642 0.2895-7.7681 11.369-1.2334 10.481-2.4023 18.023-4.4489 28.707-2.7581 14.398 0.89955 16.933 5.3709 3.7223zm-134.4-16c2.2229-0.853 2.0824-5.3842-0.16821-5.4239-0.9625-0.017-5.125-0.4732-9.25-1.0138-12.142-1.5914-19 0.2552-19 5.1161 0 1.9551 23.874 3.0654 28.418 1.3216zm-73.109-10.521c0.69308-1.0987 0.002-2.9864-2.5418-6.9405-1.9216-2.9871-4.675-7.5273-6.1188-10.089-1.4437-2.5619-4.1166-6.6121-5.9397-9.0005-6.1378-8.0409-21.929-45.565-24.763-58.842-0.41082-1.925-1.7509-6.2-2.978-9.5s-2.5749-9.6189-2.9953-14.042c-0.42032-4.423-1.7646-11.398-2.9873-15.5-3.8377-12.875-5.8472-35.955-5.1895-59.605 1.3099-47.101 0.13352-79.853-2.868-79.853-1.1934 0-1.4101 3.2858-1.3189 20 0.06002 11 0.20514 39.265 0.32248 62.812 0.16692 33.494 0.52432 43.941 1.6423 48 1.7946 6.5163 4.0273 17.945 5.4091 27.688 0.58501 4.125 2.6735 12 4.6411 17.5s4.483 13.15 5.5899 17 4.6028 12.44 7.7687 19.089c3.166 6.6492 6.3237 13.849 7.0171 16 0.69348 2.1508 1.6047 4.3606 2.0249 4.9106 0.42021 0.55 2.4463 4.15 4.5024 8 3.7499 7.0215 11.583 19.454 14.349 22.774 1.6473 1.9775 3.0099 1.8538 4.4331-0.4026zm66.051-5.5076c4.8689-0.6674 6.8079-4.318 3.0578-5.7571-2.5851-0.992-32.789-0.6587-34.418 0.3798-6.6233 4.2222 13.995 7.7575 31.36 5.3773zm-59.42-10.6c-0.0323-1.2375-2.492-6.075-5.4659-10.75-6.3318-9.9536-12.811-23.025-14.9-30.058-0.81194-2.7341-2.5817-7.5521-3.9329-10.707-1.3511-3.1547-3.6613-8.8857-5.1338-12.736-1.4724-3.85-3.2862-8.35-4.0306-10-3.9828-8.8284-5.5122-13.205-8.5622-24.5-3.2367-11.987-4.2356-19.531-5.9581-45-1.157-17.107-1.4008-23.64-2.3468-62.893-0.31007-12.866-0.80696-23.636-1.1042-23.933-4.9366-4.9366-3.2315 92.737 1.9979 114.44 1.3723 5.6958 2.495 11.118 2.495 12.049 0 0.9312 0.44011 3.075 0.97803 4.764 0.53792 1.6891 1.8367 5.771 2.8863 9.071 1.0495 3.3 2.4793 8.25 3.1771 11 0.69788 2.75 1.5857 5.45 1.973 6 0.38726 0.55 0.98118 2.4625 1.3198 4.25 0.33864 1.7875 1.4842 5.1625 2.5456 7.5 1.0615 2.3375 2.6984 6.95 3.6376 10.25 0.93919 3.3 2.557 7.4031 3.5951 9.118 1.0381 1.715 1.8874 3.7603 1.8874 4.5452 0 1.8089 9.38 20.197 14.847 29.104 2.2843 3.7222 4.1533 7.1197 4.1533 7.55 0 1.3978 2.3553 3.1824 4.2 3.1824 1.2174 0 1.781-0.7282 1.7412-2.25zm55.485-17.11c6.3938-4.1893 3.0946-5.3613-18.434-6.5483-10.721-0.5911-20.454-1.3428-21.63-1.6705-2.6046-0.726-3.756 0.8758-2.947 4.0995 1.3481 5.3711 36.03 8.6928 43.01 4.1193zm-61.39-10.9c-0.79324-3.3919-3.1247-9.133-5.7869-14.25-3.737-7.1828-5.1464-10.302-6.7775-15-8.0337-23.138-10.489-29.825-11.323-30.834-0.52987-0.6414-1.2625-2.9662-1.6281-5.1662-0.36557-2.2-1.5335-8.3745-2.5955-13.721-1.951-9.8-3.111-50.16-2.901-100.85 0.076-18.41-0.26-20.95-2.768-20.95-1.3673 0-1.4599 4.8053-0.8468 43.96 0.62051 39.63 0.52687 44.272-0.95052 47.129-4.4576 8.62 4.9111 50.62 17.044 76.41 5.3579 11.389 8.3202 18.224 9.534 22 3.1362 9.756 10.926 19.496 8.9974 11.25zm216.5 0.1745 2.5622-2.5622-2.6675-5.1415c-3.4491-6.6479-7.7038-8.1165-26.425-9.1209-7.8745-0.4225-14.507-1.2708-15.915-2.0358-3.1382-1.704-20.226-0.8902-28.585 1.3613-15.71 4.2319-13.795 16.098 2.8438 17.615 4.706 0.4289 9.0022 1.0555 9.5472 1.3923 0.54502 0.3369 7.8889 0.1509 16.32-0.4132 12.743-0.8527 16.085-0.7806 19.809 0.4276 7.4927 2.4305 19.36 1.6278 22.51-1.5225zm-156.73-1.2c1.391-1.391 1.5002-2.7787 0.35999-4.5754-0.9454-1.4897-20.435-4.3003-33.533-4.8356-4.88-0.1995-10.505-0.8161-12.5-1.3703-5.1696-1.4359-8.1273-1.2736-8.1273 0.4461 0 1.8971 3.1099 3.5352 6.7118 3.5352 1.5638 0 3.8742 0.7221 5.1342 1.6047 4.4586 3.1229 15.234 4.8841 38.204 6.2443 1.4025 0.083 3.09-0.389 3.75-1.049zm-6.6518-14.8c0.54155 0 0.84224-1.2078 0.66821-2.6839-0.37954-3.2194-1.9253-3.7529-16.816-5.8047-5.775-0.7957-13.754-1.9735-17.731-2.6173-7.86-1.3-10.27-0.5-10.27 3.2 0 3.2037 34.549 9.9582 41.832 8.1783 0.73248-0.179 1.7749-0.3255 2.3164-0.3255zm165.48-15.75c0.42232-3.1625 0.68284-6.0781 0.57892-6.4791s0.28726-13.37 0.86929-28.819c1.1499-30.522 1.0924-30.952-4.1356-30.952-4.2076 0-4.4261 0.98177-4.5612 20.5-0.15068 21.771-0.8912 39.019-1.8657 43.456-1.0595 4.8238 0.97723 8.0442 5.0873 8.0442 3.2119 0 3.2702-0.083 4.0269-5.75zm-13.125-6.5c0.35353-2.8875 0.53009-9.525 0.39236-14.75s-0.16934-16.18-0.0702-24.344c0.20265-16.695 0.30007-16.264-3.8095-16.867-5.5077-0.8084-8.0583 49.546-2.9299 57.844 3.22 5.2101 5.6357 4.5016 6.4173-1.882zm-14.941 3.1556c0.37199-0.6018 0.79929-9.7143 0.94956-20.25 0.15026-10.536 0.60223-23.723 1.0044-29.305 0.70222-9.7477 0.64566-10.195-1.4283-11.305-6.697-3.5841-8.0465 1.5838-8.6751 33.221l-0.50142 25.234 2.7963 1.7234c3.2642 2.0118 4.9141 2.204 5.8546 0.6822zm-32.943-4.6556c0.35935-1.5125 1.2181-3.425 1.9084-4.25 0.69026-0.825 1.5292-4.425 1.8643-8 0.33508-3.575 1.0241-10.325 1.5312-15 0.50705-4.675 0.95769-14.676 1.0014-22.224l0.07-13.65-2.8994-1.4993c-4.9533-2.5614-5.3843-1.1861-8.6031 27.448-2.6596 23.66-2.5446 35.711 0.36329 38.078 3.1587 2.5714 3.9808 2.4282 4.7545-0.8281zm-115.2-6.857c2.1541-0.8266 2.0295-5.1201-0.16821-5.7981-4.3848-1.3528-21.95-3.6618-26.334-3.4618-3.4764 0.1586-5.4213-0.2803-6.8096-1.5366-2.7532-2.4916-10.947-2.7006-12.47-0.318-1.6393 2.5646 0.64256 3.6876 7.5311 3.7062 4.0834 0.011 7.1111 0.7402 10.831 2.6084 2.8395 1.4262 8.389 3.0397 12.332 3.5856 3.9432 0.5458 7.3569 1.1789 7.586 1.4068 0.62999 0.6267 5.7063 0.4964 7.5015-0.1925zm-7.62-31.5c4.2662-4.2662 0.96103-6.1106-14.8-8.2591-6.875-0.9373-15.01-2.3798-18.077-3.2056-7.2919-1.9634-11.326-1.5185-11.727 1.2933-0.25044 1.7557 0.3629 2.2537 3.5 2.8418 2.092 0.3922 4.9286 1.3146 6.3036 2.0497 2.1903 1.171 20.049 4.8205 28.5 5.824 1.65 0.1959 3.4725 0.4237 4.05 0.5061 0.5775 0.082 1.59-0.3902 2.25-1.0502zm171.99-44.73c0.29695-10.773-0.11801-12.02-4.0112-12.055-5.9785-0.0531-6.681 20.146-0.77568 22.302 4.0474 1.4775 4.4898 0.53048 4.7868-10.247zm-16.313 8.5727c1.2866-0.94082 1.938-2.8584 2.1229-6.25 0.95-17.53 0.8-23.39-0.6-23.39-0.55 0-1 0.66213-1 1.4714 0 0.81999-1.4358 1.8434-3.2431 2.3118-3.8065 0.98636-4.6045 3.7687-4.6993 16.385-0.0818 10.881 1.9474 13.473 7.4163 9.4745zm-27.915-2.06c5.3308-3.8922 2.8381-31.942-2.7901-31.396l-3.2326 0.31341-1.1972 10.239c-0.65846 5.6314-1.4656 11.084-1.7936 12.118-1.8606 5.8621 4.5009 12.021 9.0134 8.7258zm59.221-11.784 0.27942-12.677-3.5652-1.6918c-4.1491-1.9689-4.3793-1.8346-5.5573 3.2408-2.435 10.492-0.82392 21.618 3.379 23.334 4.8806 1.9931 5.1651 1.3575 5.464-12.206zm25.22 11.07c5.66-3.4318 6.1527-5.4705 3.3744-13.965-2.5399-7.7652-9.7352-9.0043-18.522-3.1896-4.64 3.07-5.59 11.28-1.31 11.28 0.72909 0 1.602 0.87089 1.9399 1.9353 1.6138 5.0848 9.2232 7.147 14.521 3.9351zm-109.59-5.2684c4.0712-1.701 4.5962-2.4994 6.2106-9.444 2.8421-12.226-8.1138-19.384-14.783-9.658-8.197 11.955-2.8483 23.874 8.5721 19.102zm-105.45-47.05c3.4434-4.149-1.0354-6.3672-13.105-6.4904-3.1046-0.0317-8.5046-0.90028-12-1.9302s-8.3394-1.9524-10.764-2.0499c-2.4249-0.0975-5.1988-0.60004-6.1642-1.1167-3.9925-2.1367-16.4-1.6493-16.729 0.65726-0.369 2.58 5.484 4.38 14.287 4.38 4.2327 0 6.1274 0.49226 7.7642 2.0172 2.7435 2.556 6.9608 3.6664 18.251 4.8054 13.8 1.3922 17.118 1.3428 18.46-0.27458zm197.53-2.5236c0.35945-1.6366 0.37507-3.4262 0.0347-3.9769-0.34037-0.55073-0.15874-2.71 0.40361-4.7985 0.56236-2.0884 1.2476-9.6363 1.5229-16.773 0.27523-7.1368 0.75949-15.676 1.0762-18.976 0.31665-3.3 0.7327-12.75 0.92456-21s0.8426-20.625 1.4461-27.5c0.60349-6.875 1.5932-19.925 2.1994-29 0.60619-9.075 1.5339-21 2.0615-26.5 2.0269-21.127 2.6354-30.029 4.2398-62.02 0.9108-18.161 1.5301-39.311 1.3763-47l-0.28-13.99-2.7495-0.31638c-4.9181-0.5659-5.3144 2.8573-7.7916 67.316-0.59184 15.4-1.4972 29.575-2.0119 31.5-0.51471 1.925-0.93947 8-0.9439 13.5-0.004 5.5-0.71268 19.675-1.5739 31.5-0.8612 11.825-1.7628 24.875-2.0036 29-0.24081 4.125-0.88744 13.8-1.437 21.5-0.54951 7.7-1.4259 23.225-1.9475 34.5-0.52163 11.275-1.2577 26.238-1.6358 33.25l-0.68 12.75h3.5616c3.1377 0 3.6393-0.35412 4.2151-2.9756zm-64.899 1.2103c1.7385-1.1654 2.346-5.0109 4.0282-25.498 1.6233-19.771 1.7528-21.658 3.4112-49.737 0.53603-9.075 1.6398-23.7 2.4528-32.5s1.9618-28.15 2.5529-43c0.59109-14.85 1.5129-30.6 2.0486-35 4.6108-37.876 3.9587-92.454-1.0958-91.712-5.3955 0.7919-6.5341 9.0456-7.5472 54.712-0.31724 14.3-1.07 28.25-1.6728 31-0.60279 2.75-1.1864 9.725-1.2968 15.5-0.11047 5.775-0.71609 16.35-1.3458 23.5-1.8439 20.936-3.1106 39.108-3.6594 52.5-0.28176 6.875-0.95969 16.775-1.5065 22-0.54683 5.225-1.1782 14-1.403 19.5-0.22484 5.5-1.0025 17.65-1.7281 27-2.3428 30.19-0.9169 36.882 6.7619 31.735zm27.847-1.4572c1.0733-1.5323 1.5578-4.5601 1.5601-9.75 0.002-4.1401 0.44561-12.477 0.98608-18.527 0.9213-10.313 3.1232-42.583 3.207-47 0.0209-1.1 0.67907-7.175 1.4626-13.5 0.78358-6.325 1.855-26.125 2.3809-44 0.52593-17.875 1.3574-36.55 1.8477-41.5s0.95925-12.6 1.0421-17c0.0829-4.4 0.56003-9.575 1.0604-11.5 0.50035-1.925 1.2245-18.858 1.6092-37.629l0.69952-34.129-2.7708-1.8155c-5.2911-3.4669-5.5798-1.9851-7.6108 39.073-0.57133 11.55-1.7344 32.925-2.5846 47.5-0.85019 14.575-1.8941 35.05-2.3197 45.5-1.0266 25.205-2.6644 48.296-4.4684 63-1.4572 11.877-2.0048 22.406-3.1602 60.755-0.70203 23.302 1.2128 28.869 7.0586 20.523zm21.85-6.53c0.26778-2.6125 1.1898-12.521 2.049-22.019 0.8592-9.4978 1.862-17.754 2.2284-18.347 0.36643-0.59288 0.82584-8.2581 1.0209-17.034 0.19508-8.7757 0.61804-16.382 0.93991-16.903 0.71428-1.1557 2.3737-28.999 2.9469-49.448 0.43134-15.386 1.3256-37.578 2.015-50 0.21364-3.85 0.63319-19.15 0.93234-34 0.29914-14.85 0.83758-34.89 1.1965-44.533 0.77073-20.706-0.12951-24.34-5.8901-23.776-4.3851 0.42974-4.3756 0.33732-5.2589 51.309-0.41936 24.2-0.87018 47.15-1.0018 51-1.1931 34.892-1.667 46.274-2.5397 61-0.55417 9.35-1.447 25.775-1.984 36.5-1.0402 20.773-2.438 39.46-3.927 52.5-0.50242 4.4-0.93777 12.097-0.96742 17.105l-0.0539 9.1053 3.25 1.0426c1.7875 0.57342 3.5441 1.0885 3.9035 1.1447 0.35941 0.0562 0.87258-2.0354 1.1404-4.6479zm-178.4-2.6232c2.0157-2.4288 0.19928-4.3875-4.7121-5.0815-9.3975-1.3278-26.531-5.9573-28.928-7.8161-1.34-1.04-6.25 1.53-6.25 3.27 0 2.6672 12.154 7.3847 23 8.9271 4.125 0.58663 8.625 1.2317 10 1.4336 4.8859 0.71719 5.7685 0.62324 6.8948-0.73392zm-32.2-45.96c17.43-8.6 29.31-16.53 29.31-19.57 0-1.0084 0.96662-3.0623 2.148-4.5642s2.2692-3.8341 2.4172-5.1826c0.14803-1.3485 0.82053-3.1162 1.4945-3.9282 0.67392-0.81203 0.93894-1.7628 0.58894-2.1128-0.99102-0.99102-4.5654 2.7043-6.415 6.6319-2.8494 6.051-14.936 16.803-20.826 18.527-2.8008 0.8196-6.2468 2.3982-7.6577 3.508-1.41 1.11-2.95 2.02-3.42 2.02-1.85 0-11.33 7.14-11.33 8.53 0 2.4061 2.3144 1.7538 13.691-3.8589zm-7.9101-9.5989c6.5228-3.2621 12.477-6.6751 13.232-7.5844 0.75464-0.90928 3.423-3.0361 5.9296-4.7262s6.1325-4.548 8.0575-6.3507c1.925-1.8028 4.777-4.3302 6.3377-5.6164 2.3403-1.9288 6.6385-11.189 7.9677-17.166 0.39349-1.7694-2.3269-1.7313-2.9933 0.0418-2.2241 5.9181-9.7653 16.221-13.688 18.7-2.367 1.4962-6.0632 4.5284-8.2139 6.7382-3.3799 3.473-20.895 13.016-31.16 16.977-3.6265 1.3994-2.6695 4.5695 1.4609 4.8388 0.66597 0.0434 6.5477-2.5901 13.07-5.8522zm-13.746-6.6407c4.1057-1.4145 10.302-3.3886 13.768-4.3869 3.467-0.99829 6.617-2.0966 7-2.4407 15.447-13.877 24.057-26.466 23.038-33.682-0.33891-2.3993-0.35794-2.3938-2.3417 0.67827-7.859 12.171-12.955 19.067-14.823 20.058-1.1972 0.63563-3.2332 2.5895-4.5246 4.3419s-3.7664 3.852-5.5 4.6657c-1.732 0.82-4.725 2.33-6.65 3.36-1.925 1.0343-4.4163 1.9021-5.5362 1.9286-3.7862 0.0893-13.949 4.6119-14.285 6.3572-0.43846 2.2767 1.0864 2.1404 9.8561-0.88099zm-42.435-115.59c0.39452-0.63835 0.6393-3.6758 0.54395-6.75-0.688-22.19 13.84-87.34 23.881-107.09 0.97877-1.925 2.3593-5.075 3.0679-7 0.70857-1.925 3.4686-7.325 6.1334-12s5.1174-9.625 5.4503-11c0.33289-1.375 1.8922-4.4351 3.465-6.8001 3.2-4.81 3.521-6.2 1.436-6.2-1.656 0-8.577 10.62-8.577 13.16 0 0.94724-0.41717 1.9801-0.92704 2.2952-0.50987 0.31512-1.4653 2.2542-2.1232 4.309-0.65787 2.0548-2.0242 4.6475-3.0363 5.7614-4.602 5.06-16.627 35.38-21.999 55.47-1.1033 4.125-2.8558 10.2-3.8944 13.5-4.103 13.036-8.8168 60.37-6.2661 62.921 0.91455 0.91455 2.0655 0.67917 2.8448-0.58178zm21.594-15.079c0.86969-14.161 2.3408-28.126 3.82-36.261 0.50002-2.75 1.4117-7.876 2.026-11.391 1.3618-7.7923 9.4151-36.405 11.472-40.76 0.819-1.73 1.489-3.45 1.489-3.81 0-0.35956 0.86711-2.5572 1.9269-4.8836s2.2504-5.5642 2.6458-7.1951c0.39541-1.6309 1.53-4.1271 2.5213-5.547 2.1246-3.0432 6.1725-12.985 5.5431-13.614-4.0794-4.0794-20.783 37.719-30.649 76.697-1.4637 5.7826-5.0817 34.877-5.5007 44.234-0.21513 4.8043-0.67932 10.271-1.0315 12.149-0.50671 2.701-0.25582 3.6304 1.2019 4.4526 3.0678 1.7303 3.6818-0.1752 4.5355-14.076zm9.558 10.99c0.54788-0.6875 1.2965-5.075 1.6637-9.75 2.3961-30.511 8.097-59.166 16.612-83.5 6.5691-18.773 12.751-33.885 15.552-38.018 2.9904-4.4123 3.6122-7.4718 1.6698-8.2172-2.24-0.85955-6.8258 4.9225-8.8649 11.177-0.9068 2.7816-1.9656 5.5074-2.3529 6.0574s-1.7189 3.7-2.959 7c-3.243 8.6295-5.1249 13.323-7.6183 19-6.6063 15.042-12.549 43.199-15.935 75.5-0.83597 7.975-1.7842 16.188-2.1073 18.25-0.6207 3.963 1.9799 5.4611 4.3397 2.5zm-21.433-2.2108c0.97974-0.97974 1.6928-4.8489 2.1656-11.75 0.38765-5.6591 1.3689-14.564 2.1806-19.789 0.81169-5.225 1.7076-11.525 1.991-14 0.55511-4.849 8.2005-36.849 9.1984-38.5 0.33242-0.55 1.8294-4.6 3.3267-9 1.4972-4.4 3.7827-10.925 5.0789-14.5 2.6972-7.4395 13.847-29.835 17.374-34.898 2.721-3.9 3.027-6.1 0.851-6.1-3.7688 0-21.344 36.796-27.942 58.5-1.5048 4.95-3.7809 12.16-5.0581 16.022-1.2772 3.8621-3.0404 10.837-3.9183 15.5-0.87788 4.6629-2.2631 10.792-3.0782 13.62-0.81514 2.8279-2.3816 12.728-3.4811 22-2.8269 23.84-2.654 26.861 1.3098 22.898zm303.42-110.36c1.91-1.21 3.26-10.38 3.26-22.21 0-5.9148 0.72356-21.941 1.6079-35.614 2.5194-38.952 1.3262-50.216-5.3322-50.337-2.4765-0.045-4.191 5.3982-3.5763 11.354 0.60506 5.8625-0.14717 13.832-4.2938 45.489-2.9501 22.522-3.0708 30.578-0.53618 35.79 2.5582 5.261 4.1306 10.463 4.1306 13.666 0 2.7441 2.0691 3.5572 4.7383 1.8619zm-93.781-8.5531c0.58271-1.7656 1.5226-10.167 2.0887-18.67 1.1011-16.539 2.0789-26.137 3.841-37.701 3.99-26.2 3.66-40.26-0.96-40.26-4.57 0-5.93 3.83-5.93 16.76 0 5.9733-0.85471 17.133-1.8994 24.8-3.4012 24.961-4.8369 57.428-2.6114 59.055 2.3151 1.6929 3.9987 0.46557 5.4679-3.986zm25.746 1.8101c2.8352-1.8334 3.1044-3.6611 4.3363-29.44 0.56507-11.825 1.2254-25.55 1.4674-30.5 1.9974-40.86 0.34178-52.48-6.2783-44.063-1.6804 2.1363-2.0015 4.8781-2.6059 22.25-0.37912 10.897-1.5728 31.063-2.6526 44.813-3.3898 43.164-3.4356 42.869 5.7332 36.94zm47.156 0.2021c0.50851-0.62807 1.1587-4.5169 1.4448-8.6419 0.28612-4.125 1.2442-16.95 2.1291-28.5 2.059-26.875 2.287-66.428 0.38984-67.631-2.8425-1.8022-5.6454-0.95742-6.2396 1.8807-2.5422 12.144-4.5146 34.144-4.5051 50.25 0.004 6.325-0.67949 15.55-1.5182 20.5-3.8278 22.591 0.97429 41.189 8.2992 32.142zm-22.1-5.64c0.71905-3.025 1.725-12.25 2.2355-20.5 0.51046-8.25 1.6168-21.525 2.4584-29.5 3.0671-29.061 1.145-45.561-5.5101-47.301-5.0524-1.3212-6.1019 4.0078-6.0127 30.532 0.0482 14.336-0.38436 26.726-1.0569 30.27-4.8582 25.602 2.4431 59.397 7.8858 36.5zm39.155-106.25c6.6512-16.931 2.5133-72.979-4.5447-61.559-1.0997 1.7794-1.3244 60.013-0.2395 62.059 1.2929 2.4386 3.7298 2.1839 4.7842-0.5zm-37.713-0.70374c6.0454-4.7553 6.5446-67.748 0.52978-66.853-3.8198 0.56817-5.8005 9.1432-4.8777 21.117 0.43192 5.6044 0.60374 14.24 0.38182 19.19-0.22193 4.95-0.45495 10.125-0.51782 11.5-0.31134 6.8085 0.36907 17 1.135 17 0.47583 0 1.9828-0.87918 3.3489-1.9537zm-23.527 0.16808c4.9648-3.1569 8.3206-65.358 3.5626-66.034-1.3079-0.18576-2.25 0.20595-2.25 0.93555 0 0.6903-0.86779 2.1841-1.9284 3.3196-1.7795 1.905-1.979 4.3203-2.583 31.276-0.70703 31.549-0.5657 32.897 3.1989 30.503zm46.132-2.7173c1.4776-3.2431 2.9234-15.891 4.1717-36.497 1.3133-21.679 1.2923-22.677-0.49111-23.362-5.5165-2.1169-6.9321 3.4422-7.9862 31.362-0.25956 6.875-0.76801 16.662-1.1299 21.75l-0.65797 9.25h2.4765c1.672 0 2.847-0.81314 3.6169-2.503zm-95.859 0.051c2.7582-3.3234-5.3418-11.136-8.6764-8.3686-2.1059 1.7477-1.6138 6.9215 0.71624 7.5308 1.1 0.28766 2 0.92053 2 1.4064 0 1.4461 4.6568 1.0019 5.9601-0.56859zm32.929-7.298c5.1511-19.92 5.2242-58.75 0.11057-58.75-3.7367 0-4.9606 4.758-4.7584 18.5 0.0931 6.325-0.19742 18.326-0.6455 26.669-0.85 15.92-0.65 17.33 2.43 17.33 1.3575 0 2.178-1.072 2.8706-3.75zm-28.496-3.8318c1.4816-3.861 0.59316-6.2634-3.143-8.4984-2.0625-1.2338-4.7718-3.1577-6.0206-4.2752-2.9719-2.6595-5.8859-0.39653-4.8426 3.7606 1.2798 5.099 12.69 12.442 14.006 9.0131zm2.775-14.825c1.78-3.57 1.01-5.6-2.11-5.6-0.85426 0-3.7685-1.575-6.476-3.5-6.4852-4.6108-10.074-4.7649-9.1998-0.39513 0.63971 3.1986 4.3011 7.8473 6.2047 7.8778 0.59162 0.01 2.1326 1.1423 3.4243 2.5173 3.29 3.5021 6.1345 3.1864 8.1681-0.90655zm1.2887-20.052c2.0843-8.3702 1.9038-8.9196-4.1637-12.67-1.9152-1.1836-4.5441-3.2141-5.8421-4.5121-4.5094-4.5094-8.2029-2.7429-6.577 3.1457 0.54976 1.9911 0.61893 4.7756 0.15851 6.381-1.1694 4.0774 1.2856 8.4731 6.7556 12.096 6.8167 4.5152 7.5186 4.1928 9.6686-4.4414zm1.0368-19.521c0.95604-3.0122-2.1916-6.5833-12.746-14.461-7.7436-5.7795-9.5339 1.7779-1.9383 8.1826 9.3751 7.9052 13.595 9.7094 14.684 6.278zm66.83-6.28c2.6197-1.9284 5.3103-59.051 3.1082-65.989-0.8162-2.5716-4.8265-1.9433-5.2211 0.81806-0.16341 1.1433-1.6611 3.5721-3.3281 5.3972-2.1954 2.4037-2.8512 3.8982-2.3787 5.4213 1.0019 3.2297 2.3917 26.585 2.4509 41.186 0.0608 15.01 0.70824 16.597 5.3689 13.167zm-41.958-6.2507c2.9789-2.9789 3.7634-10.307 5.2723-49.249 0.62242-16.064 0.60544-16.25-1.4799-16.25-4.659 0-6.4226 6.6601-6.6192 24.996-0.0973 9.077-0.54669 21.522-0.9986 27.655-1.021 13.857-0.14067 16.814 3.8254 12.847zm60.06-2.75c0.25097-1.2375 0.7254-3.5165 1.0543-5.0645 0.69545-3.2732 3.0787-22.917 4.0563-33.433 0.52109-5.6057 0.27938-8.4376-1.0669-12.5-0.95735-2.8888-1.8888-5.8148-2.0699-6.5023-0.65462-2.4853-4.3273-1.3726-4.9508 1.5-0.32827 1.5125-1.1144 3.812-1.7469 5.1099-0.86851 1.7823-1.5624 49.936-0.76209 52.89 0.41756 1.5416 5.115-0.1709 5.4859-2zm19.555 0.30015c4.9087-9.172 4.2185-56.113-0.83622-56.869-3.646-0.54568-7.7591 52.753-4.4813 58.069 0.9105 1.4769 4.2935 0.71354 5.3175-1.1998zm-104.36-0.48016c1.5873-4.1365-11.453-18.39-15.616-17.069-3.0981 0.98329-2.3884 4.246 2.0104 9.2433 6.985 7.9354 12.374 11.035 13.605 7.8254zm48.838-0.51433c4.17-4.63 6.12-63.06 2.09-63.06-3.9576 0-7.9505 6.924-6.7727 11.744 0.64129 2.6245 0.98092 8.7892 0.75783 13.756-0.22234 4.95-0.71185 15.371-1.0878 23.157-0.80765 16.727 0.21776 19.681 4.9986 14.398zm-47.46-17.63c0-5.193-13.573-17.051-17.055-14.899-2.6253 1.6225-0.62114 5.4425 6.4552 12.304 8.1313 7.8845 10.6 8.4888 10.6 2.5953zm0.2865-16.737c1.3762-3.5863-12.013-17.275-16.13-16.491-3.1368 0.5975-2.3889 4.2883 1.797 8.8676 2.2255 2.4347 4.0464 4.7081 4.0464 5.0522 0 2.3267 9.4718 4.6942 10.286 2.5711zm-1.34-15.44c-0.18208-7.0515-15.653-20.783-18.403-16.334-1.5219 2.4625 8.5375 15.014 12.076 15.067 0.62015 0.009 1.6878 0.69194 2.3724 1.5169 1.6935 2.0405 4.0102 1.894 3.9548-0.25zm5.05-20.32c0-4.0334-10.105-15.825-13.628-15.902-0.62-0.02-1.69-0.71-2.37-1.53-2.1953-2.6452-4-1.775-4 1.9288 0 2.5453 0.85273 4.2846 3.3094 6.75 8.1296 8.1585 13.794 12.704 15.941 12.791 0.4125 0.0167 0.75-1.8024 0.75-4.0424zm65.22-3.9332c2.0448-8.9379 4.7622-55.345 3.3249-56.783-1.1212-1.1212-3.8916 1.329-4.8904 4.3253-0.53054 1.5916-1.7569 3.5845-2.7252 4.4286-2.5676 2.2382-3.5015 49.584-1.0073 51.064 2.7039 1.6046 4.4675 0.59408 5.2979-3.0356zm-19.9-1.25c4.6561-3.4091 7.8246-59.75 3.3602-59.75-4.4666 0-8.9521 14.251-7.3963 23.5 0.50056 2.9754 0.4099 8.963-0.22393 14.789-2.0906 19.218-0.89597 25.236 4.26 21.461zm-24.257-3.332c3.3065-3.9841 6.6056-60.918 3.53-60.918-2.0735 0-2.4404 0.55029-5.6158 8.4238-1.888 4.6813-3.399 43.389-2.0817 53.326 0.17581 1.3262 2.8133 0.79968 4.1675-0.83204zm61.551 0.81673c2.0481-1.3445 6.0719-43.144 4.71-48.928-2.5157-10.684-9.8706-2.4637-8.9525 10.006 0.33152 4.5028 0.22594 14.487-0.23462 22.187-0.9658 16.147-0.019 19.686 4.4771 16.735zm22.628-2.4889c2.7629-4.2167 4.9407-43.617 2.7738-50.183-1.8085-5.4799-4.3485-4.4445-5.1492 2.0991-0.34565 2.8245-1.0002 5.737-1.4545 6.4721-0.87832 1.4211-1.6154 41.736-0.7876 43.075 0.92225 1.4922 3.1418 0.78869 4.6176-1.4637zm-103.24-3.77c0-4.3817-17.533-20.051-19.847-17.737-2.3339 2.3339-0.97154 4.6612 7.0964 12.123 8.4824 7.8453 12.75 9.7246 12.75 5.6142zm-4-19.89c0-3.56-10.01-14.09-13.39-14.09-2.9908 0-0.069 6.9869 5.1105 12.221 6.8193 6.8912 8.2813 7.2204 8.2813 1.8651zm2.6413-10.594c0.68532-1.7859-1.7041-5.79-6.0258-10.098-1.7135-1.7079-4.3575-4.5718-5.8754-6.3642-2.99-3.54-5.74-2.97-5.74 1.18 0 6.1593 15.867 19.897 17.641 15.274zm4.1376-14.57c0.31-3.86-11.22-16.93-14.93-16.93-5.7865 0-1.7109 7.1736 11.13 19.59 2.1794 2.1074 3.4894 1.1888 3.8038-2.6673zm-1.78-17.56c0-1.4969-2.0241-4.588-5.431-8.2938-2.9871-3.2492-6.1486-7.2953-7.0257-8.9913-2.6323-5.0904-8.2412-3.0311-6.6363 2.4365 2.8915 9.8504 19.093 22.45 19.093 14.849zm47.429-0.9403c0.86429-0.86428 1.5855-2.1018 1.6026-2.75 0.0172-0.64821 0.65701-6.4394 1.4219-12.869 0.76489-6.4298 1.2097-12.505 0.98837-13.5-0.22128-0.99514-0.55884-4.0594-0.75012-6.8094-0.48943-7.0365-4.0108-7.8493-5.6854-1.3123-0.60758 2.3718-1.3412 4.9873-1.6302 5.8123-0.78045 2.2277-1.5438 30.919-0.85234 32.038 0.89024 1.4404 3.1341 1.1617 4.9052-0.60931zm17.5-13.18c2.3957-21.605 1.858-28.25-2.286-28.25-3.4925 0-4.4228 3.3142-4.51 16.067-0.043 6.2881-0.36277 13.761-0.71058 16.607-0.75 6.16-0.2 7.33 3.45 7.33h2.7532l1.303-11.75zm19.489 6.5c3.75-18.59 3.03-37.75-1.42-37.75-3.4211 0-7.356 34.379-4.4695 39.049 1.2123 1.9616 5.4146 1.034 5.8859-1.2993zm-61.467-0.65598c4.05-7.57 4.43-37.09 0.48-37.09-4.1704 0-8.8471 33.383-5.279 37.682 1.5605 1.8802 3.6124 1.6289 4.7987-0.58787zm83.137-0.69899c3.9513-4.761 1.4593-36.032-2.806-35.21-2.5513 0.49157-3.194 4.9309-2.8805 19.894 0.33007 15.749 1.8748 19.91 5.6864 15.317zm-102.76-6.5498c1.523-2.4144 0.0322-6.2026-3.19-8.106-1.6206-0.95729-4.1022-3.7125-5.5146-6.1228-3.0137-5.1425-5.5068-6.4934-7.3448-3.9798-1.7161 2.3469-1.6081 3.6108 0.47362 5.5439 0.9625 0.89379 2.875 3.3092 4.25 5.3677 5.81 8.6978 9.1036 10.82 11.326 7.297zm1.67-14.34c0-2.3363-8.0648-14.595-10.089-15.336-2.8607-1.0471-0.75102 8.7548 2.8393 13.192 4.2081 5.2001 7.25 6.1 7.25 2.1446zm-18.543-31.054c1.2889-3.0848 1.7416-3.413 3.4477-2.5 7.38 3.9496 9.5669-4.7364 4.9533-19.674-1.3077-4.2338-1.851-8.0609-1.5169-10.686 0.28623-2.2493 0.71269-6.5646 0.94768-9.5896 0.235-3.025 1.5755-8.875 2.9788-13 1.5848-4.6582 2.8062-11.036 3.2236-16.833 1.389-19.29 9.9786-36.167 18.407-36.167 0.55096 0 3.0882-1.4625 5.6384-3.25 8.416-5.8991 9.9412-6.7394 12.242-6.7447 1.2532-0.0029 5.0782-1.4268 8.5-3.1642 6.4909-3.2958 10.547-3.9428 34.039-5.4299 9.5006-0.60138 15.465 0.21693 27.081 3.7157 4.9 1.462 10.9 0.982 14.1-1.14 2.9899-1.9801 6.5632-2.6748 6.4297-1.25-0.0387 0.4125-0.42951 1.65-0.86856 2.75-1.2858 3.2215 2.5132 11.272 8.2433 17.469 10.717 11.589 9.8717 29.076-1.9255 39.853l-4.7312 4.3219-12.324-0.5897c-12.376-0.59218-12.984-0.43707-11.673 2.9779 2.5944 6.7609 13.794 8.1948 26.849 3.4376 13.935-5.0778 15.529-5.9154 16.596-8.723 0.48009-1.2627 2.4742-3.2406 4.4313-4.3954 6.0876-3.5918 9.6147-12.952 10.118-26.851 0.1694-4.675 0.39911-11.2 0.51046-14.5 0.48602-14.404-6.9698-36.029-14.287-41.439-1.5911-1.1764-3.9582-3.8264-5.2603-5.889-2.4694-3.9117-5.6539-5.1667-43.368-17.091-19.272-6.0933-50.162-4.6849-63.947 2.9155-3.1867 1.7571-8.719 4.2126-12.294 5.4566s-8.1534 3.3384-10.174 4.6542c-2.0209 1.3158-7.3896 4.4174-11.93 6.8924-10.508 5.7271-23.191 17.703-24.738 23.357-0.78319 2.863-3.092 5.7494-8.9586 11.2-7.2655 6.7498-8.1247 7.9721-10.645 15.143-1.5078 4.2903-4.1035 10.5-5.7682 13.8-4.5549 9.0294-5.8705 14.273-4.7671 19 0.5136 2.2 0.94942 8.95 0.9685 15 0.0223 7.0855 0.59099 12.779 1.598 16 0.8598 2.75 2.2092 7.475 2.9985 10.5 2.3513 9.0105 4.2353 12.383 8.11 14.517 2.5704 1.4158 4.8067 4.1274 7.8209 9.4828 5.9803 10.626 15.801 13.969 18.943 6.4489zm-23.122-35.826c-14.197-16.205-2.0371-43.791 16.693-37.87 13.732 4.3406 14.298 7.7628 5.2894 31.976-1.3639 3.6658-2.3992 4.6313-7.7746 7.25-8.2071 3.9982-9.6366 3.8618-14.208-1.3564zm16.873-8.3255c8.247-8.053 2.979-19.868-7.9449-17.819-7.3083 1.371-8.4256 10.742-2.0547 17.234 5.1086 5.2053 5.2589 5.2141 9.9996 0.5849zm-4.47-46.893c-1.1904-1.1904-0.90602-1.9178 2.3521-6.017 1.6994-2.1381 3.4592-4.5472 3.9107-5.3536 2.01-3.59 13-0.67 13 3.46 0 5.733-1.8105 7.41-7.8855 7.304-3.088-0.0539-6.745 0.22784-8.1267 0.62608s-2.8442 0.39207-3.25-0.0137zm169.88-16.86c-0.89-1.36-1.62-2.866-1.62-3.35 0-0.48411-0.90364-1.698-2.0081-2.6975-1.8218-1.6487-1.8647-1.9758-0.46235-3.5253 1.2573-1.3893 1.3276-2.1868 0.37663-4.2739-1.81-3.961-0.58-5.693 4.02-5.693 4.9519 0 5.9003 1.5132 5.9852 9.5495 0.0346 3.2728 0.0923 6.7739 0.12824 7.7804 0.16398 4.59-3.946 5.9992-6.4319 2.2053zm-139.62-11.04c-1.925-0.74131-5.3608-1.3821-7.635-1.4239-5.8431-0.1075-11.146-17.194-6.3045-20.314 0.24171-0.15574 2.2395-1.6567 4.4395-3.3354 6.7923-5.1829 15.699-10.114 22.593-12.508l6.5934-2.2893 2.3452 2.1849c1.29 1.202 2.86 2.185 3.48 2.185 6.24 0 11.61 18.685 6.74 23.422-12.1 11.768-22.72 15.746-32.25 12.078zm19.069-9.4748c7.5874-7.9135 6.2191-14.124-3.3876-15.377-7.7871-1.0156-12.936 2.6283-14.145 10.011-1.9698 12.023 8.1738 15.127 17.533 5.3659zm82.271-3.4922c-2.8381-1.4423-5.3687-3.1657-5.6235-3.8299-0.61592-1.6051-11.189-1.3329-15.43 0.39714-3.8606 1.5748-8.5837 0.30755-9.1139-2.4453-0.30644-1.5912 0.16429-1.727 3.9954-1.1525 4.0265 0.60382 4.5084 0.42718 6.6176-2.4256 1.26-1.692 2.89-3.077 3.63-3.077 2.2836 0 3.9201-2.8948 5.7827-10.229 2.5212-9.9278 2.3891-9.8359 13.167-9.1631 21.774 1.359 30.056 9.5868 24.07 23.912-0.86502 2.0703-1.3182 4.7783-1.0071 6.0179 0.72678 2.8957-0.10427 3.1809-11.577 3.9727-8.7688 0.60519-9.6606 0.4836-14.503-1.9775zm16.199-7.9513c5.6116-8.5644-4.2954-17-11.688-9.9525-2.9126 2.7767-3.4741 7.9344-1.2547 11.525 1.3127 2.124 11.317 0.90813 12.943-1.5729zm-71.88 0.59299c-2.2007-2.4318-4.8809-10.97-4.1154-13.111 2.2428-6.2717 10.254-7.2566 9.6434-1.1855-0.31 3.085-0.27 3.121 4.25 3.121 5.2 0 5.67-1.11 3.06-7.346-0.82-1.974-1.5-4.729-1.5-6.122 0-2.034-0.49-2.532-2.5-2.532-3.4109 0-3.2154-2.6163 0.25-3.3457 2.202-0.46349 3.1485-0.0384 4.75 2.1334 3.4178 4.6349 9.8489 10.32 13.322 11.777 3.6703 1.5395 3.4795 2.7109-0.80209 4.925-1.8328 0.94777-3.284 2.8229-4.0574 5.2429-1.6158 5.0556-1.6683 5.094-8.497 6.22-3.281 0.54104-7.3257 1.2591-8.988 1.5956-2.2726 0.46012-3.4683 0.11934-4.8194-1.3736zm-30.84 138.52c0.18824-0.97748-0.56272-3.5135-1.6688-5.6356-1.7367-3.332-4.2153-13.26-4.1187-16.498 0.055-1.8446 2.9682 2.7225 2.9682 4.6533 0 3.6244 5.9065 13.78 8.0144 13.78 1.5396 0 1.9856-0.67392 1.9856-3 0-3.2889 1.6462-4.024 2.7822-1.2424 2.8146 6.8918 7.1808 10.387 8.5424 6.8389 0.84682-2.2068-0.29404-5.339-6.0034-16.482-2.93-5.71-5.32-11.01-5.32-11.78 0-0.76753-0.7875-1.6748-1.75-2.0161-3.819-1.3544-5.1142-3.5354-5.7775-9.729-0.63268-5.9079-0.82941-6.2766-3.8198-7.1582-2.4237-0.71449-3.2701-1.6203-3.6604-3.9172-0.57612-3.3904-2.6416-4.2203-5.4298-2.1816-1.8178 1.3292-1.8446 2.0028-0.62834 15.779 0.69877 7.9147 1.2744 15.065 1.2791 15.89 0.0657 11.467 10.983 31.127 12.606 22.7zm28.688-3.5643c-0.36963-1.9995-2.0586-6.3355-3.7532-9.6355s-3.9695-7.8-5.0552-10c-3.6218-7.3384-6.6991-8.4665-6.6991-2.4557 0 3.1449 8.8669 21.015 12.243 24.675 2.7284 2.9574 4.0893 1.8801 3.2641-2.5837zm12.49 1.78c0-1.943-0.97539-3.8282-7.98-15.423-4.3634-7.223-6.4513-9.5-8.7111-9.5-2.1856 0-1.6484 7.3827 0.69113 9.5 1.1 0.99549 2 2.4082 2 3.1394 0 2.0258 8.2942 14.123 10 14.585 2.3835 0.64577 4-0.28413 4-2.301zm12.984-5.9537c-2.64-4.95-10.98-9.06-10.98-5.42 0 5.5324 8.1072 12.16 10.711 8.7571 0.80772-1.0556 0.89852-2.1674 0.27255-3.337zm-36.918-41.005c2.3275-1.2456 2.5186-4.2349 0.38407-6.0065-2.3165-1.9225-4.7859 0.85455-3.8996 4.3856 0.75343 3.0019 0.85099 3.0469 3.5156 1.6209zm-10.56-6.85c0-2.7963-0.56878-3.6726-3.3525-5.1656-6.4449-3.4564-8.7002 1.4311-2.9065 6.2986 4.2554 3.5751 6.259 3.2124 6.259-1.133zm89.728-15.737c16.144-8.0602 11.62-26.065-5.1844-20.632-13.475 4.3567-15.296 17.315-3.1527 22.444 2.4778 1.0466 2.715 0.99505 8.3371-1.812zm-100.48-11.468c3.1945-11.469 1.2993-13.362-5.0464-5.0411-4.2712 5.6007-4.555 7.6078-1.5312 10.827 3.3708 3.5881 4.1601 2.8938 6.5776-5.7855zm9.0454 0.15214c-0.16353-1.4037-0.92329-2.5522-1.6883-2.5522-2.1563 0-3.4759 2.9019-2.709 5.9575 0.93751 3.7353 4.8741 0.68686 4.3974-3.4053zm8.1628 4.4959c1.5157-1.8263 0.96374-5.048-0.86484-5.048-1.8974 0-3.547 2.8804-2.7858 4.8641 0.77614 2.0226 2.0706 2.0878 3.6507 0.18396z"/>
</svg>
